G75*
%MOIN*%
%OFA0B0*%
%FSLAX25Y25*%
%IPPOS*%
%LPD*%
%AMOC8*
5,1,8,0,0,1.08239X$1,22.5*
%
%ADD10C,0.00700*%
%ADD11C,0.05543*%
%ADD12OC8,0.05543*%
%ADD13C,0.06600*%
%ADD14C,0.05200*%
%ADD15C,0.08600*%
%ADD16C,0.06000*%
%ADD17OC8,0.05200*%
%ADD18C,0.01600*%
%ADD19C,0.03569*%
%ADD20C,0.01181*%
%ADD21C,0.02400*%
%ADD22C,0.01200*%
D10*
X0108970Y0035631D02*
X0108970Y0040535D01*
X0110605Y0038900D01*
X0112240Y0040535D01*
X0112240Y0035631D01*
X0114127Y0035631D02*
X0117396Y0035631D01*
X0117396Y0040535D01*
X0124440Y0038900D02*
X0126892Y0038900D01*
X0127709Y0038083D01*
X0126892Y0037266D01*
X0125257Y0037266D01*
X0124440Y0036448D01*
X0125257Y0035631D01*
X0127709Y0035631D01*
X0129596Y0036448D02*
X0129596Y0038083D01*
X0130413Y0038900D01*
X0132048Y0038900D01*
X0132865Y0038083D01*
X0132865Y0036448D01*
X0132048Y0035631D01*
X0130413Y0035631D01*
X0129596Y0036448D01*
X0134752Y0035631D02*
X0137205Y0035631D01*
X0138022Y0036448D01*
X0138022Y0038083D01*
X0137205Y0038900D01*
X0134752Y0038900D01*
X0139867Y0038900D02*
X0140684Y0038900D01*
X0142319Y0037266D01*
X0142319Y0038900D02*
X0142319Y0035631D01*
X0144206Y0035631D02*
X0146658Y0035631D01*
X0147475Y0036448D01*
X0146658Y0037266D01*
X0144206Y0037266D01*
X0144206Y0038083D02*
X0144206Y0035631D01*
X0144206Y0038083D02*
X0145023Y0038900D01*
X0146658Y0038900D01*
X0149362Y0040535D02*
X0149362Y0035631D01*
X0150997Y0038900D02*
X0149362Y0040535D01*
X0150997Y0038900D02*
X0152632Y0040535D01*
X0152632Y0035631D01*
X0159675Y0035631D02*
X0162127Y0035631D01*
X0162944Y0036448D01*
X0162944Y0038900D01*
X0164831Y0038083D02*
X0165649Y0038900D01*
X0168101Y0038900D01*
X0168101Y0040535D02*
X0168101Y0035631D01*
X0165649Y0035631D01*
X0164831Y0036448D01*
X0164831Y0038083D01*
X0161310Y0033996D02*
X0160492Y0033996D01*
X0159675Y0034814D01*
X0159675Y0038900D01*
X0158457Y0295326D02*
X0158457Y0298595D01*
X0160092Y0300230D01*
X0161726Y0298595D01*
X0161726Y0295326D01*
X0161726Y0297778D02*
X0158457Y0297778D01*
X0156570Y0296143D02*
X0155753Y0295326D01*
X0154118Y0295326D01*
X0153301Y0296143D01*
X0153301Y0299413D02*
X0154118Y0300230D01*
X0155753Y0300230D01*
X0156570Y0299413D01*
X0156570Y0296143D01*
X0151414Y0300230D02*
X0148144Y0300230D01*
X0149779Y0300230D02*
X0149779Y0295326D01*
X0146257Y0296143D02*
X0145440Y0295326D01*
X0143805Y0295326D01*
X0142988Y0296143D01*
X0142988Y0299413D01*
X0143805Y0300230D01*
X0145440Y0300230D01*
X0146257Y0299413D01*
X0146257Y0296143D01*
X0141101Y0295326D02*
X0141101Y0300230D01*
X0138649Y0300230D01*
X0137831Y0299413D01*
X0137831Y0297778D01*
X0138649Y0296961D01*
X0141101Y0296961D01*
X0139466Y0296961D02*
X0137831Y0295326D01*
X0134310Y0297778D02*
X0135944Y0299413D01*
X0135944Y0300230D01*
X0134310Y0297778D02*
X0134310Y0295326D01*
X0134310Y0297778D02*
X0132675Y0299413D01*
X0132675Y0300230D01*
X0130788Y0298595D02*
X0129153Y0300230D01*
X0127519Y0298595D01*
X0127519Y0295326D01*
X0125632Y0295326D02*
X0125632Y0300230D01*
X0123180Y0300230D01*
X0122362Y0299413D01*
X0122362Y0297778D01*
X0123180Y0296961D01*
X0125632Y0296961D01*
X0123997Y0296961D02*
X0122362Y0295326D01*
X0120475Y0296143D02*
X0119658Y0295326D01*
X0118023Y0295326D01*
X0117206Y0296143D01*
X0115319Y0295326D02*
X0115319Y0298595D01*
X0113684Y0300230D01*
X0112049Y0298595D01*
X0112049Y0295326D01*
X0110162Y0295326D02*
X0107710Y0295326D01*
X0106893Y0296143D01*
X0106893Y0299413D01*
X0107710Y0300230D01*
X0110162Y0300230D01*
X0110162Y0295326D01*
X0112049Y0297778D02*
X0115319Y0297778D01*
X0117206Y0299413D02*
X0118023Y0300230D01*
X0119658Y0300230D01*
X0120475Y0299413D01*
X0120475Y0296143D01*
X0127519Y0297778D02*
X0130788Y0297778D01*
X0130788Y0298595D02*
X0130788Y0295326D01*
X0136071Y0305451D02*
X0136888Y0305451D01*
X0136071Y0305451D02*
X0135253Y0306269D01*
X0135253Y0310355D01*
X0135253Y0307086D02*
X0137705Y0307086D01*
X0138523Y0307903D01*
X0138523Y0310355D01*
X0140368Y0310355D02*
X0141185Y0310355D01*
X0142820Y0308721D01*
X0142820Y0310355D02*
X0142820Y0307086D01*
X0144707Y0307903D02*
X0144707Y0309538D01*
X0145524Y0310355D01*
X0147159Y0310355D01*
X0147976Y0309538D01*
X0147976Y0307903D01*
X0147159Y0307086D01*
X0145524Y0307086D01*
X0144707Y0307903D01*
X0149779Y0307086D02*
X0150596Y0307903D01*
X0150596Y0311173D01*
X0151414Y0310355D02*
X0149779Y0310355D01*
X0153301Y0310355D02*
X0155753Y0310355D01*
X0156570Y0309538D01*
X0156570Y0307903D01*
X0155753Y0307086D01*
X0153301Y0307086D01*
X0158457Y0307086D02*
X0160909Y0307086D01*
X0161726Y0307903D01*
X0160909Y0308721D01*
X0158457Y0308721D01*
X0158457Y0309538D02*
X0158457Y0307086D01*
X0158457Y0309538D02*
X0159274Y0310355D01*
X0160909Y0310355D01*
X0163613Y0311990D02*
X0166883Y0311990D01*
X0166883Y0307086D01*
X0166883Y0309538D02*
X0165248Y0309538D01*
X0166883Y0300230D02*
X0163613Y0300230D01*
X0165248Y0297778D02*
X0166883Y0297778D01*
X0166883Y0295326D02*
X0166883Y0300230D01*
X0128210Y0307086D02*
X0128210Y0310355D01*
X0126575Y0311990D01*
X0124940Y0310355D01*
X0124940Y0307086D01*
X0123053Y0307086D02*
X0123053Y0310355D01*
X0123053Y0308721D02*
X0121419Y0310355D01*
X0120601Y0310355D01*
X0118756Y0309538D02*
X0118756Y0307903D01*
X0117939Y0307086D01*
X0115487Y0307086D01*
X0113600Y0307903D02*
X0112783Y0308721D01*
X0110331Y0308721D01*
X0110331Y0309538D02*
X0110331Y0307086D01*
X0112783Y0307086D01*
X0113600Y0307903D01*
X0112783Y0310355D02*
X0111148Y0310355D01*
X0110331Y0309538D01*
X0108444Y0309538D02*
X0107626Y0310355D01*
X0105174Y0310355D01*
X0105174Y0311990D02*
X0105174Y0307086D01*
X0107626Y0307086D01*
X0108444Y0307903D01*
X0108444Y0309538D01*
X0103287Y0309538D02*
X0102470Y0310355D01*
X0100835Y0310355D01*
X0100018Y0309538D01*
X0100018Y0308721D01*
X0103287Y0308721D01*
X0103287Y0309538D02*
X0103287Y0307903D01*
X0102470Y0307086D01*
X0100835Y0307086D01*
X0101737Y0300230D02*
X0105006Y0300230D01*
X0105006Y0295326D01*
X0101737Y0295326D01*
X0099850Y0295326D02*
X0099850Y0296143D01*
X0099032Y0296143D01*
X0099032Y0295326D01*
X0099850Y0295326D01*
X0097271Y0295326D02*
X0094002Y0295326D01*
X0092115Y0296143D02*
X0091298Y0295326D01*
X0089663Y0295326D01*
X0088846Y0296143D01*
X0088846Y0296961D01*
X0089663Y0297778D01*
X0091298Y0297778D01*
X0092115Y0298595D01*
X0092115Y0299413D01*
X0091298Y0300230D01*
X0089663Y0300230D01*
X0088846Y0299413D01*
X0094002Y0300230D02*
X0097271Y0300230D01*
X0097271Y0295326D01*
X0097271Y0297778D02*
X0095637Y0297778D01*
X0092157Y0307086D02*
X0090522Y0307086D01*
X0089705Y0307903D01*
X0089705Y0308721D01*
X0090522Y0309538D01*
X0092157Y0309538D01*
X0092974Y0310355D01*
X0092974Y0311173D01*
X0092157Y0311990D01*
X0090522Y0311990D01*
X0089705Y0311173D01*
X0087818Y0311990D02*
X0087818Y0307086D01*
X0084549Y0307086D01*
X0082662Y0307903D02*
X0082662Y0311173D01*
X0081844Y0311990D01*
X0080210Y0311990D01*
X0079392Y0311173D01*
X0079392Y0309538D02*
X0081027Y0309538D01*
X0079392Y0309538D02*
X0079392Y0307903D01*
X0080210Y0307086D01*
X0081844Y0307086D01*
X0082662Y0307903D01*
X0092157Y0307086D02*
X0092974Y0307903D01*
X0103371Y0297778D02*
X0105006Y0297778D01*
X0115487Y0310355D02*
X0117939Y0310355D01*
X0118756Y0309538D01*
X0124940Y0309538D02*
X0128210Y0309538D01*
X0072349Y0308721D02*
X0070714Y0307086D01*
X0069079Y0308721D01*
X0069079Y0311990D01*
X0067192Y0309538D02*
X0066375Y0310355D01*
X0064740Y0310355D01*
X0063923Y0309538D01*
X0063923Y0308721D01*
X0067192Y0308721D01*
X0067192Y0309538D02*
X0067192Y0307903D01*
X0066375Y0307086D01*
X0064740Y0307086D01*
X0062036Y0307086D02*
X0062036Y0310355D01*
X0062036Y0308721D02*
X0060401Y0310355D01*
X0059584Y0310355D01*
X0057739Y0307903D02*
X0056922Y0307903D01*
X0056922Y0307086D01*
X0057739Y0307086D01*
X0057739Y0307903D01*
X0055161Y0307086D02*
X0051891Y0307086D01*
X0053526Y0307086D02*
X0053526Y0311990D01*
X0055161Y0310355D01*
X0050004Y0310355D02*
X0050004Y0307086D01*
X0050004Y0309538D02*
X0046735Y0309538D01*
X0046735Y0310355D02*
X0046735Y0307086D01*
X0046735Y0310355D02*
X0048370Y0311990D01*
X0050004Y0310355D01*
X0072349Y0311990D02*
X0072349Y0308721D01*
D11*
X0089956Y0284384D03*
X0085456Y0274384D03*
X0094456Y0274384D03*
X0098956Y0284384D03*
X0103456Y0274384D03*
X0107956Y0284384D03*
X0112456Y0274384D03*
X0116956Y0284384D03*
X0121456Y0274384D03*
X0125956Y0284384D03*
X0125956Y0264384D03*
X0116956Y0264384D03*
X0107956Y0264384D03*
X0098956Y0264384D03*
X0097043Y0080619D03*
X0092543Y0070619D03*
X0088043Y0080619D03*
X0088043Y0060619D03*
X0097043Y0060619D03*
X0101543Y0070619D03*
X0106043Y0080619D03*
X0110543Y0070619D03*
X0115043Y0080619D03*
X0119543Y0070619D03*
X0115043Y0060619D03*
X0106043Y0060619D03*
X0124043Y0060619D03*
X0128543Y0070619D03*
D12*
X0124043Y0080619D03*
X0089956Y0264384D03*
D13*
X0141800Y0140748D03*
X0161800Y0140748D03*
X0161800Y0100748D03*
X0141800Y0100748D03*
D14*
X0084400Y0100748D02*
X0079200Y0100748D01*
X0079200Y0110748D02*
X0084400Y0110748D01*
X0084400Y0120748D02*
X0079200Y0120748D01*
X0079200Y0130748D02*
X0084400Y0130748D01*
X0084400Y0140748D02*
X0079200Y0140748D01*
X0079200Y0150748D02*
X0084400Y0150748D01*
X0084400Y0160748D02*
X0079200Y0160748D01*
X0079200Y0180748D02*
X0084400Y0180748D01*
X0084400Y0190748D02*
X0079200Y0190748D01*
X0079200Y0200748D02*
X0084400Y0200748D01*
X0084400Y0210748D02*
X0079200Y0210748D01*
X0079200Y0220748D02*
X0084400Y0220748D01*
X0084400Y0230748D02*
X0079200Y0230748D01*
X0079200Y0240748D02*
X0084400Y0240748D01*
X0054400Y0240748D02*
X0049200Y0240748D01*
X0049200Y0230748D02*
X0054400Y0230748D01*
X0054400Y0220748D02*
X0049200Y0220748D01*
X0049200Y0210748D02*
X0054400Y0210748D01*
X0054400Y0200748D02*
X0049200Y0200748D01*
X0049200Y0190748D02*
X0054400Y0190748D01*
X0054400Y0180748D02*
X0049200Y0180748D01*
X0049200Y0160748D02*
X0054400Y0160748D01*
X0054400Y0150748D02*
X0049200Y0150748D01*
X0049200Y0140748D02*
X0054400Y0140748D01*
X0054400Y0130748D02*
X0049200Y0130748D01*
X0049200Y0120748D02*
X0054400Y0120748D01*
X0054400Y0110748D02*
X0049200Y0110748D01*
X0049200Y0100748D02*
X0054400Y0100748D01*
D15*
X0161800Y0154055D03*
X0161800Y0167835D03*
D16*
X0164800Y0185748D02*
X0158800Y0185748D01*
X0158800Y0195748D02*
X0164800Y0195748D01*
X0164800Y0205748D02*
X0158800Y0205748D01*
X0158800Y0220748D02*
X0164800Y0220748D01*
X0164800Y0230748D02*
X0158800Y0230748D01*
X0158800Y0240748D02*
X0164800Y0240748D01*
X0134800Y0240748D02*
X0128800Y0240748D01*
X0128800Y0230748D02*
X0134800Y0230748D01*
X0134800Y0220748D02*
X0128800Y0220748D01*
X0128800Y0205748D02*
X0134800Y0205748D01*
X0134800Y0195748D02*
X0128800Y0195748D01*
X0128800Y0185748D02*
X0134800Y0185748D01*
D17*
X0126800Y0165748D03*
X0134300Y0160748D03*
X0126800Y0155748D03*
X0121800Y0130748D03*
X0106800Y0130748D03*
X0106800Y0100748D03*
X0121800Y0100748D03*
D18*
X0018781Y0027729D02*
X0018781Y0317468D01*
X0194740Y0317468D01*
X0194740Y0027729D01*
X0018781Y0027729D01*
X0018781Y0028945D02*
X0194740Y0028945D01*
X0194740Y0030544D02*
X0018781Y0030544D01*
X0018781Y0032142D02*
X0159050Y0032142D01*
X0159527Y0031665D02*
X0158161Y0033031D01*
X0157344Y0033848D01*
X0157344Y0039866D01*
X0158709Y0041232D01*
X0160641Y0041232D01*
X0161310Y0040562D01*
X0161979Y0041232D01*
X0163910Y0041232D01*
X0164297Y0040845D01*
X0164683Y0041232D01*
X0165770Y0041232D01*
X0165770Y0041501D01*
X0167135Y0042866D01*
X0169066Y0042866D01*
X0170432Y0041501D01*
X0170432Y0039866D01*
X0170432Y0034665D01*
X0169066Y0033300D01*
X0164683Y0033300D01*
X0163888Y0034095D01*
X0163641Y0033848D01*
X0163641Y0033031D01*
X0162275Y0031665D01*
X0159527Y0031665D01*
X0157451Y0033741D02*
X0154038Y0033741D01*
X0153597Y0033300D02*
X0154963Y0034665D01*
X0154963Y0041501D01*
X0153597Y0042866D01*
X0151666Y0042866D01*
X0150997Y0042197D01*
X0150328Y0042866D01*
X0148397Y0042866D01*
X0147031Y0041501D01*
X0147031Y0041232D01*
X0144058Y0041232D01*
X0143671Y0040845D01*
X0143284Y0041232D01*
X0138901Y0041232D01*
X0138536Y0040866D01*
X0138170Y0041232D01*
X0133787Y0041232D01*
X0133400Y0040845D01*
X0133014Y0041232D01*
X0129448Y0041232D01*
X0128653Y0040436D01*
X0127857Y0041232D01*
X0123474Y0041232D01*
X0122109Y0039866D01*
X0122109Y0037935D01*
X0122369Y0037674D01*
X0122109Y0037414D01*
X0122109Y0035483D01*
X0123474Y0034117D01*
X0124291Y0033300D01*
X0128675Y0033300D01*
X0129061Y0033687D01*
X0129448Y0033300D01*
X0133014Y0033300D01*
X0133400Y0033687D01*
X0133787Y0033300D01*
X0138170Y0033300D01*
X0139536Y0034665D01*
X0139988Y0035118D01*
X0139988Y0034665D01*
X0141353Y0033300D01*
X0147623Y0033300D01*
X0148010Y0033687D01*
X0148397Y0033300D01*
X0150328Y0033300D01*
X0150997Y0033969D01*
X0151666Y0033300D01*
X0153597Y0033300D01*
X0151225Y0033741D02*
X0150768Y0033741D01*
X0154963Y0035339D02*
X0157344Y0035339D01*
X0157344Y0036938D02*
X0154963Y0036938D01*
X0154963Y0038536D02*
X0157344Y0038536D01*
X0157612Y0040135D02*
X0154963Y0040135D01*
X0154730Y0041733D02*
X0166002Y0041733D01*
X0170200Y0041733D02*
X0194740Y0041733D01*
X0194740Y0040135D02*
X0170432Y0040135D01*
X0170432Y0038536D02*
X0194740Y0038536D01*
X0194740Y0036938D02*
X0170432Y0036938D01*
X0170432Y0035339D02*
X0194740Y0035339D01*
X0194740Y0033741D02*
X0169507Y0033741D01*
X0164243Y0033741D02*
X0163641Y0033741D01*
X0162752Y0032142D02*
X0194740Y0032142D01*
X0194740Y0043332D02*
X0018781Y0043332D01*
X0018781Y0044930D02*
X0194740Y0044930D01*
X0194740Y0046529D02*
X0018781Y0046529D01*
X0018781Y0048127D02*
X0028561Y0048127D01*
X0027110Y0048728D02*
X0030153Y0047468D01*
X0033447Y0047468D01*
X0036490Y0048728D01*
X0038820Y0051058D01*
X0040080Y0054101D01*
X0040080Y0057395D01*
X0038820Y0060438D01*
X0036490Y0062768D01*
X0033447Y0064028D01*
X0030153Y0064028D01*
X0027110Y0062768D01*
X0024780Y0060438D01*
X0023520Y0057395D01*
X0023520Y0054101D01*
X0024780Y0051058D01*
X0027110Y0048728D01*
X0026112Y0049726D02*
X0018781Y0049726D01*
X0018781Y0051324D02*
X0024670Y0051324D01*
X0024008Y0052923D02*
X0018781Y0052923D01*
X0018781Y0054521D02*
X0023520Y0054521D01*
X0023520Y0056120D02*
X0018781Y0056120D01*
X0018781Y0057718D02*
X0023654Y0057718D01*
X0024316Y0059317D02*
X0018781Y0059317D01*
X0018781Y0060915D02*
X0025257Y0060915D01*
X0026856Y0062514D02*
X0018781Y0062514D01*
X0018781Y0064112D02*
X0048496Y0064112D01*
X0048745Y0063681D02*
X0050849Y0061577D01*
X0053426Y0060089D01*
X0056300Y0059319D01*
X0059275Y0059319D01*
X0062149Y0060089D01*
X0064726Y0061577D01*
X0066829Y0063681D01*
X0068317Y0066257D01*
X0069087Y0069131D01*
X0069087Y0072107D01*
X0068317Y0074981D01*
X0066829Y0077557D01*
X0064726Y0079661D01*
X0062149Y0081149D01*
X0059275Y0081919D01*
X0056300Y0081919D01*
X0053426Y0081149D01*
X0050849Y0079661D01*
X0048745Y0077557D01*
X0047257Y0074981D01*
X0046487Y0072107D01*
X0046487Y0069131D01*
X0047257Y0066257D01*
X0048745Y0063681D01*
X0049912Y0062514D02*
X0036744Y0062514D01*
X0038343Y0060915D02*
X0051994Y0060915D01*
X0047573Y0065711D02*
X0018781Y0065711D01*
X0018781Y0067309D02*
X0046975Y0067309D01*
X0046547Y0068908D02*
X0018781Y0068908D01*
X0018781Y0070506D02*
X0046487Y0070506D01*
X0046487Y0072105D02*
X0018781Y0072105D01*
X0018781Y0073703D02*
X0046915Y0073703D01*
X0047443Y0075302D02*
X0018781Y0075302D01*
X0018781Y0076900D02*
X0048366Y0076900D01*
X0049687Y0078499D02*
X0018781Y0078499D01*
X0018781Y0080097D02*
X0051604Y0080097D01*
X0055467Y0081696D02*
X0018781Y0081696D01*
X0018781Y0083294D02*
X0084336Y0083294D01*
X0084133Y0083015D02*
X0083806Y0082374D01*
X0083584Y0081689D01*
X0083471Y0080979D01*
X0083471Y0080705D01*
X0087957Y0080705D01*
X0087957Y0085191D01*
X0087683Y0085191D01*
X0086973Y0085078D01*
X0086288Y0084856D01*
X0085647Y0084529D01*
X0085065Y0084106D01*
X0084556Y0083597D01*
X0084133Y0083015D01*
X0083586Y0081696D02*
X0060107Y0081696D01*
X0063970Y0080097D02*
X0083497Y0080097D01*
X0083471Y0080259D02*
X0083584Y0079548D01*
X0083806Y0078864D01*
X0084133Y0078223D01*
X0084556Y0077641D01*
X0085065Y0077132D01*
X0085647Y0076709D01*
X0086288Y0076382D01*
X0086973Y0076160D01*
X0087683Y0076047D01*
X0087957Y0076047D01*
X0087957Y0080533D01*
X0083471Y0080533D01*
X0083471Y0080259D01*
X0083992Y0078499D02*
X0065888Y0078499D01*
X0067209Y0076900D02*
X0085383Y0076900D01*
X0087957Y0076900D02*
X0088129Y0076900D01*
X0088129Y0076047D02*
X0088403Y0076047D01*
X0089114Y0076160D01*
X0089798Y0076382D01*
X0090439Y0076709D01*
X0091021Y0077132D01*
X0091530Y0077641D01*
X0091953Y0078223D01*
X0092280Y0078864D01*
X0092432Y0079332D01*
X0093014Y0077927D01*
X0094351Y0076590D01*
X0096098Y0075866D01*
X0097988Y0075866D01*
X0099735Y0076590D01*
X0101072Y0077927D01*
X0101543Y0079063D01*
X0102014Y0077927D01*
X0103351Y0076590D01*
X0105098Y0075866D01*
X0106988Y0075866D01*
X0108735Y0076590D01*
X0110072Y0077927D01*
X0110543Y0079063D01*
X0111014Y0077927D01*
X0112351Y0076590D01*
X0114098Y0075866D01*
X0115988Y0075866D01*
X0117735Y0076590D01*
X0119072Y0077927D01*
X0119348Y0078593D01*
X0122074Y0075866D01*
X0126012Y0075866D01*
X0128796Y0078650D01*
X0128796Y0082588D01*
X0126012Y0085372D01*
X0122074Y0085372D01*
X0119348Y0082645D01*
X0119072Y0083311D01*
X0117735Y0084648D01*
X0115988Y0085372D01*
X0114098Y0085372D01*
X0113807Y0085251D01*
X0091638Y0107421D01*
X0090914Y0108145D01*
X0089969Y0108536D01*
X0088442Y0108536D01*
X0088981Y0109837D01*
X0088981Y0111659D01*
X0088284Y0113343D01*
X0086995Y0114632D01*
X0085311Y0115329D01*
X0080777Y0115329D01*
X0079939Y0116167D01*
X0085311Y0116167D01*
X0086995Y0116864D01*
X0088284Y0118153D01*
X0088981Y0119837D01*
X0088981Y0121659D01*
X0088284Y0123343D01*
X0088207Y0123419D01*
X0092578Y0127790D01*
X0103280Y0127790D01*
X0104902Y0126167D01*
X0107097Y0126167D01*
X0134516Y0098977D01*
X0134960Y0098533D01*
X0134966Y0098531D01*
X0134971Y0098526D01*
X0135549Y0098289D01*
X0136129Y0098049D01*
X0136136Y0098049D01*
X0136142Y0098046D01*
X0136768Y0098049D01*
X0137202Y0098049D01*
X0137323Y0097756D01*
X0138808Y0096271D01*
X0140750Y0095467D01*
X0142850Y0095467D01*
X0144791Y0096271D01*
X0146277Y0097756D01*
X0147081Y0099697D01*
X0147081Y0101798D01*
X0146277Y0103739D01*
X0144791Y0105225D01*
X0142850Y0106029D01*
X0140750Y0106029D01*
X0138808Y0105225D01*
X0138033Y0104450D01*
X0118761Y0123561D01*
X0169688Y0123561D01*
X0170637Y0123954D01*
X0176775Y0130092D01*
X0177168Y0131041D01*
X0177168Y0227479D01*
X0177176Y0227498D01*
X0177176Y0228525D01*
X0176783Y0229474D01*
X0176057Y0230200D01*
X0176035Y0230209D01*
X0168670Y0237574D01*
X0169023Y0237926D01*
X0169781Y0239757D01*
X0169781Y0241739D01*
X0169023Y0243570D01*
X0167622Y0244971D01*
X0165791Y0245729D01*
X0157809Y0245729D01*
X0155978Y0244971D01*
X0154577Y0243570D01*
X0153819Y0241739D01*
X0153819Y0240918D01*
X0139781Y0240918D01*
X0139781Y0241739D01*
X0139023Y0243570D01*
X0137622Y0244971D01*
X0135791Y0245729D01*
X0127809Y0245729D01*
X0125978Y0244971D01*
X0124577Y0243570D01*
X0123819Y0241739D01*
X0123819Y0239757D01*
X0124577Y0237926D01*
X0125978Y0236525D01*
X0127809Y0235767D01*
X0135791Y0235767D01*
X0135810Y0235775D01*
X0153353Y0235775D01*
X0154699Y0234429D01*
X0155068Y0234060D01*
X0154577Y0233570D01*
X0153819Y0231739D01*
X0153819Y0229757D01*
X0154577Y0227926D01*
X0155978Y0226525D01*
X0157809Y0225767D01*
X0163379Y0225767D01*
X0163417Y0225729D01*
X0157809Y0225729D01*
X0155978Y0224971D01*
X0154577Y0223570D01*
X0153819Y0221739D01*
X0153819Y0219757D01*
X0154410Y0218329D01*
X0148053Y0218329D01*
X0138739Y0227643D01*
X0139023Y0227926D01*
X0139781Y0229757D01*
X0139781Y0231739D01*
X0139023Y0233570D01*
X0137622Y0234971D01*
X0135791Y0235729D01*
X0127809Y0235729D01*
X0125978Y0234971D01*
X0124577Y0233570D01*
X0123819Y0231739D01*
X0123819Y0229757D01*
X0124577Y0227926D01*
X0125978Y0226525D01*
X0127809Y0225767D01*
X0133341Y0225767D01*
X0133379Y0225729D01*
X0127809Y0225729D01*
X0125978Y0224971D01*
X0124577Y0223570D01*
X0123819Y0221739D01*
X0123819Y0219757D01*
X0124410Y0218329D01*
X0088357Y0218329D01*
X0088981Y0219837D01*
X0088981Y0221659D01*
X0088284Y0223343D01*
X0086995Y0224632D01*
X0085311Y0225329D01*
X0078289Y0225329D01*
X0076605Y0224632D01*
X0075316Y0223343D01*
X0074619Y0221659D01*
X0074619Y0219837D01*
X0075243Y0218329D01*
X0058357Y0218329D01*
X0058981Y0219837D01*
X0058981Y0221659D01*
X0058284Y0223343D01*
X0058099Y0223528D01*
X0063338Y0228767D01*
X0063360Y0228776D01*
X0064087Y0229502D01*
X0064463Y0230410D01*
X0065086Y0230152D01*
X0066584Y0230152D01*
X0067968Y0230725D01*
X0069028Y0231784D01*
X0069601Y0233168D01*
X0069601Y0234046D01*
X0074845Y0239290D01*
X0075316Y0238153D01*
X0076605Y0236864D01*
X0078289Y0236167D01*
X0085311Y0236167D01*
X0086995Y0236864D01*
X0088284Y0238153D01*
X0088981Y0239837D01*
X0088981Y0241659D01*
X0088284Y0243343D01*
X0086995Y0244632D01*
X0085311Y0245329D01*
X0080884Y0245329D01*
X0092491Y0256936D01*
X0094890Y0256936D01*
X0095835Y0257328D01*
X0098139Y0259631D01*
X0099902Y0259631D01*
X0101649Y0260354D01*
X0102986Y0261691D01*
X0103456Y0262828D01*
X0103927Y0261691D01*
X0105264Y0260354D01*
X0107011Y0259631D01*
X0108902Y0259631D01*
X0110649Y0260354D01*
X0111986Y0261691D01*
X0112456Y0262828D01*
X0112927Y0261691D01*
X0114264Y0260354D01*
X0116011Y0259631D01*
X0117902Y0259631D01*
X0119649Y0260354D01*
X0120986Y0261691D01*
X0121568Y0263097D01*
X0121720Y0262629D01*
X0122046Y0261988D01*
X0122469Y0261405D01*
X0122978Y0260897D01*
X0123560Y0260474D01*
X0124202Y0260147D01*
X0124886Y0259925D01*
X0125597Y0259812D01*
X0125871Y0259812D01*
X0125871Y0264298D01*
X0126042Y0264298D01*
X0126042Y0259812D01*
X0126316Y0259812D01*
X0127027Y0259925D01*
X0127711Y0260147D01*
X0128353Y0260474D01*
X0128935Y0260897D01*
X0129444Y0261405D01*
X0129866Y0261988D01*
X0130193Y0262629D01*
X0130416Y0263313D01*
X0130528Y0264024D01*
X0130528Y0264298D01*
X0126042Y0264298D01*
X0126042Y0264469D01*
X0130528Y0264469D01*
X0130528Y0264743D01*
X0130416Y0265454D01*
X0130193Y0266139D01*
X0129866Y0266780D01*
X0129444Y0267362D01*
X0128935Y0267871D01*
X0128353Y0268294D01*
X0127711Y0268620D01*
X0127027Y0268843D01*
X0126316Y0268955D01*
X0126042Y0268955D01*
X0126042Y0264470D01*
X0125871Y0264470D01*
X0125871Y0268955D01*
X0125597Y0268955D01*
X0124886Y0268843D01*
X0124202Y0268620D01*
X0123560Y0268294D01*
X0122978Y0267871D01*
X0122469Y0267362D01*
X0122046Y0266780D01*
X0121720Y0266139D01*
X0121568Y0265671D01*
X0120986Y0267076D01*
X0119649Y0268413D01*
X0117902Y0269136D01*
X0116011Y0269136D01*
X0114264Y0268413D01*
X0112927Y0267076D01*
X0112456Y0265939D01*
X0111986Y0267076D01*
X0110649Y0268413D01*
X0108902Y0269136D01*
X0107011Y0269136D01*
X0105264Y0268413D01*
X0103927Y0267076D01*
X0103456Y0265939D01*
X0102986Y0267076D01*
X0101649Y0268413D01*
X0099902Y0269136D01*
X0098011Y0269136D01*
X0096264Y0268413D01*
X0094927Y0267076D01*
X0094651Y0266410D01*
X0091925Y0269136D01*
X0087988Y0269136D01*
X0085204Y0266352D01*
X0085204Y0262802D01*
X0059612Y0237210D01*
X0059219Y0236261D01*
X0059219Y0231922D01*
X0058744Y0231447D01*
X0058692Y0231778D01*
X0058478Y0232437D01*
X0058163Y0233054D01*
X0057756Y0233614D01*
X0057266Y0234104D01*
X0056706Y0234511D01*
X0056089Y0234826D01*
X0055430Y0235040D01*
X0054746Y0235148D01*
X0051800Y0235148D01*
X0051800Y0230748D01*
X0051800Y0230748D01*
X0051800Y0235148D01*
X0048854Y0235148D01*
X0048170Y0235040D01*
X0047511Y0234826D01*
X0046894Y0234511D01*
X0046334Y0234104D01*
X0045844Y0233614D01*
X0045437Y0233054D01*
X0045122Y0232437D01*
X0044908Y0231778D01*
X0044800Y0231094D01*
X0044800Y0230748D01*
X0051800Y0230748D01*
X0051800Y0230748D01*
X0051800Y0226348D01*
X0053645Y0226348D01*
X0052626Y0225329D01*
X0048289Y0225329D01*
X0046605Y0224632D01*
X0045316Y0223343D01*
X0044619Y0221659D01*
X0044619Y0219837D01*
X0045316Y0218153D01*
X0045476Y0217993D01*
X0045338Y0217936D01*
X0044612Y0217210D01*
X0042486Y0215084D01*
X0042093Y0214135D01*
X0042093Y0128089D01*
X0042486Y0127140D01*
X0043212Y0126414D01*
X0043235Y0126405D01*
X0045678Y0123962D01*
X0045860Y0123886D01*
X0045316Y0123343D01*
X0044619Y0121659D01*
X0044619Y0119837D01*
X0045316Y0118153D01*
X0046605Y0116864D01*
X0048289Y0116167D01*
X0055311Y0116167D01*
X0056995Y0116864D01*
X0058284Y0118153D01*
X0058981Y0119837D01*
X0058981Y0121659D01*
X0058284Y0123343D01*
X0058057Y0123570D01*
X0065262Y0123570D01*
X0075403Y0113430D01*
X0075316Y0113343D01*
X0074619Y0111659D01*
X0074619Y0109837D01*
X0075158Y0108536D01*
X0071049Y0108536D01*
X0070429Y0109157D01*
X0069045Y0109730D01*
X0067547Y0109730D01*
X0066163Y0109157D01*
X0065104Y0108097D01*
X0064531Y0106713D01*
X0064531Y0105216D01*
X0065104Y0103832D01*
X0066163Y0102772D01*
X0067547Y0102199D01*
X0069045Y0102199D01*
X0070429Y0102772D01*
X0071049Y0103393D01*
X0075366Y0103393D01*
X0075316Y0103343D01*
X0074619Y0101659D01*
X0074619Y0099837D01*
X0075316Y0098153D01*
X0076605Y0096864D01*
X0078289Y0096167D01*
X0085311Y0096167D01*
X0086995Y0096864D01*
X0088284Y0098153D01*
X0088981Y0099837D01*
X0088981Y0101659D01*
X0088284Y0103343D01*
X0088234Y0103393D01*
X0088392Y0103393D01*
X0106413Y0085372D01*
X0105098Y0085372D01*
X0103351Y0084648D01*
X0102014Y0083311D01*
X0101543Y0082174D01*
X0101072Y0083311D01*
X0099735Y0084648D01*
X0097988Y0085372D01*
X0096098Y0085372D01*
X0094351Y0084648D01*
X0093014Y0083311D01*
X0092432Y0081906D01*
X0092280Y0082374D01*
X0091953Y0083015D01*
X0091530Y0083597D01*
X0091021Y0084106D01*
X0090439Y0084529D01*
X0089798Y0084856D01*
X0089114Y0085078D01*
X0088403Y0085191D01*
X0088129Y0085191D01*
X0088129Y0080705D01*
X0087957Y0080705D01*
X0087957Y0080533D01*
X0088129Y0080533D01*
X0088129Y0076047D01*
X0089565Y0074106D02*
X0089056Y0073597D01*
X0088633Y0073015D01*
X0088306Y0072374D01*
X0088084Y0071689D01*
X0087971Y0070979D01*
X0087971Y0070705D01*
X0092457Y0070705D01*
X0092457Y0075191D01*
X0092183Y0075191D01*
X0091473Y0075078D01*
X0090788Y0074856D01*
X0090147Y0074529D01*
X0089565Y0074106D01*
X0089162Y0073703D02*
X0068659Y0073703D01*
X0069087Y0072105D02*
X0088219Y0072105D01*
X0087971Y0070533D02*
X0087971Y0070259D01*
X0088084Y0069548D01*
X0088306Y0068864D01*
X0088633Y0068223D01*
X0089056Y0067641D01*
X0089565Y0067132D01*
X0090147Y0066709D01*
X0090788Y0066382D01*
X0091473Y0066160D01*
X0092183Y0066047D01*
X0092457Y0066047D01*
X0092457Y0070533D01*
X0087971Y0070533D01*
X0087971Y0070506D02*
X0069087Y0070506D01*
X0069027Y0068908D02*
X0088292Y0068908D01*
X0089387Y0067309D02*
X0068599Y0067309D01*
X0068002Y0065711D02*
X0098716Y0065711D01*
X0098263Y0065258D02*
X0097988Y0065372D01*
X0096098Y0065372D01*
X0094351Y0064648D01*
X0093014Y0063311D01*
X0092543Y0062174D01*
X0092072Y0063311D01*
X0090735Y0064648D01*
X0088988Y0065372D01*
X0087098Y0065372D01*
X0085351Y0064648D01*
X0084014Y0063311D01*
X0083290Y0061564D01*
X0083290Y0059674D01*
X0084014Y0057927D01*
X0085351Y0056590D01*
X0087098Y0055866D01*
X0088988Y0055866D01*
X0090735Y0056590D01*
X0092072Y0057927D01*
X0092543Y0059063D01*
X0093014Y0057927D01*
X0094351Y0056590D01*
X0096098Y0055866D01*
X0097988Y0055866D01*
X0099735Y0056590D01*
X0101072Y0057927D01*
X0101543Y0059063D01*
X0102014Y0057927D01*
X0103351Y0056590D01*
X0105098Y0055866D01*
X0106988Y0055866D01*
X0108735Y0056590D01*
X0110072Y0057927D01*
X0110543Y0059063D01*
X0111014Y0057927D01*
X0112351Y0056590D01*
X0114098Y0055866D01*
X0115988Y0055866D01*
X0117735Y0056590D01*
X0119072Y0057927D01*
X0119543Y0059063D01*
X0120014Y0057927D01*
X0121351Y0056590D01*
X0123098Y0055866D01*
X0124988Y0055866D01*
X0126735Y0056590D01*
X0128072Y0057927D01*
X0128796Y0059674D01*
X0128796Y0061564D01*
X0128185Y0063039D01*
X0133705Y0063039D01*
X0133728Y0063029D01*
X0134754Y0063029D01*
X0135703Y0063422D01*
X0138262Y0065981D01*
X0138988Y0066707D01*
X0139381Y0067656D01*
X0139381Y0086261D01*
X0138988Y0087210D01*
X0126381Y0099817D01*
X0126381Y0102646D01*
X0123698Y0105329D01*
X0119902Y0105329D01*
X0117219Y0102646D01*
X0117219Y0098850D01*
X0119902Y0096167D01*
X0122731Y0096167D01*
X0134219Y0084679D01*
X0134219Y0069238D01*
X0133162Y0068182D01*
X0132423Y0068182D01*
X0132453Y0068223D01*
X0132780Y0068864D01*
X0133002Y0069548D01*
X0133115Y0070259D01*
X0133115Y0070533D01*
X0128629Y0070533D01*
X0128629Y0070705D01*
X0128457Y0070705D01*
X0128457Y0075191D01*
X0128183Y0075191D01*
X0127473Y0075078D01*
X0126788Y0074856D01*
X0126147Y0074529D01*
X0125565Y0074106D01*
X0125056Y0073597D01*
X0124633Y0073015D01*
X0124306Y0072374D01*
X0124084Y0071689D01*
X0124043Y0071431D01*
X0124002Y0071689D01*
X0123780Y0072374D01*
X0123453Y0073015D01*
X0123030Y0073597D01*
X0122521Y0074106D01*
X0121939Y0074529D01*
X0121298Y0074856D01*
X0120614Y0075078D01*
X0119903Y0075191D01*
X0119629Y0075191D01*
X0119629Y0070705D01*
X0119457Y0070705D01*
X0119457Y0075191D01*
X0119183Y0075191D01*
X0118473Y0075078D01*
X0117788Y0074856D01*
X0117147Y0074529D01*
X0116565Y0074106D01*
X0116056Y0073597D01*
X0115633Y0073015D01*
X0115306Y0072374D01*
X0115084Y0071689D01*
X0115043Y0071431D01*
X0115002Y0071689D01*
X0114780Y0072374D01*
X0114453Y0073015D01*
X0114030Y0073597D01*
X0113521Y0074106D01*
X0112939Y0074529D01*
X0112298Y0074856D01*
X0111614Y0075078D01*
X0110903Y0075191D01*
X0110629Y0075191D01*
X0110629Y0070705D01*
X0110457Y0070705D01*
X0110457Y0075191D01*
X0110183Y0075191D01*
X0109473Y0075078D01*
X0108788Y0074856D01*
X0108147Y0074529D01*
X0107565Y0074106D01*
X0107056Y0073597D01*
X0106633Y0073015D01*
X0106306Y0072374D01*
X0106154Y0071906D01*
X0105572Y0073311D01*
X0104235Y0074648D01*
X0102488Y0075372D01*
X0100598Y0075372D01*
X0098851Y0074648D01*
X0097514Y0073311D01*
X0096932Y0071906D01*
X0096780Y0072374D01*
X0096453Y0073015D01*
X0096030Y0073597D01*
X0095521Y0074106D01*
X0094939Y0074529D01*
X0094298Y0074856D01*
X0093614Y0075078D01*
X0092903Y0075191D01*
X0092629Y0075191D01*
X0092629Y0070705D01*
X0092457Y0070705D01*
X0092457Y0070533D01*
X0092629Y0070533D01*
X0092629Y0066047D01*
X0092903Y0066047D01*
X0093614Y0066160D01*
X0094298Y0066382D01*
X0094939Y0066709D01*
X0095521Y0067132D01*
X0096030Y0067641D01*
X0096453Y0068223D01*
X0096780Y0068864D01*
X0096932Y0069332D01*
X0097514Y0067927D01*
X0098851Y0066590D01*
X0099377Y0066372D01*
X0098263Y0065258D01*
X0098131Y0067309D02*
X0095699Y0067309D01*
X0096794Y0068908D02*
X0097108Y0068908D01*
X0097014Y0072105D02*
X0096867Y0072105D01*
X0095924Y0073703D02*
X0097906Y0073703D01*
X0100046Y0076900D02*
X0103040Y0076900D01*
X0102657Y0075302D02*
X0134219Y0075302D01*
X0134219Y0076900D02*
X0127046Y0076900D01*
X0128644Y0078499D02*
X0134219Y0078499D01*
X0134219Y0080097D02*
X0128796Y0080097D01*
X0128796Y0081696D02*
X0134219Y0081696D01*
X0134219Y0083294D02*
X0128089Y0083294D01*
X0126490Y0084893D02*
X0134005Y0084893D01*
X0132406Y0086491D02*
X0112567Y0086491D01*
X0110969Y0088090D02*
X0130808Y0088090D01*
X0129209Y0089688D02*
X0109370Y0089688D01*
X0107772Y0091287D02*
X0127611Y0091287D01*
X0126012Y0092885D02*
X0106173Y0092885D01*
X0104575Y0094484D02*
X0124414Y0094484D01*
X0122815Y0096082D02*
X0102976Y0096082D01*
X0103388Y0097681D02*
X0101378Y0097681D01*
X0102219Y0098850D02*
X0104902Y0096167D01*
X0108698Y0096167D01*
X0111381Y0098850D01*
X0111381Y0102646D01*
X0108698Y0105329D01*
X0104902Y0105329D01*
X0102219Y0102646D01*
X0102219Y0098850D01*
X0102219Y0099280D02*
X0099779Y0099280D01*
X0098181Y0100878D02*
X0102219Y0100878D01*
X0102219Y0102477D02*
X0096582Y0102477D01*
X0094984Y0104075D02*
X0103648Y0104075D01*
X0109952Y0104075D02*
X0118648Y0104075D01*
X0117219Y0102477D02*
X0111381Y0102477D01*
X0111381Y0100878D02*
X0117219Y0100878D01*
X0117219Y0099280D02*
X0111381Y0099280D01*
X0110212Y0097681D02*
X0118388Y0097681D01*
X0124952Y0104075D02*
X0129375Y0104075D01*
X0127763Y0105674D02*
X0093385Y0105674D01*
X0091787Y0107272D02*
X0126151Y0107272D01*
X0124539Y0108871D02*
X0088581Y0108871D01*
X0088981Y0110469D02*
X0122927Y0110469D01*
X0121315Y0112068D02*
X0088812Y0112068D01*
X0087961Y0113666D02*
X0119703Y0113666D01*
X0118091Y0115265D02*
X0085467Y0115265D01*
X0086992Y0116863D02*
X0116479Y0116863D01*
X0114867Y0118462D02*
X0088412Y0118462D01*
X0088981Y0120060D02*
X0113255Y0120060D01*
X0111643Y0121659D02*
X0088981Y0121659D01*
X0088319Y0123257D02*
X0110032Y0123257D01*
X0108420Y0124856D02*
X0089644Y0124856D01*
X0091242Y0126454D02*
X0104615Y0126454D01*
X0106682Y0130571D02*
X0091426Y0130571D01*
X0082076Y0121220D01*
X0075166Y0113666D02*
X0057961Y0113666D01*
X0058284Y0113343D02*
X0056995Y0114632D01*
X0055311Y0115329D01*
X0048289Y0115329D01*
X0046605Y0114632D01*
X0045316Y0113343D01*
X0044619Y0111659D01*
X0044619Y0109837D01*
X0045316Y0108153D01*
X0046605Y0106864D01*
X0048289Y0106167D01*
X0055311Y0106167D01*
X0056995Y0106864D01*
X0058284Y0108153D01*
X0058981Y0109837D01*
X0058981Y0111659D01*
X0058284Y0113343D01*
X0058812Y0112068D02*
X0074788Y0112068D01*
X0074619Y0110469D02*
X0058981Y0110469D01*
X0058581Y0108871D02*
X0065877Y0108871D01*
X0064762Y0107272D02*
X0057403Y0107272D01*
X0056089Y0104826D02*
X0055430Y0105040D01*
X0054746Y0105148D01*
X0051800Y0105148D01*
X0051800Y0100748D01*
X0051800Y0100748D01*
X0051800Y0105148D01*
X0048854Y0105148D01*
X0048170Y0105040D01*
X0047511Y0104826D01*
X0046894Y0104511D01*
X0046334Y0104104D01*
X0045844Y0103614D01*
X0045437Y0103054D01*
X0045122Y0102437D01*
X0044908Y0101778D01*
X0044800Y0101094D01*
X0044800Y0100748D01*
X0051800Y0100748D01*
X0058800Y0100748D01*
X0058800Y0101094D01*
X0058692Y0101778D01*
X0058478Y0102437D01*
X0058163Y0103054D01*
X0057756Y0103614D01*
X0057266Y0104104D01*
X0056706Y0104511D01*
X0056089Y0104826D01*
X0057295Y0104075D02*
X0065003Y0104075D01*
X0064531Y0105674D02*
X0018781Y0105674D01*
X0018781Y0107272D02*
X0046197Y0107272D01*
X0045019Y0108871D02*
X0018781Y0108871D01*
X0018781Y0110469D02*
X0044619Y0110469D01*
X0044788Y0112068D02*
X0018781Y0112068D01*
X0018781Y0113666D02*
X0045639Y0113666D01*
X0048133Y0115265D02*
X0018781Y0115265D01*
X0018781Y0116863D02*
X0046608Y0116863D01*
X0045188Y0118462D02*
X0018781Y0118462D01*
X0018781Y0120060D02*
X0044619Y0120060D01*
X0044619Y0121659D02*
X0018781Y0121659D01*
X0018781Y0123257D02*
X0045281Y0123257D01*
X0044784Y0124856D02*
X0018781Y0124856D01*
X0018781Y0126454D02*
X0043172Y0126454D01*
X0042108Y0128053D02*
X0018781Y0128053D01*
X0018781Y0129651D02*
X0042093Y0129651D01*
X0042093Y0131250D02*
X0018781Y0131250D01*
X0018781Y0132848D02*
X0042093Y0132848D01*
X0042093Y0134447D02*
X0018781Y0134447D01*
X0018781Y0136045D02*
X0042093Y0136045D01*
X0042093Y0137644D02*
X0018781Y0137644D01*
X0018781Y0139242D02*
X0042093Y0139242D01*
X0042093Y0140841D02*
X0018781Y0140841D01*
X0018781Y0142439D02*
X0042093Y0142439D01*
X0042093Y0144038D02*
X0018781Y0144038D01*
X0018781Y0145636D02*
X0042093Y0145636D01*
X0042093Y0147235D02*
X0018781Y0147235D01*
X0018781Y0148833D02*
X0042093Y0148833D01*
X0042093Y0150432D02*
X0018781Y0150432D01*
X0018781Y0152030D02*
X0042093Y0152030D01*
X0042093Y0153629D02*
X0018781Y0153629D01*
X0018781Y0155227D02*
X0042093Y0155227D01*
X0042093Y0156826D02*
X0018781Y0156826D01*
X0018781Y0158424D02*
X0042093Y0158424D01*
X0042093Y0160023D02*
X0018781Y0160023D01*
X0018781Y0161621D02*
X0042093Y0161621D01*
X0042093Y0163220D02*
X0018781Y0163220D01*
X0018781Y0164818D02*
X0042093Y0164818D01*
X0042093Y0166417D02*
X0018781Y0166417D01*
X0018781Y0168015D02*
X0042093Y0168015D01*
X0042093Y0169614D02*
X0018781Y0169614D01*
X0018781Y0171213D02*
X0042093Y0171213D01*
X0042093Y0172811D02*
X0018781Y0172811D01*
X0018781Y0174410D02*
X0042093Y0174410D01*
X0042093Y0176008D02*
X0018781Y0176008D01*
X0018781Y0177607D02*
X0042093Y0177607D01*
X0042093Y0179205D02*
X0018781Y0179205D01*
X0018781Y0180804D02*
X0042093Y0180804D01*
X0042093Y0182402D02*
X0018781Y0182402D01*
X0018781Y0184001D02*
X0042093Y0184001D01*
X0042093Y0185599D02*
X0018781Y0185599D01*
X0018781Y0187198D02*
X0042093Y0187198D01*
X0042093Y0188796D02*
X0018781Y0188796D01*
X0018781Y0190395D02*
X0042093Y0190395D01*
X0042093Y0191993D02*
X0018781Y0191993D01*
X0018781Y0193592D02*
X0042093Y0193592D01*
X0042093Y0195190D02*
X0018781Y0195190D01*
X0018781Y0196789D02*
X0042093Y0196789D01*
X0042093Y0198387D02*
X0018781Y0198387D01*
X0018781Y0199986D02*
X0042093Y0199986D01*
X0042093Y0201584D02*
X0018781Y0201584D01*
X0018781Y0203183D02*
X0042093Y0203183D01*
X0042093Y0204781D02*
X0018781Y0204781D01*
X0018781Y0206380D02*
X0042093Y0206380D01*
X0042093Y0207978D02*
X0018781Y0207978D01*
X0018781Y0209577D02*
X0042093Y0209577D01*
X0042093Y0211175D02*
X0018781Y0211175D01*
X0018781Y0212774D02*
X0042093Y0212774D01*
X0042191Y0214372D02*
X0018781Y0214372D01*
X0018781Y0215971D02*
X0043373Y0215971D01*
X0044971Y0217569D02*
X0018781Y0217569D01*
X0018781Y0219168D02*
X0044896Y0219168D01*
X0044619Y0220766D02*
X0018781Y0220766D01*
X0018781Y0222365D02*
X0044911Y0222365D01*
X0045937Y0223963D02*
X0018781Y0223963D01*
X0018781Y0225562D02*
X0052859Y0225562D01*
X0051800Y0226348D02*
X0051800Y0230748D01*
X0051800Y0230748D01*
X0044800Y0230748D01*
X0044800Y0230402D01*
X0044908Y0229718D01*
X0045122Y0229059D01*
X0045437Y0228442D01*
X0045844Y0227882D01*
X0046334Y0227392D01*
X0046894Y0226985D01*
X0047511Y0226670D01*
X0048170Y0226456D01*
X0048854Y0226348D01*
X0051800Y0226348D01*
X0051800Y0227160D02*
X0051800Y0227160D01*
X0051800Y0228759D02*
X0051800Y0228759D01*
X0051800Y0230357D02*
X0051800Y0230357D01*
X0051800Y0231956D02*
X0051800Y0231956D01*
X0051800Y0233554D02*
X0051800Y0233554D01*
X0055311Y0236167D02*
X0056995Y0236864D01*
X0058284Y0238153D01*
X0058981Y0239837D01*
X0058981Y0241659D01*
X0058284Y0243343D01*
X0056995Y0244632D01*
X0055311Y0245329D01*
X0048289Y0245329D01*
X0046605Y0244632D01*
X0045316Y0243343D01*
X0044619Y0241659D01*
X0044619Y0239837D01*
X0045316Y0238153D01*
X0046605Y0236864D01*
X0048289Y0236167D01*
X0055311Y0236167D01*
X0056723Y0236751D02*
X0059422Y0236751D01*
X0059219Y0235153D02*
X0018781Y0235153D01*
X0018781Y0236751D02*
X0046877Y0236751D01*
X0045235Y0238350D02*
X0018781Y0238350D01*
X0018781Y0239948D02*
X0044619Y0239948D01*
X0044619Y0241547D02*
X0018781Y0241547D01*
X0018781Y0243146D02*
X0045235Y0243146D01*
X0046876Y0244744D02*
X0018781Y0244744D01*
X0018781Y0246343D02*
X0068744Y0246343D01*
X0070343Y0247941D02*
X0018781Y0247941D01*
X0018781Y0249540D02*
X0071941Y0249540D01*
X0073540Y0251138D02*
X0018781Y0251138D01*
X0018781Y0252737D02*
X0075138Y0252737D01*
X0076737Y0254335D02*
X0018781Y0254335D01*
X0018781Y0255934D02*
X0078335Y0255934D01*
X0079934Y0257532D02*
X0018781Y0257532D01*
X0018781Y0259131D02*
X0081532Y0259131D01*
X0083131Y0260729D02*
X0018781Y0260729D01*
X0018781Y0262328D02*
X0084729Y0262328D01*
X0085204Y0263926D02*
X0062274Y0263926D01*
X0062149Y0263854D02*
X0064726Y0265341D01*
X0066829Y0267445D01*
X0068317Y0270022D01*
X0069087Y0272896D01*
X0069087Y0275871D01*
X0068317Y0278745D01*
X0066829Y0281322D01*
X0064726Y0283426D01*
X0062149Y0284914D01*
X0059275Y0285684D01*
X0056300Y0285684D01*
X0053426Y0284914D01*
X0050849Y0283426D01*
X0048745Y0281322D01*
X0047257Y0278745D01*
X0046487Y0275871D01*
X0046487Y0272896D01*
X0047257Y0270022D01*
X0048745Y0267445D01*
X0050849Y0265341D01*
X0053426Y0263854D01*
X0056300Y0263084D01*
X0059275Y0263084D01*
X0062149Y0263854D01*
X0064909Y0265525D02*
X0085204Y0265525D01*
X0085975Y0267123D02*
X0066507Y0267123D01*
X0067566Y0268722D02*
X0087573Y0268722D01*
X0087211Y0270147D02*
X0087853Y0270474D01*
X0088435Y0270897D01*
X0088944Y0271405D01*
X0089366Y0271988D01*
X0089693Y0272629D01*
X0089916Y0273313D01*
X0089956Y0273572D01*
X0089997Y0273313D01*
X0090220Y0272629D01*
X0090546Y0271988D01*
X0090969Y0271405D01*
X0091478Y0270897D01*
X0092060Y0270474D01*
X0092702Y0270147D01*
X0093386Y0269925D01*
X0094097Y0269812D01*
X0094371Y0269812D01*
X0094371Y0274298D01*
X0094542Y0274298D01*
X0094542Y0269812D01*
X0094816Y0269812D01*
X0095527Y0269925D01*
X0096211Y0270147D01*
X0096853Y0270474D01*
X0097435Y0270897D01*
X0097944Y0271405D01*
X0098366Y0271988D01*
X0098693Y0272629D01*
X0098916Y0273313D01*
X0098956Y0273572D01*
X0098997Y0273313D01*
X0099220Y0272629D01*
X0099546Y0271988D01*
X0099969Y0271405D01*
X0100478Y0270897D01*
X0101060Y0270474D01*
X0101702Y0270147D01*
X0102386Y0269925D01*
X0103097Y0269812D01*
X0103371Y0269812D01*
X0103371Y0274298D01*
X0103542Y0274298D01*
X0103542Y0269812D01*
X0103816Y0269812D01*
X0104527Y0269925D01*
X0105211Y0270147D01*
X0105853Y0270474D01*
X0106435Y0270897D01*
X0106944Y0271405D01*
X0107366Y0271988D01*
X0107693Y0272629D01*
X0107845Y0273097D01*
X0108427Y0271691D01*
X0109764Y0270354D01*
X0111511Y0269631D01*
X0113402Y0269631D01*
X0115149Y0270354D01*
X0116486Y0271691D01*
X0117068Y0273097D01*
X0117220Y0272629D01*
X0117546Y0271988D01*
X0117969Y0271405D01*
X0118478Y0270897D01*
X0119060Y0270474D01*
X0119702Y0270147D01*
X0120386Y0269925D01*
X0121097Y0269812D01*
X0121371Y0269812D01*
X0121371Y0274298D01*
X0121542Y0274298D01*
X0121542Y0269812D01*
X0121816Y0269812D01*
X0122527Y0269925D01*
X0123211Y0270147D01*
X0123853Y0270474D01*
X0124435Y0270897D01*
X0124944Y0271405D01*
X0125366Y0271988D01*
X0125693Y0272629D01*
X0125916Y0273313D01*
X0126028Y0274024D01*
X0126028Y0274298D01*
X0121542Y0274298D01*
X0121542Y0274469D01*
X0126028Y0274469D01*
X0126028Y0274743D01*
X0125916Y0275454D01*
X0125693Y0276139D01*
X0125366Y0276780D01*
X0124944Y0277362D01*
X0124435Y0277871D01*
X0123853Y0278294D01*
X0123211Y0278620D01*
X0122527Y0278843D01*
X0121816Y0278955D01*
X0121542Y0278955D01*
X0121542Y0274470D01*
X0121371Y0274470D01*
X0121371Y0278955D01*
X0121097Y0278955D01*
X0120386Y0278843D01*
X0119702Y0278620D01*
X0119060Y0278294D01*
X0118478Y0277871D01*
X0117969Y0277362D01*
X0117546Y0276780D01*
X0117220Y0276139D01*
X0117068Y0275671D01*
X0116486Y0277076D01*
X0115149Y0278413D01*
X0113402Y0279136D01*
X0111511Y0279136D01*
X0109764Y0278413D01*
X0108427Y0277076D01*
X0107845Y0275671D01*
X0107693Y0276139D01*
X0107366Y0276780D01*
X0106944Y0277362D01*
X0106435Y0277871D01*
X0105853Y0278294D01*
X0105211Y0278620D01*
X0104527Y0278843D01*
X0103816Y0278955D01*
X0103542Y0278955D01*
X0103542Y0274470D01*
X0103371Y0274470D01*
X0103371Y0278955D01*
X0103097Y0278955D01*
X0102386Y0278843D01*
X0101702Y0278620D01*
X0101060Y0278294D01*
X0100478Y0277871D01*
X0099969Y0277362D01*
X0099546Y0276780D01*
X0099220Y0276139D01*
X0098997Y0275454D01*
X0098956Y0275196D01*
X0098916Y0275454D01*
X0098693Y0276139D01*
X0098366Y0276780D01*
X0097944Y0277362D01*
X0097435Y0277871D01*
X0096853Y0278294D01*
X0096211Y0278620D01*
X0095527Y0278843D01*
X0094816Y0278955D01*
X0094542Y0278955D01*
X0094542Y0274470D01*
X0094371Y0274470D01*
X0094371Y0278955D01*
X0094097Y0278955D01*
X0093386Y0278843D01*
X0092702Y0278620D01*
X0092060Y0278294D01*
X0091478Y0277871D01*
X0090969Y0277362D01*
X0090546Y0276780D01*
X0090220Y0276139D01*
X0089997Y0275454D01*
X0089956Y0275196D01*
X0089916Y0275454D01*
X0089693Y0276139D01*
X0089366Y0276780D01*
X0088944Y0277362D01*
X0088435Y0277871D01*
X0087853Y0278294D01*
X0087211Y0278620D01*
X0086527Y0278843D01*
X0085816Y0278955D01*
X0085542Y0278955D01*
X0085542Y0274470D01*
X0085371Y0274470D01*
X0085371Y0278955D01*
X0085097Y0278955D01*
X0084386Y0278843D01*
X0083702Y0278620D01*
X0083060Y0278294D01*
X0082478Y0277871D01*
X0081969Y0277362D01*
X0081546Y0276780D01*
X0081220Y0276139D01*
X0080997Y0275454D01*
X0080885Y0274743D01*
X0080885Y0274469D01*
X0085371Y0274469D01*
X0085371Y0274298D01*
X0085542Y0274298D01*
X0085542Y0269812D01*
X0085816Y0269812D01*
X0086527Y0269925D01*
X0087211Y0270147D01*
X0087551Y0270320D02*
X0092362Y0270320D01*
X0092340Y0268722D02*
X0097010Y0268722D01*
X0096551Y0270320D02*
X0101362Y0270320D01*
X0100903Y0268722D02*
X0106010Y0268722D01*
X0105551Y0270320D02*
X0109847Y0270320D01*
X0109903Y0268722D02*
X0115010Y0268722D01*
X0115066Y0270320D02*
X0119362Y0270320D01*
X0118903Y0268722D02*
X0124513Y0268722D01*
X0125871Y0268722D02*
X0126042Y0268722D01*
X0127399Y0268722D02*
X0146433Y0268722D01*
X0147170Y0267445D02*
X0145682Y0270022D01*
X0144912Y0272896D01*
X0144912Y0275871D01*
X0145682Y0278745D01*
X0147170Y0281322D01*
X0149274Y0283426D01*
X0151851Y0284914D01*
X0154725Y0285684D01*
X0157700Y0285684D01*
X0160574Y0284914D01*
X0163151Y0283426D01*
X0165255Y0281322D01*
X0166742Y0278745D01*
X0167512Y0275871D01*
X0167512Y0272896D01*
X0166742Y0270022D01*
X0165255Y0267445D01*
X0163151Y0265341D01*
X0160574Y0263854D01*
X0157700Y0263084D01*
X0154725Y0263084D01*
X0151851Y0263854D01*
X0149274Y0265341D01*
X0147170Y0267445D01*
X0147492Y0267123D02*
X0129617Y0267123D01*
X0130393Y0265525D02*
X0149091Y0265525D01*
X0145603Y0270320D02*
X0123551Y0270320D01*
X0121542Y0270320D02*
X0121371Y0270320D01*
X0121371Y0271919D02*
X0121542Y0271919D01*
X0121542Y0273517D02*
X0121371Y0273517D01*
X0121371Y0275116D02*
X0121542Y0275116D01*
X0121542Y0276714D02*
X0121371Y0276714D01*
X0121371Y0278313D02*
X0121542Y0278313D01*
X0123815Y0278313D02*
X0145567Y0278313D01*
X0145138Y0276714D02*
X0125400Y0276714D01*
X0125969Y0275116D02*
X0144912Y0275116D01*
X0144912Y0273517D02*
X0125948Y0273517D01*
X0125316Y0271919D02*
X0145174Y0271919D01*
X0146356Y0279911D02*
X0127579Y0279911D01*
X0126902Y0279631D02*
X0128649Y0280354D01*
X0129986Y0281691D01*
X0130709Y0283438D01*
X0130709Y0285329D01*
X0129986Y0287076D01*
X0128649Y0288413D01*
X0126902Y0289136D01*
X0125011Y0289136D01*
X0123264Y0288413D01*
X0121927Y0287076D01*
X0121456Y0285939D01*
X0120986Y0287076D01*
X0119649Y0288413D01*
X0117902Y0289136D01*
X0116011Y0289136D01*
X0114264Y0288413D01*
X0112927Y0287076D01*
X0112456Y0285939D01*
X0111986Y0287076D01*
X0110649Y0288413D01*
X0108902Y0289136D01*
X0107011Y0289136D01*
X0105264Y0288413D01*
X0103927Y0287076D01*
X0103456Y0285939D01*
X0102986Y0287076D01*
X0101649Y0288413D01*
X0099902Y0289136D01*
X0098011Y0289136D01*
X0096264Y0288413D01*
X0094927Y0287076D01*
X0094456Y0285939D01*
X0093986Y0287076D01*
X0092649Y0288413D01*
X0090902Y0289136D01*
X0089011Y0289136D01*
X0087264Y0288413D01*
X0085927Y0287076D01*
X0085204Y0285329D01*
X0085204Y0283438D01*
X0085927Y0281691D01*
X0087264Y0280354D01*
X0089011Y0279631D01*
X0090902Y0279631D01*
X0092649Y0280354D01*
X0093986Y0281691D01*
X0094456Y0282828D01*
X0094927Y0281691D01*
X0096264Y0280354D01*
X0098011Y0279631D01*
X0099902Y0279631D01*
X0101649Y0280354D01*
X0102986Y0281691D01*
X0103456Y0282828D01*
X0103927Y0281691D01*
X0105264Y0280354D01*
X0107011Y0279631D01*
X0108902Y0279631D01*
X0110649Y0280354D01*
X0111986Y0281691D01*
X0112456Y0282828D01*
X0112927Y0281691D01*
X0114264Y0280354D01*
X0116011Y0279631D01*
X0117902Y0279631D01*
X0119649Y0280354D01*
X0120986Y0281691D01*
X0121456Y0282828D01*
X0121927Y0281691D01*
X0123264Y0280354D01*
X0125011Y0279631D01*
X0126902Y0279631D01*
X0124334Y0279911D02*
X0118579Y0279911D01*
X0119098Y0278313D02*
X0115249Y0278313D01*
X0115334Y0279911D02*
X0109579Y0279911D01*
X0109664Y0278313D02*
X0105815Y0278313D01*
X0106334Y0279911D02*
X0100579Y0279911D01*
X0101098Y0278313D02*
X0096815Y0278313D01*
X0097334Y0279911D02*
X0091579Y0279911D01*
X0092098Y0278313D02*
X0087815Y0278313D01*
X0088334Y0279911D02*
X0067644Y0279911D01*
X0068433Y0278313D02*
X0083098Y0278313D01*
X0081513Y0276714D02*
X0068861Y0276714D01*
X0069087Y0275116D02*
X0080944Y0275116D01*
X0080885Y0274298D02*
X0080885Y0274024D01*
X0080997Y0273313D01*
X0081220Y0272629D01*
X0081546Y0271988D01*
X0081969Y0271405D01*
X0082478Y0270897D01*
X0083060Y0270474D01*
X0083702Y0270147D01*
X0084386Y0269925D01*
X0085097Y0269812D01*
X0085371Y0269812D01*
X0085371Y0274298D01*
X0080885Y0274298D01*
X0080965Y0273517D02*
X0069087Y0273517D01*
X0068825Y0271919D02*
X0081596Y0271919D01*
X0083362Y0270320D02*
X0068397Y0270320D01*
X0066642Y0281510D02*
X0086109Y0281510D01*
X0085340Y0283108D02*
X0065043Y0283108D01*
X0062507Y0284707D02*
X0085204Y0284707D01*
X0085608Y0286305D02*
X0040080Y0286305D01*
X0040080Y0287395D02*
X0038820Y0290438D01*
X0036490Y0292768D01*
X0033447Y0294028D01*
X0030153Y0294028D01*
X0027110Y0292768D01*
X0024780Y0290438D01*
X0023520Y0287395D01*
X0023520Y0284101D01*
X0024780Y0281058D01*
X0027110Y0278728D01*
X0030153Y0277468D01*
X0033447Y0277468D01*
X0036490Y0278728D01*
X0038820Y0281058D01*
X0040080Y0284101D01*
X0040080Y0287395D01*
X0039870Y0287904D02*
X0086755Y0287904D01*
X0088697Y0292995D02*
X0087332Y0294360D01*
X0086514Y0295178D01*
X0086514Y0296980D01*
X0086514Y0297926D01*
X0086514Y0297926D01*
X0086530Y0297942D01*
X0086775Y0298187D01*
X0086514Y0298447D01*
X0086514Y0300378D01*
X0087332Y0301196D01*
X0087332Y0301196D01*
X0088697Y0302561D01*
X0092263Y0302561D01*
X0092650Y0302175D01*
X0093036Y0302561D01*
X0098237Y0302561D01*
X0099504Y0301294D01*
X0100771Y0302561D01*
X0105972Y0302561D01*
X0106358Y0302175D01*
X0106745Y0302561D01*
X0111128Y0302561D01*
X0111923Y0301766D01*
X0112699Y0302541D01*
X0112719Y0302561D01*
X0114650Y0302561D01*
X0115854Y0301357D01*
X0117058Y0302561D01*
X0120623Y0302561D01*
X0121419Y0301766D01*
X0122214Y0302561D01*
X0126597Y0302561D01*
X0127392Y0301766D01*
X0128168Y0302541D01*
X0128188Y0302561D01*
X0130119Y0302561D01*
X0130914Y0301766D01*
X0131709Y0302561D01*
X0133641Y0302561D01*
X0134310Y0301892D01*
X0134979Y0302561D01*
X0136910Y0302561D01*
X0137297Y0302175D01*
X0137683Y0302561D01*
X0142066Y0302561D01*
X0142453Y0302175D01*
X0142840Y0302561D01*
X0146405Y0302561D01*
X0146792Y0302175D01*
X0147179Y0302561D01*
X0152379Y0302561D01*
X0152766Y0302175D01*
X0153152Y0302561D01*
X0156718Y0302561D01*
X0157536Y0301744D01*
X0157922Y0301357D01*
X0159106Y0302541D01*
X0159126Y0302561D01*
X0161057Y0302561D01*
X0161853Y0301766D01*
X0162648Y0302561D01*
X0167848Y0302561D01*
X0169214Y0301196D01*
X0169214Y0294360D01*
X0167848Y0292995D01*
X0165917Y0292995D01*
X0164552Y0294360D01*
X0164552Y0295447D01*
X0164283Y0295447D01*
X0164057Y0295672D01*
X0164057Y0294360D01*
X0162692Y0292995D01*
X0160761Y0292995D01*
X0160092Y0293664D01*
X0159423Y0292995D01*
X0157491Y0292995D01*
X0157105Y0293381D01*
X0156718Y0292995D01*
X0153152Y0292995D01*
X0151948Y0294199D01*
X0150744Y0292995D01*
X0148813Y0292995D01*
X0147609Y0294199D01*
X0146405Y0292995D01*
X0142840Y0292995D01*
X0142453Y0293381D01*
X0142066Y0292995D01*
X0140135Y0292995D01*
X0139466Y0293664D01*
X0138797Y0292995D01*
X0136866Y0292995D01*
X0136071Y0293790D01*
X0135275Y0292995D01*
X0133344Y0292995D01*
X0132549Y0293790D01*
X0131754Y0292995D01*
X0129822Y0292995D01*
X0129153Y0293664D01*
X0128484Y0292995D01*
X0124666Y0292995D01*
X0123997Y0293664D01*
X0123328Y0292995D01*
X0121397Y0292995D01*
X0121010Y0293381D01*
X0120623Y0292995D01*
X0117058Y0292995D01*
X0116671Y0293381D01*
X0116284Y0292995D01*
X0114353Y0292995D01*
X0113684Y0293664D01*
X0113015Y0292995D01*
X0106745Y0292995D01*
X0106358Y0293381D01*
X0105972Y0292995D01*
X0093036Y0292995D01*
X0092650Y0293381D01*
X0092263Y0292995D01*
X0088697Y0292995D01*
X0087394Y0294298D02*
X0018781Y0294298D01*
X0018781Y0295896D02*
X0086514Y0295896D01*
X0086514Y0297495D02*
X0018781Y0297495D01*
X0018781Y0299093D02*
X0086514Y0299093D01*
X0086828Y0300692D02*
X0018781Y0300692D01*
X0018781Y0302290D02*
X0088427Y0302290D01*
X0088784Y0304755D02*
X0089170Y0305141D01*
X0089557Y0304755D01*
X0093123Y0304755D01*
X0095306Y0306938D01*
X0095306Y0308869D01*
X0095045Y0309129D01*
X0095306Y0309390D01*
X0095306Y0312138D01*
X0093940Y0313504D01*
X0093123Y0314321D01*
X0089557Y0314321D01*
X0089170Y0313935D01*
X0088784Y0314321D01*
X0086852Y0314321D01*
X0085487Y0312956D01*
X0085487Y0309417D01*
X0084993Y0309417D01*
X0084993Y0312138D01*
X0083627Y0313504D01*
X0082810Y0314321D01*
X0079244Y0314321D01*
X0077878Y0312956D01*
X0077061Y0312138D01*
X0077061Y0306938D01*
X0079244Y0304755D01*
X0082810Y0304755D01*
X0083196Y0305141D01*
X0083583Y0304755D01*
X0088784Y0304755D01*
X0092534Y0302290D02*
X0092766Y0302290D01*
X0093855Y0305487D02*
X0099137Y0305487D01*
X0098504Y0306120D02*
X0099870Y0304755D01*
X0103435Y0304755D01*
X0103822Y0305141D01*
X0104209Y0304755D01*
X0108592Y0304755D01*
X0108978Y0305141D01*
X0109365Y0304755D01*
X0113748Y0304755D01*
X0114135Y0305141D01*
X0114521Y0304755D01*
X0118905Y0304755D01*
X0120270Y0306120D01*
X0120722Y0306573D01*
X0120722Y0306120D01*
X0122088Y0304755D01*
X0125906Y0304755D01*
X0126575Y0305424D01*
X0127244Y0304755D01*
X0129175Y0304755D01*
X0130541Y0306120D01*
X0130541Y0311321D01*
X0127541Y0314321D01*
X0125610Y0314321D01*
X0125590Y0314301D01*
X0124244Y0312956D01*
X0124244Y0312956D01*
X0123975Y0312686D01*
X0119636Y0312686D01*
X0119270Y0312321D01*
X0118905Y0312686D01*
X0114521Y0312686D01*
X0114135Y0312300D01*
X0113748Y0312686D01*
X0110182Y0312686D01*
X0109387Y0311891D01*
X0108592Y0312686D01*
X0107505Y0312686D01*
X0107505Y0312956D01*
X0106140Y0314321D01*
X0104209Y0314321D01*
X0102843Y0312956D01*
X0102843Y0312686D01*
X0099870Y0312686D01*
X0099052Y0311869D01*
X0097687Y0310504D01*
X0097687Y0307755D01*
X0098504Y0306938D01*
X0098504Y0306120D01*
X0098356Y0307086D02*
X0095306Y0307086D01*
X0095306Y0308684D02*
X0097687Y0308684D01*
X0097687Y0310283D02*
X0095306Y0310283D01*
X0095306Y0311882D02*
X0099065Y0311882D01*
X0103367Y0313480D02*
X0093964Y0313480D01*
X0086011Y0313480D02*
X0083651Y0313480D01*
X0084993Y0311882D02*
X0085487Y0311882D01*
X0085487Y0310283D02*
X0084993Y0310283D01*
X0078403Y0313480D02*
X0074156Y0313480D01*
X0074680Y0312956D02*
X0074680Y0309686D01*
X0074680Y0307755D01*
X0073045Y0306120D01*
X0071680Y0304755D01*
X0069749Y0304755D01*
X0068545Y0305959D01*
X0068158Y0305572D01*
X0067341Y0304755D01*
X0063775Y0304755D01*
X0063388Y0305141D01*
X0063002Y0304755D01*
X0061070Y0304755D01*
X0059888Y0305938D01*
X0058705Y0304755D01*
X0049039Y0304755D01*
X0048370Y0305424D01*
X0047701Y0304755D01*
X0045769Y0304755D01*
X0044404Y0306120D01*
X0044404Y0311321D01*
X0045769Y0312686D01*
X0046039Y0312956D01*
X0046039Y0312956D01*
X0047384Y0314301D01*
X0047404Y0314321D01*
X0049335Y0314321D01*
X0051195Y0312461D01*
X0051195Y0312956D01*
X0052541Y0314301D01*
X0052561Y0314321D01*
X0054492Y0314321D01*
X0057372Y0311440D01*
X0058618Y0312686D01*
X0063002Y0312686D01*
X0063388Y0312300D01*
X0063775Y0312686D01*
X0066748Y0312686D01*
X0066748Y0312956D01*
X0068114Y0314321D01*
X0070045Y0314321D01*
X0070714Y0313652D01*
X0071383Y0314321D01*
X0073314Y0314321D01*
X0074680Y0312956D01*
X0074680Y0311882D02*
X0077061Y0311882D01*
X0077061Y0310283D02*
X0074680Y0310283D01*
X0074680Y0308684D02*
X0077061Y0308684D01*
X0077061Y0307086D02*
X0074011Y0307086D01*
X0072412Y0305487D02*
X0078511Y0305487D01*
X0069016Y0305487D02*
X0068073Y0305487D01*
X0067273Y0313480D02*
X0055333Y0313480D01*
X0056931Y0311882D02*
X0057813Y0311882D01*
X0059437Y0305487D02*
X0060338Y0305487D01*
X0051719Y0313480D02*
X0050176Y0313480D01*
X0046563Y0313480D02*
X0018781Y0313480D01*
X0018781Y0311882D02*
X0044964Y0311882D01*
X0044404Y0310283D02*
X0018781Y0310283D01*
X0018781Y0308684D02*
X0044404Y0308684D01*
X0044404Y0307086D02*
X0018781Y0307086D01*
X0018781Y0305487D02*
X0045037Y0305487D01*
X0036559Y0292699D02*
X0177041Y0292699D01*
X0177110Y0292768D02*
X0174780Y0290438D01*
X0173520Y0287395D01*
X0173520Y0284101D01*
X0174780Y0281058D01*
X0177110Y0278728D01*
X0180153Y0277468D01*
X0183447Y0277468D01*
X0186490Y0278728D01*
X0188820Y0281058D01*
X0190080Y0284101D01*
X0190080Y0287395D01*
X0188820Y0290438D01*
X0186490Y0292768D01*
X0183447Y0294028D01*
X0180153Y0294028D01*
X0177110Y0292768D01*
X0175443Y0291101D02*
X0038157Y0291101D01*
X0039207Y0289502D02*
X0174393Y0289502D01*
X0173730Y0287904D02*
X0129158Y0287904D01*
X0130305Y0286305D02*
X0173520Y0286305D01*
X0173520Y0284707D02*
X0160932Y0284707D01*
X0163468Y0283108D02*
X0173931Y0283108D01*
X0174593Y0281510D02*
X0165067Y0281510D01*
X0166069Y0279911D02*
X0175927Y0279911D01*
X0178113Y0278313D02*
X0166858Y0278313D01*
X0167287Y0276714D02*
X0194740Y0276714D01*
X0194740Y0275116D02*
X0167512Y0275116D01*
X0167512Y0273517D02*
X0194740Y0273517D01*
X0194740Y0271919D02*
X0167251Y0271919D01*
X0166822Y0270320D02*
X0194740Y0270320D01*
X0194740Y0268722D02*
X0165992Y0268722D01*
X0164933Y0267123D02*
X0194740Y0267123D01*
X0194740Y0265525D02*
X0163334Y0265525D01*
X0160699Y0263926D02*
X0194740Y0263926D01*
X0194740Y0262328D02*
X0130040Y0262328D01*
X0130513Y0263926D02*
X0151725Y0263926D01*
X0147358Y0281510D02*
X0129804Y0281510D01*
X0130573Y0283108D02*
X0148956Y0283108D01*
X0151493Y0284707D02*
X0130709Y0284707D01*
X0122755Y0287904D02*
X0120158Y0287904D01*
X0121305Y0286305D02*
X0121608Y0286305D01*
X0122109Y0281510D02*
X0120804Y0281510D01*
X0117513Y0276714D02*
X0116635Y0276714D01*
X0116580Y0271919D02*
X0117596Y0271919D01*
X0120938Y0267123D02*
X0122296Y0267123D01*
X0125871Y0267123D02*
X0126042Y0267123D01*
X0126042Y0265525D02*
X0125871Y0265525D01*
X0125871Y0263926D02*
X0126042Y0263926D01*
X0126042Y0262328D02*
X0125871Y0262328D01*
X0125871Y0260729D02*
X0126042Y0260729D01*
X0128704Y0260729D02*
X0194740Y0260729D01*
X0194740Y0259131D02*
X0097638Y0259131D01*
X0096040Y0257532D02*
X0194740Y0257532D01*
X0194740Y0255934D02*
X0091489Y0255934D01*
X0089890Y0254335D02*
X0194740Y0254335D01*
X0194740Y0252737D02*
X0088292Y0252737D01*
X0086693Y0251138D02*
X0194740Y0251138D01*
X0194740Y0249540D02*
X0085095Y0249540D01*
X0083496Y0247941D02*
X0194740Y0247941D01*
X0194740Y0246343D02*
X0081898Y0246343D01*
X0086724Y0244744D02*
X0125752Y0244744D01*
X0124402Y0243146D02*
X0088365Y0243146D01*
X0088981Y0241547D02*
X0123819Y0241547D01*
X0123819Y0239948D02*
X0088981Y0239948D01*
X0088365Y0238350D02*
X0124402Y0238350D01*
X0125752Y0236751D02*
X0086723Y0236751D01*
X0085736Y0235153D02*
X0126418Y0235153D01*
X0124571Y0233554D02*
X0088072Y0233554D01*
X0088284Y0233343D02*
X0086995Y0234632D01*
X0085311Y0235329D01*
X0078289Y0235329D01*
X0076605Y0234632D01*
X0075316Y0233343D01*
X0074619Y0231659D01*
X0074619Y0229837D01*
X0075316Y0228153D01*
X0076605Y0226864D01*
X0078289Y0226167D01*
X0085311Y0226167D01*
X0086995Y0226864D01*
X0088284Y0228153D01*
X0088981Y0229837D01*
X0088981Y0231659D01*
X0088284Y0233343D01*
X0088858Y0231956D02*
X0123909Y0231956D01*
X0123819Y0230357D02*
X0088981Y0230357D01*
X0088535Y0228759D02*
X0124232Y0228759D01*
X0125343Y0227160D02*
X0087291Y0227160D01*
X0087663Y0223963D02*
X0124971Y0223963D01*
X0124078Y0222365D02*
X0088689Y0222365D01*
X0088981Y0220766D02*
X0123819Y0220766D01*
X0124063Y0219168D02*
X0088704Y0219168D01*
X0088357Y0213167D02*
X0127412Y0213167D01*
X0128360Y0213560D01*
X0129539Y0214739D01*
X0129549Y0214761D01*
X0130554Y0215767D01*
X0135791Y0215767D01*
X0137622Y0216525D01*
X0139023Y0217926D01*
X0139655Y0219453D01*
X0144839Y0214269D01*
X0144848Y0214247D01*
X0145574Y0213520D01*
X0146523Y0213128D01*
X0147550Y0213128D01*
X0147645Y0213167D01*
X0165731Y0213167D01*
X0167093Y0211805D01*
X0167093Y0209967D01*
X0166643Y0210196D01*
X0165924Y0210430D01*
X0165178Y0210548D01*
X0162000Y0210548D01*
X0162000Y0205948D01*
X0161600Y0205948D01*
X0161600Y0210548D01*
X0158422Y0210548D01*
X0157676Y0210430D01*
X0156957Y0210196D01*
X0156284Y0209853D01*
X0155673Y0209409D01*
X0155139Y0208875D01*
X0154695Y0208264D01*
X0154352Y0207591D01*
X0154118Y0206872D01*
X0154000Y0206126D01*
X0154000Y0205948D01*
X0161600Y0205948D01*
X0161600Y0205548D01*
X0154000Y0205548D01*
X0154000Y0205370D01*
X0154118Y0204624D01*
X0154352Y0203905D01*
X0154550Y0203516D01*
X0139267Y0203516D01*
X0139781Y0204757D01*
X0139781Y0206739D01*
X0139023Y0208570D01*
X0137622Y0209971D01*
X0135791Y0210729D01*
X0127809Y0210729D01*
X0125978Y0209971D01*
X0124577Y0208570D01*
X0123819Y0206739D01*
X0123819Y0204757D01*
X0124333Y0203516D01*
X0088110Y0203516D01*
X0086995Y0204632D01*
X0085311Y0205329D01*
X0078289Y0205329D01*
X0076605Y0204632D01*
X0075490Y0203516D01*
X0062472Y0203516D01*
X0058059Y0207929D01*
X0058284Y0208153D01*
X0058981Y0209837D01*
X0058981Y0211659D01*
X0058357Y0213167D01*
X0075243Y0213167D01*
X0074619Y0211659D01*
X0074619Y0209837D01*
X0075316Y0208153D01*
X0076605Y0206864D01*
X0078289Y0206167D01*
X0085311Y0206167D01*
X0086995Y0206864D01*
X0088284Y0208153D01*
X0088981Y0209837D01*
X0088981Y0211659D01*
X0088357Y0213167D01*
X0088519Y0212774D02*
X0166124Y0212774D01*
X0167093Y0211175D02*
X0088981Y0211175D01*
X0088873Y0209577D02*
X0125584Y0209577D01*
X0124332Y0207978D02*
X0088109Y0207978D01*
X0085825Y0206380D02*
X0123819Y0206380D01*
X0123819Y0204781D02*
X0086634Y0204781D01*
X0088375Y0198373D02*
X0124496Y0198373D01*
X0124384Y0198103D01*
X0123395Y0198103D01*
X0122450Y0197712D01*
X0121726Y0196988D01*
X0117637Y0192899D01*
X0116760Y0192899D01*
X0115376Y0192326D01*
X0114317Y0191267D01*
X0113743Y0189883D01*
X0113743Y0188385D01*
X0113999Y0187768D01*
X0112076Y0187768D01*
X0111131Y0187377D01*
X0110407Y0186654D01*
X0102664Y0178910D01*
X0088597Y0178910D01*
X0088981Y0179837D01*
X0088981Y0181659D01*
X0088285Y0183340D01*
X0093758Y0188813D01*
X0094636Y0188813D01*
X0096020Y0189387D01*
X0097079Y0190446D01*
X0097652Y0191830D01*
X0097652Y0193328D01*
X0097079Y0194712D01*
X0096020Y0195771D01*
X0094636Y0196344D01*
X0093138Y0196344D01*
X0091754Y0195771D01*
X0090695Y0194712D01*
X0090121Y0193328D01*
X0090121Y0192450D01*
X0088795Y0191124D01*
X0088692Y0191778D01*
X0088478Y0192437D01*
X0088163Y0193054D01*
X0087756Y0193614D01*
X0087266Y0194104D01*
X0086706Y0194511D01*
X0086089Y0194826D01*
X0085430Y0195040D01*
X0084746Y0195148D01*
X0081800Y0195148D01*
X0081800Y0190748D01*
X0081800Y0190748D01*
X0081800Y0195148D01*
X0078854Y0195148D01*
X0078170Y0195040D01*
X0077511Y0194826D01*
X0076894Y0194511D01*
X0076334Y0194104D01*
X0075844Y0193614D01*
X0075437Y0193054D01*
X0075122Y0192437D01*
X0074908Y0191778D01*
X0074800Y0191094D01*
X0074800Y0190748D01*
X0081800Y0190748D01*
X0081800Y0190748D01*
X0081800Y0186348D01*
X0084019Y0186348D01*
X0083000Y0185329D01*
X0078289Y0185329D01*
X0076605Y0184632D01*
X0075316Y0183343D01*
X0074619Y0181659D01*
X0074619Y0179837D01*
X0075316Y0178153D01*
X0075816Y0177653D01*
X0060058Y0161895D01*
X0059181Y0161895D01*
X0058927Y0161790D01*
X0058284Y0163343D01*
X0056995Y0164632D01*
X0055311Y0165329D01*
X0048289Y0165329D01*
X0047255Y0164901D01*
X0047255Y0176801D01*
X0047511Y0176670D01*
X0048170Y0176456D01*
X0048854Y0176348D01*
X0051800Y0176348D01*
X0054746Y0176348D01*
X0055430Y0176456D01*
X0056089Y0176670D01*
X0056706Y0176985D01*
X0057266Y0177392D01*
X0057756Y0177882D01*
X0058163Y0178442D01*
X0058478Y0179059D01*
X0058692Y0179718D01*
X0058800Y0180402D01*
X0058800Y0180748D01*
X0058800Y0181094D01*
X0058692Y0181778D01*
X0058478Y0182437D01*
X0058163Y0183054D01*
X0057756Y0183614D01*
X0057266Y0184104D01*
X0056706Y0184511D01*
X0056089Y0184826D01*
X0055430Y0185040D01*
X0054746Y0185148D01*
X0051800Y0185148D01*
X0051800Y0180748D01*
X0051800Y0180748D01*
X0051800Y0185148D01*
X0048854Y0185148D01*
X0048170Y0185040D01*
X0047511Y0184826D01*
X0047255Y0184695D01*
X0047255Y0186595D01*
X0048289Y0186167D01*
X0055311Y0186167D01*
X0056995Y0186864D01*
X0058284Y0188153D01*
X0058981Y0189837D01*
X0058981Y0191659D01*
X0058284Y0193343D01*
X0056995Y0194632D01*
X0055311Y0195329D01*
X0048289Y0195329D01*
X0047255Y0194901D01*
X0047255Y0196801D01*
X0047511Y0196670D01*
X0048170Y0196456D01*
X0048854Y0196348D01*
X0051800Y0196348D01*
X0054746Y0196348D01*
X0055430Y0196456D01*
X0056089Y0196670D01*
X0056706Y0196985D01*
X0057266Y0197392D01*
X0057756Y0197882D01*
X0058163Y0198442D01*
X0058478Y0199059D01*
X0058692Y0199718D01*
X0058733Y0199981D01*
X0059226Y0199488D01*
X0059950Y0198765D01*
X0060895Y0198373D01*
X0075225Y0198373D01*
X0075316Y0198153D01*
X0076605Y0196864D01*
X0078289Y0196167D01*
X0085311Y0196167D01*
X0086995Y0196864D01*
X0088284Y0198153D01*
X0088375Y0198373D01*
X0086812Y0196789D02*
X0121527Y0196789D01*
X0119928Y0195190D02*
X0096600Y0195190D01*
X0097543Y0193592D02*
X0118330Y0193592D01*
X0115043Y0191993D02*
X0097652Y0191993D01*
X0097028Y0190395D02*
X0113955Y0190395D01*
X0113743Y0188796D02*
X0093741Y0188796D01*
X0092142Y0187198D02*
X0110951Y0187198D01*
X0109353Y0185599D02*
X0090544Y0185599D01*
X0088945Y0184001D02*
X0107754Y0184001D01*
X0106156Y0182402D02*
X0088673Y0182402D01*
X0088981Y0180804D02*
X0104557Y0180804D01*
X0102959Y0179205D02*
X0088719Y0179205D01*
X0083270Y0185599D02*
X0047255Y0185599D01*
X0051800Y0184001D02*
X0051800Y0184001D01*
X0051800Y0182402D02*
X0051800Y0182402D01*
X0051800Y0180804D02*
X0051800Y0180804D01*
X0051800Y0180748D02*
X0058800Y0180748D01*
X0051800Y0180748D01*
X0051800Y0180748D01*
X0051800Y0176348D01*
X0051800Y0180748D01*
X0051800Y0180748D01*
X0051800Y0179205D02*
X0051800Y0179205D01*
X0051800Y0177607D02*
X0051800Y0177607D01*
X0047255Y0176008D02*
X0074171Y0176008D01*
X0072573Y0174410D02*
X0047255Y0174410D01*
X0047255Y0172811D02*
X0070974Y0172811D01*
X0069376Y0171213D02*
X0047255Y0171213D01*
X0047255Y0169614D02*
X0067777Y0169614D01*
X0066179Y0168015D02*
X0047255Y0168015D01*
X0047255Y0166417D02*
X0064580Y0166417D01*
X0062982Y0164818D02*
X0056544Y0164818D01*
X0058335Y0163220D02*
X0061383Y0163220D01*
X0058981Y0150028D02*
X0059718Y0149291D01*
X0060442Y0148568D01*
X0061387Y0148176D01*
X0075307Y0148176D01*
X0075316Y0148153D01*
X0076605Y0146864D01*
X0078289Y0146167D01*
X0085311Y0146167D01*
X0086995Y0146864D01*
X0088284Y0148153D01*
X0088981Y0149837D01*
X0088981Y0151659D01*
X0088284Y0153343D01*
X0088049Y0153577D01*
X0106261Y0171789D01*
X0128470Y0171789D01*
X0128015Y0170690D01*
X0128015Y0170148D01*
X0126800Y0170148D01*
X0126800Y0165748D01*
X0126800Y0165748D01*
X0131200Y0165748D01*
X0131200Y0166176D01*
X0131909Y0166176D01*
X0132755Y0165329D01*
X0132402Y0165329D01*
X0131200Y0164127D01*
X0131200Y0165748D01*
X0126800Y0165748D01*
X0126800Y0165748D01*
X0126800Y0170148D01*
X0124977Y0170148D01*
X0122400Y0167571D01*
X0122400Y0165748D01*
X0126800Y0165748D01*
X0126800Y0165748D01*
X0126800Y0161348D01*
X0128623Y0161348D01*
X0129719Y0162444D01*
X0129719Y0159308D01*
X0128698Y0160329D01*
X0124902Y0160329D01*
X0122219Y0157646D01*
X0122219Y0153850D01*
X0124902Y0151167D01*
X0128698Y0151167D01*
X0131381Y0153850D01*
X0131381Y0157188D01*
X0131669Y0156900D01*
X0131669Y0144431D01*
X0122567Y0135329D01*
X0119902Y0135329D01*
X0117219Y0132646D01*
X0117219Y0130560D01*
X0105417Y0142362D01*
X0104694Y0143086D01*
X0103749Y0143477D01*
X0088150Y0143477D01*
X0086995Y0144632D01*
X0085311Y0145329D01*
X0078289Y0145329D01*
X0076605Y0144632D01*
X0075316Y0143343D01*
X0074619Y0141659D01*
X0074619Y0139837D01*
X0075316Y0138153D01*
X0076605Y0136864D01*
X0078289Y0136167D01*
X0083543Y0136167D01*
X0082705Y0135329D01*
X0078289Y0135329D01*
X0076605Y0134632D01*
X0075316Y0133343D01*
X0074619Y0131659D01*
X0074619Y0131174D01*
X0071314Y0131174D01*
X0071569Y0131790D01*
X0071569Y0133288D01*
X0070996Y0134672D01*
X0069937Y0135731D01*
X0068553Y0136305D01*
X0067055Y0136305D01*
X0065671Y0135731D01*
X0065051Y0135111D01*
X0060995Y0135111D01*
X0058118Y0137988D01*
X0058284Y0138153D01*
X0058981Y0139837D01*
X0058981Y0141659D01*
X0058284Y0143343D01*
X0056995Y0144632D01*
X0055311Y0145329D01*
X0048289Y0145329D01*
X0047255Y0144901D01*
X0047255Y0146595D01*
X0048289Y0146167D01*
X0055311Y0146167D01*
X0056995Y0146864D01*
X0058284Y0148153D01*
X0058981Y0149837D01*
X0058981Y0150028D01*
X0058565Y0148833D02*
X0060176Y0148833D01*
X0057366Y0147235D02*
X0076234Y0147235D01*
X0076011Y0144038D02*
X0057589Y0144038D01*
X0058658Y0142439D02*
X0074942Y0142439D01*
X0074619Y0140841D02*
X0058981Y0140841D01*
X0058735Y0139242D02*
X0074865Y0139242D01*
X0075826Y0137644D02*
X0058462Y0137644D01*
X0060061Y0136045D02*
X0066429Y0136045D01*
X0069179Y0136045D02*
X0083421Y0136045D01*
X0087589Y0144038D02*
X0131276Y0144038D01*
X0131669Y0145636D02*
X0047255Y0145636D01*
X0058319Y0123257D02*
X0065575Y0123257D01*
X0067174Y0121659D02*
X0058981Y0121659D01*
X0058981Y0120060D02*
X0068772Y0120060D01*
X0070371Y0118462D02*
X0058412Y0118462D01*
X0056992Y0116863D02*
X0071969Y0116863D01*
X0073568Y0115265D02*
X0055467Y0115265D01*
X0051800Y0104075D02*
X0051800Y0104075D01*
X0051800Y0102477D02*
X0051800Y0102477D01*
X0051800Y0100878D02*
X0051800Y0100878D01*
X0051800Y0100748D02*
X0051800Y0100748D01*
X0051800Y0100748D01*
X0051800Y0096348D01*
X0054746Y0096348D01*
X0055430Y0096456D01*
X0056089Y0096670D01*
X0056706Y0096985D01*
X0057266Y0097392D01*
X0057756Y0097882D01*
X0058163Y0098442D01*
X0058478Y0099059D01*
X0058692Y0099718D01*
X0058800Y0100402D01*
X0058800Y0100748D01*
X0051800Y0100748D01*
X0051800Y0100748D01*
X0051800Y0096348D01*
X0048854Y0096348D01*
X0048170Y0096456D01*
X0047511Y0096670D01*
X0046894Y0096985D01*
X0046334Y0097392D01*
X0045844Y0097882D01*
X0045437Y0098442D01*
X0045122Y0099059D01*
X0044908Y0099718D01*
X0044800Y0100402D01*
X0044800Y0100748D01*
X0051800Y0100748D01*
X0051800Y0099280D02*
X0051800Y0099280D01*
X0051800Y0097681D02*
X0051800Y0097681D01*
X0057556Y0097681D02*
X0075788Y0097681D01*
X0074850Y0099280D02*
X0058549Y0099280D01*
X0058800Y0100878D02*
X0074619Y0100878D01*
X0074957Y0102477D02*
X0069715Y0102477D01*
X0066877Y0102477D02*
X0058457Y0102477D01*
X0046305Y0104075D02*
X0018781Y0104075D01*
X0018781Y0102477D02*
X0045143Y0102477D01*
X0044800Y0100878D02*
X0018781Y0100878D01*
X0018781Y0099280D02*
X0045051Y0099280D01*
X0046044Y0097681D02*
X0018781Y0097681D01*
X0018781Y0096082D02*
X0095703Y0096082D01*
X0097301Y0094484D02*
X0018781Y0094484D01*
X0018781Y0092885D02*
X0098900Y0092885D01*
X0100498Y0091287D02*
X0018781Y0091287D01*
X0018781Y0089688D02*
X0102097Y0089688D01*
X0103695Y0088090D02*
X0018781Y0088090D01*
X0018781Y0086491D02*
X0105294Y0086491D01*
X0103942Y0084893D02*
X0099144Y0084893D01*
X0101079Y0083294D02*
X0102007Y0083294D01*
X0101777Y0078499D02*
X0101309Y0078499D01*
X0100429Y0075302D02*
X0068132Y0075302D01*
X0067079Y0064112D02*
X0084815Y0064112D01*
X0083684Y0062514D02*
X0065663Y0062514D01*
X0063580Y0060915D02*
X0083290Y0060915D01*
X0083438Y0059317D02*
X0039284Y0059317D01*
X0039946Y0057718D02*
X0084222Y0057718D01*
X0086486Y0056120D02*
X0040080Y0056120D01*
X0040080Y0054521D02*
X0173520Y0054521D01*
X0173520Y0054101D02*
X0174780Y0051058D01*
X0177110Y0048728D01*
X0180153Y0047468D01*
X0183447Y0047468D01*
X0186490Y0048728D01*
X0188820Y0051058D01*
X0190080Y0054101D01*
X0190080Y0057395D01*
X0188820Y0060438D01*
X0186490Y0062768D01*
X0183447Y0064028D01*
X0180153Y0064028D01*
X0177110Y0062768D01*
X0174780Y0060438D01*
X0173520Y0057395D01*
X0173520Y0054101D01*
X0174008Y0052923D02*
X0039592Y0052923D01*
X0038930Y0051324D02*
X0174670Y0051324D01*
X0176112Y0049726D02*
X0037488Y0049726D01*
X0035039Y0048127D02*
X0178561Y0048127D01*
X0173520Y0056120D02*
X0125601Y0056120D01*
X0127864Y0057718D02*
X0173654Y0057718D01*
X0174316Y0059317D02*
X0128648Y0059317D01*
X0128796Y0060915D02*
X0150420Y0060915D01*
X0149274Y0061577D02*
X0151851Y0060089D01*
X0154725Y0059319D01*
X0157700Y0059319D01*
X0160574Y0060089D01*
X0163151Y0061577D01*
X0165255Y0063681D01*
X0166742Y0066257D01*
X0167512Y0069131D01*
X0167512Y0072107D01*
X0166742Y0074981D01*
X0165255Y0077557D01*
X0163151Y0079661D01*
X0160574Y0081149D01*
X0157700Y0081919D01*
X0154725Y0081919D01*
X0151851Y0081149D01*
X0149274Y0079661D01*
X0147170Y0077557D01*
X0145682Y0074981D01*
X0144912Y0072107D01*
X0144912Y0069131D01*
X0145682Y0066257D01*
X0147170Y0063681D01*
X0149274Y0061577D01*
X0148337Y0062514D02*
X0128403Y0062514D01*
X0132794Y0068908D02*
X0133888Y0068908D01*
X0134219Y0070506D02*
X0133115Y0070506D01*
X0133115Y0070705D02*
X0133115Y0070979D01*
X0133002Y0071689D01*
X0132780Y0072374D01*
X0132453Y0073015D01*
X0132030Y0073597D01*
X0131521Y0074106D01*
X0130939Y0074529D01*
X0130298Y0074856D01*
X0129614Y0075078D01*
X0128903Y0075191D01*
X0128629Y0075191D01*
X0128629Y0070705D01*
X0133115Y0070705D01*
X0132867Y0072105D02*
X0134219Y0072105D01*
X0134219Y0073703D02*
X0131924Y0073703D01*
X0128629Y0073703D02*
X0128457Y0073703D01*
X0128457Y0072105D02*
X0128629Y0072105D01*
X0128457Y0070705D02*
X0128457Y0070533D01*
X0123971Y0070533D01*
X0119629Y0070533D01*
X0119629Y0070705D01*
X0128457Y0070705D01*
X0125162Y0073703D02*
X0122924Y0073703D01*
X0123867Y0072105D02*
X0124219Y0072105D01*
X0119629Y0072105D02*
X0119457Y0072105D01*
X0119457Y0070705D02*
X0119457Y0070533D01*
X0114971Y0070533D01*
X0110629Y0070533D01*
X0110629Y0070705D01*
X0119457Y0070705D01*
X0119457Y0073703D02*
X0119629Y0073703D01*
X0121040Y0076900D02*
X0118046Y0076900D01*
X0119309Y0078499D02*
X0119442Y0078499D01*
X0119079Y0083294D02*
X0119997Y0083294D01*
X0121596Y0084893D02*
X0117144Y0084893D01*
X0110777Y0078499D02*
X0110309Y0078499D01*
X0109046Y0076900D02*
X0112040Y0076900D01*
X0110629Y0073703D02*
X0110457Y0073703D01*
X0110457Y0072105D02*
X0110629Y0072105D01*
X0107162Y0073703D02*
X0105180Y0073703D01*
X0106072Y0072105D02*
X0106219Y0072105D01*
X0113924Y0073703D02*
X0116162Y0073703D01*
X0115219Y0072105D02*
X0114867Y0072105D01*
X0111222Y0057718D02*
X0109864Y0057718D01*
X0107601Y0056120D02*
X0113486Y0056120D01*
X0116601Y0056120D02*
X0122486Y0056120D01*
X0120222Y0057718D02*
X0118864Y0057718D01*
X0118362Y0042866D02*
X0116431Y0042866D01*
X0115065Y0041501D01*
X0115065Y0037962D01*
X0114571Y0037962D01*
X0114571Y0041501D01*
X0113205Y0042866D01*
X0111274Y0042866D01*
X0110605Y0042197D01*
X0109936Y0042866D01*
X0108005Y0042866D01*
X0106639Y0041501D01*
X0106639Y0034665D01*
X0108005Y0033300D01*
X0109936Y0033300D01*
X0110605Y0033969D01*
X0111274Y0033300D01*
X0118362Y0033300D01*
X0119727Y0034665D01*
X0119727Y0036597D01*
X0119727Y0041501D01*
X0118362Y0042866D01*
X0119495Y0041733D02*
X0147263Y0041733D01*
X0140913Y0033741D02*
X0138611Y0033741D01*
X0123851Y0033741D02*
X0118802Y0033741D01*
X0119727Y0035339D02*
X0122252Y0035339D01*
X0122109Y0036938D02*
X0119727Y0036938D01*
X0119727Y0038536D02*
X0122109Y0038536D01*
X0122377Y0040135D02*
X0119727Y0040135D01*
X0115065Y0040135D02*
X0114571Y0040135D01*
X0114571Y0038536D02*
X0115065Y0038536D01*
X0115298Y0041733D02*
X0114339Y0041733D01*
X0110834Y0033741D02*
X0110377Y0033741D01*
X0107564Y0033741D02*
X0018781Y0033741D01*
X0018781Y0035339D02*
X0106639Y0035339D01*
X0106639Y0036938D02*
X0018781Y0036938D01*
X0018781Y0038536D02*
X0106639Y0038536D01*
X0106639Y0040135D02*
X0018781Y0040135D01*
X0018781Y0041733D02*
X0106872Y0041733D01*
X0104486Y0056120D02*
X0098601Y0056120D01*
X0100864Y0057718D02*
X0102222Y0057718D01*
X0095486Y0056120D02*
X0089601Y0056120D01*
X0091864Y0057718D02*
X0093222Y0057718D01*
X0092684Y0062514D02*
X0092403Y0062514D01*
X0091271Y0064112D02*
X0093815Y0064112D01*
X0092629Y0067309D02*
X0092457Y0067309D01*
X0092457Y0068908D02*
X0092629Y0068908D01*
X0092629Y0070506D02*
X0092457Y0070506D01*
X0092457Y0072105D02*
X0092629Y0072105D01*
X0092629Y0073703D02*
X0092457Y0073703D01*
X0094040Y0076900D02*
X0090703Y0076900D01*
X0092094Y0078499D02*
X0092777Y0078499D01*
X0093007Y0083294D02*
X0091750Y0083294D01*
X0089683Y0084893D02*
X0094942Y0084893D01*
X0088129Y0084893D02*
X0087957Y0084893D01*
X0086403Y0084893D02*
X0018781Y0084893D01*
X0070715Y0108871D02*
X0075019Y0108871D01*
X0088643Y0102477D02*
X0089309Y0102477D01*
X0088981Y0100878D02*
X0090907Y0100878D01*
X0092506Y0099280D02*
X0088750Y0099280D01*
X0087812Y0097681D02*
X0094104Y0097681D01*
X0088129Y0083294D02*
X0087957Y0083294D01*
X0087957Y0081696D02*
X0088129Y0081696D01*
X0088129Y0080097D02*
X0087957Y0080097D01*
X0087957Y0078499D02*
X0088129Y0078499D01*
X0119067Y0123257D02*
X0194740Y0123257D01*
X0194740Y0121659D02*
X0120679Y0121659D01*
X0122291Y0120060D02*
X0194740Y0120060D01*
X0194740Y0118462D02*
X0123903Y0118462D01*
X0125515Y0116863D02*
X0194740Y0116863D01*
X0194740Y0115265D02*
X0127127Y0115265D01*
X0128739Y0113666D02*
X0194740Y0113666D01*
X0194740Y0112068D02*
X0130351Y0112068D01*
X0131963Y0110469D02*
X0194740Y0110469D01*
X0194740Y0108871D02*
X0133575Y0108871D01*
X0135187Y0107272D02*
X0194740Y0107272D01*
X0194740Y0105674D02*
X0163709Y0105674D01*
X0162850Y0106029D02*
X0160750Y0106029D01*
X0158808Y0105225D01*
X0157323Y0103739D01*
X0156519Y0101798D01*
X0156519Y0099697D01*
X0157323Y0097756D01*
X0158808Y0096271D01*
X0160750Y0095467D01*
X0162850Y0095467D01*
X0164791Y0096271D01*
X0166277Y0097756D01*
X0167081Y0099697D01*
X0167081Y0101798D01*
X0166277Y0103739D01*
X0164791Y0105225D01*
X0162850Y0106029D01*
X0165942Y0104075D02*
X0194740Y0104075D01*
X0194740Y0102477D02*
X0166800Y0102477D01*
X0167081Y0100878D02*
X0194740Y0100878D01*
X0194740Y0099280D02*
X0166908Y0099280D01*
X0166202Y0097681D02*
X0194740Y0097681D01*
X0194740Y0096082D02*
X0164337Y0096082D01*
X0159263Y0096082D02*
X0144337Y0096082D01*
X0146202Y0097681D02*
X0157398Y0097681D01*
X0156692Y0099280D02*
X0146908Y0099280D01*
X0147081Y0100878D02*
X0156519Y0100878D01*
X0156800Y0102477D02*
X0146800Y0102477D01*
X0145942Y0104075D02*
X0157658Y0104075D01*
X0159891Y0105674D02*
X0143709Y0105674D01*
X0139891Y0105674D02*
X0136799Y0105674D01*
X0132599Y0100878D02*
X0126381Y0100878D01*
X0126381Y0102477D02*
X0130987Y0102477D01*
X0134211Y0099280D02*
X0126919Y0099280D01*
X0128517Y0097681D02*
X0137398Y0097681D01*
X0139263Y0096082D02*
X0130116Y0096082D01*
X0131714Y0094484D02*
X0194740Y0094484D01*
X0194740Y0092885D02*
X0133313Y0092885D01*
X0134911Y0091287D02*
X0194740Y0091287D01*
X0194740Y0089688D02*
X0136510Y0089688D01*
X0138108Y0088090D02*
X0194740Y0088090D01*
X0194740Y0086491D02*
X0139286Y0086491D01*
X0139381Y0084893D02*
X0194740Y0084893D01*
X0194740Y0083294D02*
X0139381Y0083294D01*
X0139381Y0081696D02*
X0153892Y0081696D01*
X0150030Y0080097D02*
X0139381Y0080097D01*
X0139381Y0078499D02*
X0148112Y0078499D01*
X0146791Y0076900D02*
X0139381Y0076900D01*
X0139381Y0075302D02*
X0145868Y0075302D01*
X0145340Y0073703D02*
X0139381Y0073703D01*
X0139381Y0072105D02*
X0144912Y0072105D01*
X0144912Y0070506D02*
X0139381Y0070506D01*
X0139381Y0068908D02*
X0144972Y0068908D01*
X0145401Y0067309D02*
X0139238Y0067309D01*
X0137992Y0065711D02*
X0145998Y0065711D01*
X0146921Y0064112D02*
X0136393Y0064112D01*
X0158532Y0081696D02*
X0194740Y0081696D01*
X0194740Y0080097D02*
X0162395Y0080097D01*
X0164313Y0078499D02*
X0194740Y0078499D01*
X0194740Y0076900D02*
X0165634Y0076900D01*
X0166557Y0075302D02*
X0194740Y0075302D01*
X0194740Y0073703D02*
X0167085Y0073703D01*
X0167512Y0072105D02*
X0194740Y0072105D01*
X0194740Y0070506D02*
X0167512Y0070506D01*
X0167453Y0068908D02*
X0194740Y0068908D01*
X0194740Y0067309D02*
X0167024Y0067309D01*
X0166427Y0065711D02*
X0194740Y0065711D01*
X0194740Y0064112D02*
X0165504Y0064112D01*
X0164088Y0062514D02*
X0176856Y0062514D01*
X0175257Y0060915D02*
X0162005Y0060915D01*
X0185039Y0048127D02*
X0194740Y0048127D01*
X0194740Y0049726D02*
X0187488Y0049726D01*
X0188930Y0051324D02*
X0194740Y0051324D01*
X0194740Y0052923D02*
X0189592Y0052923D01*
X0190080Y0054521D02*
X0194740Y0054521D01*
X0194740Y0056120D02*
X0190080Y0056120D01*
X0189946Y0057718D02*
X0194740Y0057718D01*
X0194740Y0059317D02*
X0189284Y0059317D01*
X0188343Y0060915D02*
X0194740Y0060915D01*
X0194740Y0062514D02*
X0186744Y0062514D01*
X0194740Y0124856D02*
X0171539Y0124856D01*
X0173137Y0126454D02*
X0194740Y0126454D01*
X0194740Y0128053D02*
X0174736Y0128053D01*
X0176334Y0129651D02*
X0194740Y0129651D01*
X0194740Y0131250D02*
X0177168Y0131250D01*
X0177168Y0132848D02*
X0194740Y0132848D01*
X0194740Y0134447D02*
X0177168Y0134447D01*
X0177168Y0136045D02*
X0194740Y0136045D01*
X0194740Y0137644D02*
X0177168Y0137644D01*
X0177168Y0139242D02*
X0194740Y0139242D01*
X0194740Y0140841D02*
X0177168Y0140841D01*
X0177168Y0142439D02*
X0194740Y0142439D01*
X0194740Y0144038D02*
X0177168Y0144038D01*
X0177168Y0145636D02*
X0194740Y0145636D01*
X0194740Y0147235D02*
X0177168Y0147235D01*
X0177168Y0148833D02*
X0194740Y0148833D01*
X0194740Y0150432D02*
X0177168Y0150432D01*
X0177168Y0152030D02*
X0194740Y0152030D01*
X0194740Y0153629D02*
X0177168Y0153629D01*
X0177168Y0155227D02*
X0194740Y0155227D01*
X0194740Y0156826D02*
X0177168Y0156826D01*
X0177168Y0158424D02*
X0194740Y0158424D01*
X0194740Y0160023D02*
X0177168Y0160023D01*
X0177168Y0161621D02*
X0194740Y0161621D01*
X0194740Y0163220D02*
X0177168Y0163220D01*
X0177168Y0164818D02*
X0194740Y0164818D01*
X0194740Y0166417D02*
X0177168Y0166417D01*
X0177168Y0168015D02*
X0194740Y0168015D01*
X0194740Y0169614D02*
X0177168Y0169614D01*
X0177168Y0171213D02*
X0194740Y0171213D01*
X0194740Y0172811D02*
X0177168Y0172811D01*
X0177168Y0174410D02*
X0194740Y0174410D01*
X0194740Y0176008D02*
X0177168Y0176008D01*
X0177168Y0177607D02*
X0194740Y0177607D01*
X0194740Y0179205D02*
X0177168Y0179205D01*
X0177168Y0180804D02*
X0194740Y0180804D01*
X0194740Y0182402D02*
X0177168Y0182402D01*
X0177168Y0184001D02*
X0194740Y0184001D01*
X0194740Y0185599D02*
X0177168Y0185599D01*
X0177168Y0187198D02*
X0194740Y0187198D01*
X0194740Y0188796D02*
X0177168Y0188796D01*
X0177168Y0190395D02*
X0194740Y0190395D01*
X0194740Y0191993D02*
X0177168Y0191993D01*
X0177168Y0193592D02*
X0194740Y0193592D01*
X0194740Y0195190D02*
X0177168Y0195190D01*
X0177168Y0196789D02*
X0194740Y0196789D01*
X0194740Y0198387D02*
X0177168Y0198387D01*
X0177168Y0199986D02*
X0194740Y0199986D01*
X0194740Y0201584D02*
X0177168Y0201584D01*
X0177168Y0203183D02*
X0194740Y0203183D01*
X0194740Y0204781D02*
X0177168Y0204781D01*
X0177168Y0206380D02*
X0194740Y0206380D01*
X0194740Y0207978D02*
X0177168Y0207978D01*
X0177168Y0209577D02*
X0194740Y0209577D01*
X0194740Y0211175D02*
X0177168Y0211175D01*
X0177168Y0212774D02*
X0194740Y0212774D01*
X0194740Y0214372D02*
X0177168Y0214372D01*
X0177168Y0215971D02*
X0194740Y0215971D01*
X0194740Y0217569D02*
X0177168Y0217569D01*
X0177168Y0219168D02*
X0194740Y0219168D01*
X0194740Y0220766D02*
X0177168Y0220766D01*
X0177168Y0222365D02*
X0194740Y0222365D01*
X0194740Y0223963D02*
X0177168Y0223963D01*
X0177168Y0225562D02*
X0194740Y0225562D01*
X0194740Y0227160D02*
X0177168Y0227160D01*
X0177080Y0228759D02*
X0194740Y0228759D01*
X0194740Y0230357D02*
X0175886Y0230357D01*
X0174288Y0231956D02*
X0194740Y0231956D01*
X0194740Y0233554D02*
X0172689Y0233554D01*
X0171091Y0235153D02*
X0194740Y0235153D01*
X0194740Y0236751D02*
X0169492Y0236751D01*
X0169198Y0238350D02*
X0194740Y0238350D01*
X0194740Y0239948D02*
X0169781Y0239948D01*
X0169781Y0241547D02*
X0194740Y0241547D01*
X0194740Y0243146D02*
X0169198Y0243146D01*
X0167848Y0244744D02*
X0194740Y0244744D01*
X0194740Y0278313D02*
X0185487Y0278313D01*
X0187673Y0279911D02*
X0194740Y0279911D01*
X0194740Y0281510D02*
X0189007Y0281510D01*
X0189669Y0283108D02*
X0194740Y0283108D01*
X0194740Y0284707D02*
X0190080Y0284707D01*
X0190080Y0286305D02*
X0194740Y0286305D01*
X0194740Y0287904D02*
X0189870Y0287904D01*
X0189207Y0289502D02*
X0194740Y0289502D01*
X0194740Y0291101D02*
X0188157Y0291101D01*
X0186559Y0292699D02*
X0194740Y0292699D01*
X0194740Y0294298D02*
X0169151Y0294298D01*
X0169214Y0295896D02*
X0194740Y0295896D01*
X0194740Y0297495D02*
X0169214Y0297495D01*
X0169214Y0299093D02*
X0194740Y0299093D01*
X0194740Y0300692D02*
X0169214Y0300692D01*
X0168119Y0302290D02*
X0194740Y0302290D01*
X0194740Y0303889D02*
X0138622Y0303889D01*
X0139219Y0304486D02*
X0137853Y0303120D01*
X0135105Y0303120D01*
X0133739Y0304486D01*
X0132922Y0305303D01*
X0132922Y0311321D01*
X0134288Y0312686D01*
X0136219Y0312686D01*
X0136888Y0312017D01*
X0137557Y0312686D01*
X0143785Y0312686D01*
X0144172Y0312300D01*
X0144558Y0312686D01*
X0148124Y0312686D01*
X0148469Y0312342D01*
X0149631Y0313504D01*
X0151562Y0313504D01*
X0152379Y0312686D01*
X0156718Y0312686D01*
X0157513Y0311891D01*
X0158309Y0312686D01*
X0161282Y0312686D01*
X0161282Y0312956D01*
X0162648Y0314321D01*
X0167848Y0314321D01*
X0169214Y0312956D01*
X0169214Y0306120D01*
X0167848Y0304755D01*
X0165917Y0304755D01*
X0164552Y0306120D01*
X0164552Y0307207D01*
X0164283Y0307207D01*
X0164057Y0307432D01*
X0164057Y0306938D01*
X0162692Y0305572D01*
X0161875Y0304755D01*
X0157491Y0304755D01*
X0157105Y0305141D01*
X0156718Y0304755D01*
X0152335Y0304755D01*
X0151540Y0305550D01*
X0150744Y0304755D01*
X0148813Y0304755D01*
X0148469Y0305099D01*
X0148124Y0304755D01*
X0144558Y0304755D01*
X0144172Y0305141D01*
X0143785Y0304755D01*
X0141854Y0304755D01*
X0140489Y0306120D01*
X0140489Y0306573D01*
X0140036Y0306120D01*
X0139219Y0305303D01*
X0139219Y0304486D01*
X0139403Y0305487D02*
X0141121Y0305487D01*
X0142337Y0302290D02*
X0142569Y0302290D01*
X0146676Y0302290D02*
X0146908Y0302290D01*
X0151477Y0305487D02*
X0151602Y0305487D01*
X0152650Y0302290D02*
X0152882Y0302290D01*
X0156989Y0302290D02*
X0158855Y0302290D01*
X0161328Y0302290D02*
X0162377Y0302290D01*
X0162607Y0305487D02*
X0165185Y0305487D01*
X0164552Y0307086D02*
X0164057Y0307086D01*
X0161807Y0313480D02*
X0151586Y0313480D01*
X0149607Y0313480D02*
X0128382Y0313480D01*
X0129980Y0311882D02*
X0133483Y0311882D01*
X0132922Y0310283D02*
X0130541Y0310283D01*
X0130541Y0308684D02*
X0132922Y0308684D01*
X0132922Y0307086D02*
X0130541Y0307086D01*
X0129908Y0305487D02*
X0132922Y0305487D01*
X0134336Y0303889D02*
X0018781Y0303889D01*
X0018781Y0315079D02*
X0194740Y0315079D01*
X0194740Y0316677D02*
X0018781Y0316677D01*
X0018781Y0292699D02*
X0027041Y0292699D01*
X0025443Y0291101D02*
X0018781Y0291101D01*
X0018781Y0289502D02*
X0024393Y0289502D01*
X0023730Y0287904D02*
X0018781Y0287904D01*
X0018781Y0286305D02*
X0023520Y0286305D01*
X0023520Y0284707D02*
X0018781Y0284707D01*
X0018781Y0283108D02*
X0023931Y0283108D01*
X0024593Y0281510D02*
X0018781Y0281510D01*
X0018781Y0279911D02*
X0025927Y0279911D01*
X0028113Y0278313D02*
X0018781Y0278313D01*
X0018781Y0276714D02*
X0046713Y0276714D01*
X0046487Y0275116D02*
X0018781Y0275116D01*
X0018781Y0273517D02*
X0046487Y0273517D01*
X0046749Y0271919D02*
X0018781Y0271919D01*
X0018781Y0270320D02*
X0047177Y0270320D01*
X0048008Y0268722D02*
X0018781Y0268722D01*
X0018781Y0267123D02*
X0049067Y0267123D01*
X0050666Y0265525D02*
X0018781Y0265525D01*
X0018781Y0263926D02*
X0053300Y0263926D01*
X0047141Y0278313D02*
X0035487Y0278313D01*
X0037673Y0279911D02*
X0047930Y0279911D01*
X0048933Y0281510D02*
X0039007Y0281510D01*
X0039669Y0283108D02*
X0050531Y0283108D01*
X0053067Y0284707D02*
X0040080Y0284707D01*
X0056724Y0244744D02*
X0067146Y0244744D01*
X0065547Y0243146D02*
X0058365Y0243146D01*
X0058981Y0241547D02*
X0063949Y0241547D01*
X0062350Y0239948D02*
X0058981Y0239948D01*
X0058365Y0238350D02*
X0060752Y0238350D01*
X0059219Y0233554D02*
X0057800Y0233554D01*
X0058634Y0231956D02*
X0059219Y0231956D01*
X0061731Y0227160D02*
X0076309Y0227160D01*
X0075065Y0228759D02*
X0063330Y0228759D01*
X0064441Y0230357D02*
X0064590Y0230357D01*
X0067081Y0230357D02*
X0074619Y0230357D01*
X0074742Y0231956D02*
X0069099Y0231956D01*
X0069601Y0233554D02*
X0075528Y0233554D01*
X0077864Y0235153D02*
X0070708Y0235153D01*
X0072306Y0236751D02*
X0076877Y0236751D01*
X0075235Y0238350D02*
X0073905Y0238350D01*
X0075937Y0223963D02*
X0058534Y0223963D01*
X0058689Y0222365D02*
X0074911Y0222365D01*
X0074619Y0220766D02*
X0058981Y0220766D01*
X0058704Y0219168D02*
X0074896Y0219168D01*
X0075081Y0212774D02*
X0058519Y0212774D01*
X0058981Y0211175D02*
X0074619Y0211175D01*
X0074727Y0209577D02*
X0058873Y0209577D01*
X0058109Y0207978D02*
X0075491Y0207978D01*
X0077775Y0206380D02*
X0059608Y0206380D01*
X0061207Y0204781D02*
X0076966Y0204781D01*
X0076788Y0196789D02*
X0056321Y0196789D01*
X0055647Y0195190D02*
X0091173Y0195190D01*
X0090231Y0193592D02*
X0087773Y0193592D01*
X0088622Y0191993D02*
X0089664Y0191993D01*
X0081800Y0191993D02*
X0081800Y0191993D01*
X0081800Y0190748D02*
X0074800Y0190748D01*
X0074800Y0190402D01*
X0074908Y0189718D01*
X0075122Y0189059D01*
X0075437Y0188442D01*
X0075844Y0187882D01*
X0076334Y0187392D01*
X0076894Y0186985D01*
X0077511Y0186670D01*
X0078170Y0186456D01*
X0078854Y0186348D01*
X0081800Y0186348D01*
X0081800Y0190748D01*
X0081800Y0190748D01*
X0081800Y0190395D02*
X0081800Y0190395D01*
X0081800Y0188796D02*
X0081800Y0188796D01*
X0081800Y0187198D02*
X0081800Y0187198D01*
X0081800Y0193592D02*
X0081800Y0193592D01*
X0075827Y0193592D02*
X0058035Y0193592D01*
X0058843Y0191993D02*
X0074978Y0191993D01*
X0074801Y0190395D02*
X0058981Y0190395D01*
X0058550Y0188796D02*
X0075256Y0188796D01*
X0076601Y0187198D02*
X0057328Y0187198D01*
X0057370Y0184001D02*
X0075974Y0184001D01*
X0074927Y0182402D02*
X0058489Y0182402D01*
X0058800Y0180804D02*
X0074619Y0180804D01*
X0074881Y0179205D02*
X0058525Y0179205D01*
X0057481Y0177607D02*
X0075770Y0177607D01*
X0089700Y0155227D02*
X0122219Y0155227D01*
X0122219Y0156826D02*
X0091298Y0156826D01*
X0092897Y0158424D02*
X0122998Y0158424D01*
X0124596Y0160023D02*
X0094495Y0160023D01*
X0096094Y0161621D02*
X0124704Y0161621D01*
X0124977Y0161348D02*
X0126800Y0161348D01*
X0126800Y0165748D01*
X0126800Y0165748D01*
X0122400Y0165748D01*
X0122400Y0163925D01*
X0124977Y0161348D01*
X0126800Y0161621D02*
X0126800Y0161621D01*
X0126800Y0163220D02*
X0126800Y0163220D01*
X0126800Y0164818D02*
X0126800Y0164818D01*
X0126800Y0166417D02*
X0126800Y0166417D01*
X0126800Y0168015D02*
X0126800Y0168015D01*
X0126800Y0169614D02*
X0126800Y0169614D01*
X0128231Y0171213D02*
X0105685Y0171213D01*
X0104086Y0169614D02*
X0124443Y0169614D01*
X0122845Y0168015D02*
X0102488Y0168015D01*
X0100889Y0166417D02*
X0122400Y0166417D01*
X0122400Y0164818D02*
X0099291Y0164818D01*
X0097692Y0163220D02*
X0123105Y0163220D01*
X0128896Y0161621D02*
X0129719Y0161621D01*
X0129719Y0160023D02*
X0129004Y0160023D01*
X0131381Y0156826D02*
X0131669Y0156826D01*
X0131669Y0155227D02*
X0131381Y0155227D01*
X0131160Y0153629D02*
X0131669Y0153629D01*
X0131669Y0152030D02*
X0129561Y0152030D01*
X0131669Y0150432D02*
X0088981Y0150432D01*
X0088827Y0152030D02*
X0124039Y0152030D01*
X0122440Y0153629D02*
X0088101Y0153629D01*
X0088565Y0148833D02*
X0131669Y0148833D01*
X0131669Y0147235D02*
X0087366Y0147235D01*
X0076420Y0134447D02*
X0071089Y0134447D01*
X0071569Y0132848D02*
X0075111Y0132848D01*
X0074619Y0131250D02*
X0071345Y0131250D01*
X0105340Y0142439D02*
X0129677Y0142439D01*
X0128079Y0140841D02*
X0106939Y0140841D01*
X0108537Y0139242D02*
X0126480Y0139242D01*
X0124882Y0137644D02*
X0110136Y0137644D01*
X0111734Y0136045D02*
X0123283Y0136045D01*
X0119020Y0134447D02*
X0113333Y0134447D01*
X0114931Y0132848D02*
X0117422Y0132848D01*
X0117219Y0131250D02*
X0116530Y0131250D01*
X0126381Y0131250D02*
X0170632Y0131250D01*
X0172006Y0132623D02*
X0168106Y0128723D01*
X0126253Y0128723D01*
X0126381Y0128850D01*
X0126381Y0131869D01*
X0135698Y0141186D01*
X0136421Y0141909D01*
X0136813Y0142855D01*
X0136813Y0156782D01*
X0138881Y0158850D01*
X0138881Y0159203D01*
X0139051Y0159033D01*
X0139051Y0145326D01*
X0138808Y0145225D01*
X0137323Y0143739D01*
X0136519Y0141798D01*
X0136519Y0139697D01*
X0137323Y0137756D01*
X0138808Y0136271D01*
X0140750Y0135467D01*
X0142850Y0135467D01*
X0144791Y0136271D01*
X0146277Y0137756D01*
X0147081Y0139697D01*
X0147081Y0141798D01*
X0146277Y0143739D01*
X0144791Y0145225D01*
X0144194Y0145472D01*
X0144194Y0160610D01*
X0143803Y0161555D01*
X0143080Y0162279D01*
X0135546Y0169812D01*
X0135546Y0170690D01*
X0135090Y0171789D01*
X0156872Y0171789D01*
X0156475Y0171393D01*
X0155519Y0169084D01*
X0155519Y0166585D01*
X0156475Y0164277D01*
X0158242Y0162510D01*
X0160551Y0161553D01*
X0163049Y0161553D01*
X0165358Y0162510D01*
X0167125Y0164277D01*
X0168081Y0166585D01*
X0168081Y0169084D01*
X0167125Y0171393D01*
X0165358Y0173159D01*
X0163585Y0173894D01*
X0172006Y0182389D01*
X0172006Y0132623D01*
X0172006Y0132848D02*
X0127360Y0132848D01*
X0128958Y0134447D02*
X0172006Y0134447D01*
X0172006Y0136045D02*
X0164247Y0136045D01*
X0164791Y0136271D02*
X0162850Y0135467D01*
X0160750Y0135467D01*
X0158808Y0136271D01*
X0157323Y0137756D01*
X0156519Y0139697D01*
X0156519Y0141798D01*
X0157323Y0143739D01*
X0158808Y0145225D01*
X0160750Y0146029D01*
X0162850Y0146029D01*
X0164791Y0145225D01*
X0166277Y0143739D01*
X0167081Y0141798D01*
X0167081Y0139697D01*
X0166277Y0137756D01*
X0164791Y0136271D01*
X0166164Y0137644D02*
X0172006Y0137644D01*
X0172006Y0139242D02*
X0166893Y0139242D01*
X0167081Y0140841D02*
X0172006Y0140841D01*
X0172006Y0142439D02*
X0166816Y0142439D01*
X0165979Y0144038D02*
X0172006Y0144038D01*
X0172006Y0145636D02*
X0163799Y0145636D01*
X0163228Y0148105D02*
X0164142Y0148402D01*
X0164997Y0148838D01*
X0165774Y0149402D01*
X0166453Y0150081D01*
X0167017Y0150858D01*
X0167453Y0151713D01*
X0167750Y0152627D01*
X0167900Y0153575D01*
X0167900Y0153871D01*
X0161984Y0153871D01*
X0161984Y0147955D01*
X0162280Y0147955D01*
X0163228Y0148105D01*
X0161984Y0148833D02*
X0161616Y0148833D01*
X0161616Y0147955D02*
X0161616Y0153871D01*
X0155700Y0153871D01*
X0155700Y0153575D01*
X0155850Y0152627D01*
X0156147Y0151713D01*
X0156583Y0150858D01*
X0157147Y0150081D01*
X0157826Y0149402D01*
X0158603Y0148838D01*
X0159458Y0148402D01*
X0160372Y0148105D01*
X0161320Y0147955D01*
X0161616Y0147955D01*
X0161616Y0150432D02*
X0161984Y0150432D01*
X0161984Y0152030D02*
X0161616Y0152030D01*
X0161616Y0153629D02*
X0161984Y0153629D01*
X0161984Y0153871D02*
X0161616Y0153871D01*
X0161616Y0154239D01*
X0155700Y0154239D01*
X0155700Y0154535D01*
X0155850Y0155483D01*
X0156147Y0156397D01*
X0156583Y0157252D01*
X0157147Y0158029D01*
X0157826Y0158708D01*
X0158603Y0159272D01*
X0159458Y0159708D01*
X0160372Y0160005D01*
X0161320Y0160155D01*
X0161616Y0160155D01*
X0161616Y0154239D01*
X0161984Y0154239D01*
X0167900Y0154239D01*
X0167900Y0154535D01*
X0167750Y0155483D01*
X0167453Y0156397D01*
X0167017Y0157252D01*
X0166453Y0158029D01*
X0165774Y0158708D01*
X0164997Y0159272D01*
X0164142Y0159708D01*
X0163228Y0160005D01*
X0162280Y0160155D01*
X0161984Y0160155D01*
X0161984Y0154239D01*
X0161984Y0153871D01*
X0161984Y0155227D02*
X0161616Y0155227D01*
X0161616Y0156826D02*
X0161984Y0156826D01*
X0161984Y0158424D02*
X0161616Y0158424D01*
X0161616Y0160023D02*
X0161984Y0160023D01*
X0163114Y0160023D02*
X0172006Y0160023D01*
X0172006Y0161621D02*
X0163213Y0161621D01*
X0160387Y0161621D02*
X0143737Y0161621D01*
X0144194Y0160023D02*
X0160486Y0160023D01*
X0157543Y0158424D02*
X0144194Y0158424D01*
X0144194Y0156826D02*
X0156366Y0156826D01*
X0155810Y0155227D02*
X0144194Y0155227D01*
X0144194Y0153629D02*
X0155700Y0153629D01*
X0156044Y0152030D02*
X0144194Y0152030D01*
X0144194Y0150432D02*
X0156892Y0150432D01*
X0158612Y0148833D02*
X0144194Y0148833D01*
X0144194Y0147235D02*
X0172006Y0147235D01*
X0172006Y0148833D02*
X0164988Y0148833D01*
X0166708Y0150432D02*
X0172006Y0150432D01*
X0172006Y0152030D02*
X0167556Y0152030D01*
X0167900Y0153629D02*
X0172006Y0153629D01*
X0172006Y0155227D02*
X0167790Y0155227D01*
X0167234Y0156826D02*
X0172006Y0156826D01*
X0172006Y0158424D02*
X0166057Y0158424D01*
X0166068Y0163220D02*
X0172006Y0163220D01*
X0172006Y0164818D02*
X0167349Y0164818D01*
X0168011Y0166417D02*
X0172006Y0166417D01*
X0172006Y0168015D02*
X0168081Y0168015D01*
X0167862Y0169614D02*
X0172006Y0169614D01*
X0172006Y0171213D02*
X0167199Y0171213D01*
X0165706Y0172811D02*
X0172006Y0172811D01*
X0172006Y0174410D02*
X0164096Y0174410D01*
X0165680Y0176008D02*
X0172006Y0176008D01*
X0172006Y0177607D02*
X0167265Y0177607D01*
X0168850Y0179205D02*
X0172006Y0179205D01*
X0172006Y0180804D02*
X0170434Y0180804D01*
X0167093Y0200190D02*
X0165791Y0200729D01*
X0160731Y0200729D01*
X0160512Y0200948D01*
X0161600Y0200948D01*
X0161600Y0205548D01*
X0162000Y0205548D01*
X0162000Y0200948D01*
X0165178Y0200948D01*
X0165924Y0201066D01*
X0166643Y0201300D01*
X0167093Y0201529D01*
X0167093Y0200190D01*
X0162000Y0201584D02*
X0161600Y0201584D01*
X0161600Y0203183D02*
X0162000Y0203183D01*
X0162000Y0204781D02*
X0161600Y0204781D01*
X0161600Y0206380D02*
X0162000Y0206380D01*
X0162000Y0207978D02*
X0161600Y0207978D01*
X0161600Y0209577D02*
X0162000Y0209577D01*
X0155904Y0209577D02*
X0138016Y0209577D01*
X0139268Y0207978D02*
X0154549Y0207978D01*
X0154040Y0206380D02*
X0139781Y0206380D01*
X0139781Y0204781D02*
X0154093Y0204781D01*
X0154063Y0219168D02*
X0147214Y0219168D01*
X0145615Y0220766D02*
X0153819Y0220766D01*
X0154078Y0222365D02*
X0144017Y0222365D01*
X0142418Y0223963D02*
X0154971Y0223963D01*
X0157406Y0225562D02*
X0140820Y0225562D01*
X0139221Y0227160D02*
X0155343Y0227160D01*
X0154232Y0228759D02*
X0139368Y0228759D01*
X0139781Y0230357D02*
X0153819Y0230357D01*
X0153909Y0231956D02*
X0139691Y0231956D01*
X0139029Y0233554D02*
X0154571Y0233554D01*
X0153975Y0235153D02*
X0137182Y0235153D01*
X0139781Y0241547D02*
X0153819Y0241547D01*
X0154402Y0243146D02*
X0139198Y0243146D01*
X0137848Y0244744D02*
X0155752Y0244744D01*
X0139940Y0219168D02*
X0139537Y0219168D01*
X0138666Y0217569D02*
X0141539Y0217569D01*
X0143137Y0215971D02*
X0136283Y0215971D01*
X0129173Y0214372D02*
X0144736Y0214372D01*
X0127406Y0225562D02*
X0060133Y0225562D01*
X0052547Y0206167D02*
X0053566Y0205148D01*
X0051800Y0205148D01*
X0051800Y0200748D01*
X0051800Y0200748D01*
X0051800Y0205148D01*
X0048854Y0205148D01*
X0048170Y0205040D01*
X0047511Y0204826D01*
X0047255Y0204695D01*
X0047255Y0206595D01*
X0048289Y0206167D01*
X0052547Y0206167D01*
X0051800Y0204781D02*
X0051800Y0204781D01*
X0051800Y0203183D02*
X0051800Y0203183D01*
X0051800Y0201584D02*
X0051800Y0201584D01*
X0051800Y0200748D02*
X0051800Y0196348D01*
X0051800Y0200748D01*
X0051800Y0200748D01*
X0051800Y0199986D02*
X0051800Y0199986D01*
X0051800Y0198387D02*
X0051800Y0198387D01*
X0051800Y0196789D02*
X0051800Y0196789D01*
X0047953Y0195190D02*
X0047255Y0195190D01*
X0047255Y0196789D02*
X0047279Y0196789D01*
X0047255Y0204781D02*
X0047424Y0204781D01*
X0047255Y0206380D02*
X0047775Y0206380D01*
X0058123Y0198387D02*
X0060861Y0198387D01*
X0046652Y0227160D02*
X0018781Y0227160D01*
X0018781Y0228759D02*
X0045275Y0228759D01*
X0044807Y0230357D02*
X0018781Y0230357D01*
X0018781Y0231956D02*
X0044966Y0231956D01*
X0045800Y0233554D02*
X0018781Y0233554D01*
X0085371Y0270320D02*
X0085542Y0270320D01*
X0085542Y0271919D02*
X0085371Y0271919D01*
X0085371Y0273517D02*
X0085542Y0273517D01*
X0085542Y0274298D02*
X0085542Y0274469D01*
X0089885Y0274469D01*
X0094371Y0274469D01*
X0094371Y0274298D01*
X0085542Y0274298D01*
X0085542Y0275116D02*
X0085371Y0275116D01*
X0085371Y0276714D02*
X0085542Y0276714D01*
X0085542Y0278313D02*
X0085371Y0278313D01*
X0089400Y0276714D02*
X0090513Y0276714D01*
X0089965Y0273517D02*
X0089948Y0273517D01*
X0089316Y0271919D02*
X0090596Y0271919D01*
X0094371Y0271919D02*
X0094542Y0271919D01*
X0094542Y0273517D02*
X0094371Y0273517D01*
X0094542Y0274298D02*
X0094542Y0274469D01*
X0099028Y0274469D01*
X0103371Y0274469D01*
X0103371Y0274298D01*
X0094542Y0274298D01*
X0094542Y0275116D02*
X0094371Y0275116D01*
X0094371Y0276714D02*
X0094542Y0276714D01*
X0094542Y0278313D02*
X0094371Y0278313D01*
X0093804Y0281510D02*
X0095109Y0281510D01*
X0094608Y0286305D02*
X0094305Y0286305D01*
X0093158Y0287904D02*
X0095755Y0287904D01*
X0102158Y0287904D02*
X0104755Y0287904D01*
X0103608Y0286305D02*
X0103305Y0286305D01*
X0102804Y0281510D02*
X0104109Y0281510D01*
X0103542Y0278313D02*
X0103371Y0278313D01*
X0103371Y0276714D02*
X0103542Y0276714D01*
X0103542Y0275116D02*
X0103371Y0275116D01*
X0103371Y0273517D02*
X0103542Y0273517D01*
X0103542Y0271919D02*
X0103371Y0271919D01*
X0103371Y0270320D02*
X0103542Y0270320D01*
X0103975Y0267123D02*
X0102938Y0267123D01*
X0103249Y0262328D02*
X0103664Y0262328D01*
X0104890Y0260729D02*
X0102023Y0260729D01*
X0094975Y0267123D02*
X0093938Y0267123D01*
X0094371Y0270320D02*
X0094542Y0270320D01*
X0098316Y0271919D02*
X0099596Y0271919D01*
X0098965Y0273517D02*
X0098948Y0273517D01*
X0098400Y0276714D02*
X0099513Y0276714D01*
X0107400Y0276714D02*
X0108278Y0276714D01*
X0108333Y0271919D02*
X0107316Y0271919D01*
X0111938Y0267123D02*
X0112975Y0267123D01*
X0112664Y0262328D02*
X0112249Y0262328D01*
X0111023Y0260729D02*
X0113890Y0260729D01*
X0120023Y0260729D02*
X0123209Y0260729D01*
X0121873Y0262328D02*
X0121249Y0262328D01*
X0113109Y0281510D02*
X0111804Y0281510D01*
X0112305Y0286305D02*
X0112608Y0286305D01*
X0113755Y0287904D02*
X0111158Y0287904D01*
X0111399Y0302290D02*
X0112448Y0302290D01*
X0114920Y0302290D02*
X0116787Y0302290D01*
X0120894Y0302290D02*
X0121943Y0302290D01*
X0121355Y0305487D02*
X0119637Y0305487D01*
X0124768Y0313480D02*
X0106981Y0313480D01*
X0106474Y0302290D02*
X0106242Y0302290D01*
X0100500Y0302290D02*
X0098508Y0302290D01*
X0126868Y0302290D02*
X0127917Y0302290D01*
X0130390Y0302290D02*
X0131439Y0302290D01*
X0133911Y0302290D02*
X0134708Y0302290D01*
X0137181Y0302290D02*
X0137412Y0302290D01*
X0163995Y0294298D02*
X0164614Y0294298D01*
X0168581Y0305487D02*
X0194740Y0305487D01*
X0194740Y0307086D02*
X0169214Y0307086D01*
X0169214Y0308684D02*
X0194740Y0308684D01*
X0194740Y0310283D02*
X0169214Y0310283D01*
X0169214Y0311882D02*
X0194740Y0311882D01*
X0194740Y0313480D02*
X0168690Y0313480D01*
X0156401Y0171213D02*
X0135329Y0171213D01*
X0135744Y0169614D02*
X0155738Y0169614D01*
X0155519Y0168015D02*
X0137343Y0168015D01*
X0138941Y0166417D02*
X0155589Y0166417D01*
X0156251Y0164818D02*
X0140540Y0164818D01*
X0142138Y0163220D02*
X0157532Y0163220D01*
X0159801Y0145636D02*
X0144194Y0145636D01*
X0145979Y0144038D02*
X0157621Y0144038D01*
X0156784Y0142439D02*
X0146816Y0142439D01*
X0147081Y0140841D02*
X0156519Y0140841D01*
X0156707Y0139242D02*
X0146893Y0139242D01*
X0146164Y0137644D02*
X0157436Y0137644D01*
X0159353Y0136045D02*
X0144247Y0136045D01*
X0139353Y0136045D02*
X0130557Y0136045D01*
X0132155Y0137644D02*
X0137436Y0137644D01*
X0136707Y0139242D02*
X0133754Y0139242D01*
X0135353Y0140841D02*
X0136519Y0140841D01*
X0136641Y0142439D02*
X0136784Y0142439D01*
X0136813Y0144038D02*
X0137621Y0144038D01*
X0136813Y0145636D02*
X0139051Y0145636D01*
X0139051Y0147235D02*
X0136813Y0147235D01*
X0136813Y0148833D02*
X0139051Y0148833D01*
X0139051Y0150432D02*
X0136813Y0150432D01*
X0136813Y0152030D02*
X0139051Y0152030D01*
X0139051Y0153629D02*
X0136813Y0153629D01*
X0136813Y0155227D02*
X0139051Y0155227D01*
X0139051Y0156826D02*
X0136857Y0156826D01*
X0138455Y0158424D02*
X0139051Y0158424D01*
X0131892Y0164818D02*
X0131200Y0164818D01*
X0126381Y0129651D02*
X0169034Y0129651D01*
D19*
X0131780Y0169941D03*
X0117509Y0189134D03*
X0111773Y0210392D03*
X0093887Y0192579D03*
X0111843Y0160717D03*
X0113781Y0141487D03*
X0097824Y0136968D03*
X0121800Y0090748D03*
X0068296Y0105965D03*
X0067804Y0132539D03*
X0059930Y0158130D03*
X0065835Y0233917D03*
X0116800Y0250748D03*
X0129502Y0274102D03*
X0146800Y0250748D03*
X0146800Y0210748D03*
D20*
X0147036Y0215709D02*
X0132272Y0230472D01*
X0131800Y0230748D01*
X0134241Y0238346D02*
X0154418Y0238346D01*
X0156879Y0235886D01*
X0166721Y0235886D01*
X0174595Y0228012D01*
X0171522Y0221345D02*
X0166601Y0226266D01*
X0166517Y0226266D01*
X0161596Y0231187D01*
X0161800Y0230748D01*
X0156879Y0200945D02*
X0082076Y0200945D01*
X0081800Y0200748D01*
X0081583Y0200945D01*
X0061406Y0200945D01*
X0052056Y0210295D01*
X0051800Y0210748D01*
X0051800Y0220748D02*
X0052056Y0221122D01*
X0061898Y0230965D01*
X0065835Y0233917D02*
X0091426Y0259508D01*
X0094379Y0259508D01*
X0098808Y0263937D01*
X0098956Y0264384D01*
X0089956Y0264384D02*
X0089950Y0263937D01*
X0131780Y0220630D02*
X0127351Y0216201D01*
X0131780Y0220630D02*
X0131800Y0220748D01*
X0134241Y0238346D02*
X0132272Y0240315D01*
X0131800Y0240748D01*
X0156879Y0200945D02*
X0161800Y0196024D01*
X0161800Y0195748D01*
X0166721Y0190610D02*
X0166516Y0190405D01*
X0162087Y0185976D01*
X0161800Y0185748D01*
X0166721Y0190610D02*
X0169674Y0193563D01*
X0141623Y0160098D02*
X0141623Y0140905D01*
X0141800Y0140748D01*
X0134241Y0143366D02*
X0134241Y0160591D01*
X0134300Y0160748D01*
X0141623Y0160098D02*
X0131780Y0169941D01*
X0131288Y0185197D02*
X0131780Y0185689D01*
X0131800Y0185748D01*
X0131288Y0185197D02*
X0112587Y0185197D01*
X0103729Y0176339D01*
X0078139Y0176339D01*
X0059930Y0158130D01*
X0061898Y0150748D02*
X0081800Y0150748D01*
X0082076Y0151240D01*
X0105206Y0174370D01*
X0117509Y0189134D02*
X0123906Y0195531D01*
X0131780Y0195531D01*
X0131800Y0195748D01*
X0134241Y0143366D02*
X0121938Y0131063D01*
X0121800Y0130748D01*
X0118001Y0126142D02*
X0103237Y0140905D01*
X0082076Y0140905D01*
X0081800Y0140748D01*
X0087981Y0136968D02*
X0082076Y0131063D01*
X0081800Y0130748D01*
X0074202Y0128602D02*
X0081583Y0121220D01*
X0081800Y0120748D01*
X0082076Y0121220D01*
X0081583Y0110886D02*
X0081800Y0110748D01*
X0081583Y0110886D02*
X0066328Y0126142D01*
X0047135Y0126142D01*
X0044674Y0128602D01*
X0051800Y0130748D02*
X0052056Y0130571D01*
X0054024Y0128602D01*
X0074202Y0128602D01*
X0067804Y0132539D02*
X0059930Y0132539D01*
X0052056Y0140413D01*
X0051800Y0140748D01*
X0061898Y0150748D02*
X0052056Y0160591D01*
X0051800Y0160748D01*
X0081800Y0180748D02*
X0082076Y0180768D01*
X0093887Y0192579D01*
X0097824Y0136968D02*
X0087981Y0136968D01*
X0106682Y0130571D02*
X0106800Y0130748D01*
X0107174Y0130571D01*
X0089457Y0105965D02*
X0068296Y0105965D01*
X0089457Y0105965D02*
X0114556Y0080866D01*
X0115043Y0080619D01*
X0102253Y0065610D02*
X0097331Y0060689D01*
X0097043Y0060619D01*
X0102253Y0065610D02*
X0134241Y0065610D01*
X0141800Y0100748D02*
X0141623Y0101043D01*
X0121938Y0100551D02*
X0121800Y0100748D01*
D21*
X0136762Y0101230D02*
X0107174Y0130571D01*
X0136762Y0101230D02*
X0141683Y0101230D01*
X0141623Y0101043D01*
D22*
X0136800Y0085748D02*
X0121800Y0100748D01*
X0136800Y0085748D02*
X0136800Y0068169D01*
X0134241Y0065610D01*
X0118001Y0126142D02*
X0169175Y0126142D01*
X0174587Y0131554D01*
X0174587Y0228004D01*
X0174595Y0228012D01*
X0171522Y0221345D02*
X0172106Y0220704D01*
X0172106Y0186156D01*
X0160422Y0174370D01*
X0105206Y0174370D01*
X0126898Y0215748D02*
X0127351Y0216201D01*
X0126898Y0215748D02*
X0046800Y0215748D01*
X0044674Y0213622D01*
X0044674Y0128602D01*
X0061898Y0230965D02*
X0061800Y0231063D01*
X0061800Y0235748D01*
X0089956Y0263904D01*
X0089956Y0264384D01*
X0147036Y0215709D02*
X0147076Y0215748D01*
X0166800Y0215748D01*
X0169674Y0212874D01*
X0169674Y0193563D01*
M02*
