G75*
%MOIN*%
%OFA0B0*%
%FSLAX25Y25*%
%IPPOS*%
%LPD*%
%AMOC8*
5,1,8,0,0,1.08239X$1,22.5*
%
%ADD10C,0.13398*%
%ADD11C,0.06343*%
%ADD12OC8,0.06343*%
%ADD13C,0.12611*%
%ADD14C,0.07400*%
%ADD15C,0.06000*%
%ADD16C,0.09400*%
%ADD17C,0.06800*%
%ADD18OC8,0.06000*%
%ADD19C,0.04369*%
D10*
X0031800Y0055748D03*
X0031800Y0285748D03*
X0181800Y0285748D03*
X0181800Y0055748D03*
D11*
X0128543Y0070619D03*
X0124043Y0060619D03*
X0119543Y0070619D03*
X0115043Y0080619D03*
X0110543Y0070619D03*
X0106043Y0080619D03*
X0101543Y0070619D03*
X0097043Y0080619D03*
X0092543Y0070619D03*
X0088043Y0080619D03*
X0088043Y0060619D03*
X0097043Y0060619D03*
X0106043Y0060619D03*
X0115043Y0060619D03*
X0116956Y0264384D03*
X0112456Y0274384D03*
X0107956Y0284384D03*
X0103456Y0274384D03*
X0098956Y0284384D03*
X0094456Y0274384D03*
X0089956Y0284384D03*
X0085456Y0274384D03*
X0098956Y0264384D03*
X0107956Y0264384D03*
X0121456Y0274384D03*
X0116956Y0284384D03*
X0125956Y0284384D03*
X0125956Y0264384D03*
D12*
X0089956Y0264384D03*
X0124043Y0080619D03*
D13*
X0156212Y0070619D03*
X0057787Y0070619D03*
X0057787Y0274384D03*
X0156212Y0274384D03*
D14*
X0161800Y0140748D03*
X0141800Y0140748D03*
X0141800Y0100748D03*
X0161800Y0100748D03*
D15*
X0084400Y0100748D02*
X0079200Y0100748D01*
X0079200Y0110748D02*
X0084400Y0110748D01*
X0084400Y0120748D02*
X0079200Y0120748D01*
X0079200Y0130748D02*
X0084400Y0130748D01*
X0084400Y0140748D02*
X0079200Y0140748D01*
X0079200Y0150748D02*
X0084400Y0150748D01*
X0084400Y0160748D02*
X0079200Y0160748D01*
X0079200Y0180748D02*
X0084400Y0180748D01*
X0084400Y0190748D02*
X0079200Y0190748D01*
X0079200Y0200748D02*
X0084400Y0200748D01*
X0084400Y0210748D02*
X0079200Y0210748D01*
X0079200Y0220748D02*
X0084400Y0220748D01*
X0084400Y0230748D02*
X0079200Y0230748D01*
X0079200Y0240748D02*
X0084400Y0240748D01*
X0054400Y0240748D02*
X0049200Y0240748D01*
X0049200Y0230748D02*
X0054400Y0230748D01*
X0054400Y0220748D02*
X0049200Y0220748D01*
X0049200Y0210748D02*
X0054400Y0210748D01*
X0054400Y0200748D02*
X0049200Y0200748D01*
X0049200Y0190748D02*
X0054400Y0190748D01*
X0054400Y0180748D02*
X0049200Y0180748D01*
X0049200Y0160748D02*
X0054400Y0160748D01*
X0054400Y0150748D02*
X0049200Y0150748D01*
X0049200Y0140748D02*
X0054400Y0140748D01*
X0054400Y0130748D02*
X0049200Y0130748D01*
X0049200Y0120748D02*
X0054400Y0120748D01*
X0054400Y0110748D02*
X0049200Y0110748D01*
X0049200Y0100748D02*
X0054400Y0100748D01*
D16*
X0161800Y0154055D03*
X0161800Y0167835D03*
D17*
X0164800Y0185748D02*
X0158800Y0185748D01*
X0158800Y0195748D02*
X0164800Y0195748D01*
X0164800Y0205748D02*
X0158800Y0205748D01*
X0158800Y0220748D02*
X0164800Y0220748D01*
X0164800Y0230748D02*
X0158800Y0230748D01*
X0158800Y0240748D02*
X0164800Y0240748D01*
X0134800Y0240748D02*
X0128800Y0240748D01*
X0128800Y0230748D02*
X0134800Y0230748D01*
X0134800Y0220748D02*
X0128800Y0220748D01*
X0128800Y0205748D02*
X0134800Y0205748D01*
X0134800Y0195748D02*
X0128800Y0195748D01*
X0128800Y0185748D02*
X0134800Y0185748D01*
D18*
X0126800Y0165748D03*
X0134300Y0160748D03*
X0126800Y0155748D03*
X0121800Y0130748D03*
X0106800Y0130748D03*
X0106800Y0100748D03*
X0121800Y0100748D03*
D19*
X0121800Y0090748D03*
X0097824Y0136968D03*
X0111843Y0160717D03*
X0113781Y0141487D03*
X0131780Y0169941D03*
X0117509Y0189134D03*
X0111773Y0210392D03*
X0093887Y0192579D03*
X0065835Y0233917D03*
X0059930Y0158130D03*
X0067804Y0132539D03*
X0068296Y0105965D03*
X0146800Y0210748D03*
X0146800Y0250748D03*
X0129502Y0274102D03*
X0116800Y0250748D03*
M02*
