G75*
%MOIN*%
%OFA0B0*%
%FSLAX25Y25*%
%IPPOS*%
%LPD*%
%AMOC8*
5,1,8,0,0,1.08239X$1,22.5*
%
%ADD10C,0.01200*%
%ADD11C,0.00400*%
%ADD12C,0.00300*%
%ADD13C,0.01000*%
%ADD14C,0.00600*%
%ADD15C,0.00500*%
%ADD16R,0.01575X0.24016*%
%ADD17R,0.01575X0.14173*%
%ADD18R,0.01575X0.12205*%
%ADD19R,0.10000X0.02000*%
%ADD20R,0.03000X0.07500*%
%ADD21R,0.02000X0.01500*%
D10*
X0025332Y0097230D02*
X0025332Y0103102D01*
X0029736Y0100166D02*
X0029736Y0097230D01*
X0034140Y0097230D02*
X0025332Y0097230D01*
X0028268Y0107906D02*
X0028268Y0110842D01*
X0029736Y0112310D01*
X0034140Y0112310D01*
X0034140Y0107906D01*
X0032672Y0106438D01*
X0031204Y0107906D01*
X0031204Y0112310D01*
X0029736Y0115646D02*
X0032672Y0115646D01*
X0034140Y0117114D01*
X0034140Y0121518D01*
X0032672Y0126322D02*
X0034140Y0127790D01*
X0032672Y0126322D02*
X0026800Y0126322D01*
X0028268Y0124854D02*
X0028268Y0127790D01*
X0029736Y0130993D02*
X0032672Y0130993D01*
X0034140Y0132460D01*
X0034140Y0135396D01*
X0032672Y0136864D01*
X0029736Y0136864D01*
X0028268Y0135396D01*
X0028268Y0132460D01*
X0029736Y0130993D01*
X0031204Y0140200D02*
X0028268Y0143136D01*
X0028268Y0144604D01*
X0028268Y0147874D02*
X0032672Y0147874D01*
X0034140Y0149342D01*
X0034140Y0153745D01*
X0035608Y0153745D02*
X0037075Y0152277D01*
X0037075Y0150809D01*
X0035608Y0153745D02*
X0028268Y0153745D01*
X0028268Y0166289D02*
X0025332Y0169225D01*
X0028268Y0172161D01*
X0034140Y0172161D01*
X0034140Y0175497D02*
X0028268Y0175497D01*
X0031204Y0175497D02*
X0028268Y0178433D01*
X0028268Y0179901D01*
X0029736Y0183170D02*
X0032672Y0183170D01*
X0034140Y0184638D01*
X0034140Y0189042D01*
X0032672Y0192378D02*
X0031204Y0193846D01*
X0031204Y0198250D01*
X0029736Y0198250D02*
X0028268Y0196782D01*
X0028268Y0193846D01*
X0028268Y0189042D02*
X0028268Y0184638D01*
X0029736Y0183170D01*
X0032672Y0192378D02*
X0034140Y0193846D01*
X0034140Y0198250D01*
X0029736Y0198250D01*
X0029736Y0201586D02*
X0028268Y0203054D01*
X0028268Y0207458D01*
X0029736Y0210794D02*
X0028268Y0212262D01*
X0028268Y0215198D01*
X0029736Y0216666D01*
X0031204Y0216666D01*
X0031204Y0210794D01*
X0032672Y0210794D02*
X0034140Y0212262D01*
X0034140Y0215198D01*
X0032672Y0210794D02*
X0029736Y0210794D01*
X0034140Y0207458D02*
X0034140Y0203054D01*
X0032672Y0201586D01*
X0029736Y0201586D01*
X0025332Y0207458D02*
X0034140Y0207458D01*
X0032672Y0229210D02*
X0034140Y0230678D01*
X0034140Y0233613D01*
X0032672Y0235081D01*
X0031204Y0235081D01*
X0029736Y0233613D01*
X0029736Y0230678D01*
X0028268Y0229210D01*
X0026800Y0229210D01*
X0025332Y0230678D01*
X0025332Y0233613D01*
X0026800Y0235081D01*
X0025332Y0238418D02*
X0034140Y0238418D01*
X0034140Y0244289D01*
X0032672Y0247625D02*
X0034140Y0249093D01*
X0034140Y0252029D01*
X0032672Y0253497D01*
X0029736Y0253497D01*
X0029736Y0250561D01*
X0026800Y0247625D02*
X0032672Y0247625D01*
X0026800Y0247625D02*
X0025332Y0249093D01*
X0025332Y0252029D01*
X0026800Y0253497D01*
X0029736Y0172161D02*
X0029736Y0166289D01*
X0028268Y0166289D02*
X0034140Y0166289D01*
X0034140Y0140200D02*
X0028268Y0140200D01*
X0028268Y0121518D02*
X0028268Y0117114D01*
X0029736Y0115646D01*
D11*
X0087200Y0093821D02*
X0087200Y0091419D01*
X0087800Y0090819D01*
X0089001Y0090819D01*
X0089602Y0091419D01*
X0090883Y0091419D02*
X0090883Y0093821D01*
X0091483Y0094422D01*
X0092684Y0094422D01*
X0093285Y0093821D01*
X0093285Y0091419D01*
X0092684Y0090819D01*
X0091483Y0090819D01*
X0090883Y0091419D01*
X0089602Y0093821D02*
X0089001Y0094422D01*
X0087800Y0094422D01*
X0087200Y0093821D01*
X0094566Y0094422D02*
X0094566Y0090819D01*
X0096968Y0090819D02*
X0094566Y0094422D01*
X0096968Y0094422D02*
X0096968Y0090819D01*
X0098249Y0090819D02*
X0100651Y0090819D01*
X0099450Y0090819D02*
X0099450Y0094422D01*
X0098249Y0093221D01*
X0097997Y0105948D02*
X0097997Y0107699D01*
X0098581Y0108283D01*
X0099749Y0108283D01*
X0100332Y0107699D01*
X0100332Y0105948D01*
X0100332Y0107116D02*
X0101500Y0108283D01*
X0101500Y0109539D02*
X0099165Y0111874D01*
X0098581Y0111874D01*
X0097997Y0111291D01*
X0097997Y0110123D01*
X0098581Y0109539D01*
X0101500Y0109539D02*
X0101500Y0111874D01*
X0101500Y0105948D02*
X0097997Y0105948D01*
X0104997Y0110716D02*
X0108500Y0110716D01*
X0108500Y0111883D02*
X0108500Y0109548D01*
X0106165Y0109548D02*
X0104997Y0110716D01*
X0105581Y0113139D02*
X0104997Y0113723D01*
X0104997Y0114891D01*
X0105581Y0115474D01*
X0107916Y0113139D01*
X0108500Y0113723D01*
X0108500Y0114891D01*
X0107916Y0115474D01*
X0105581Y0115474D01*
X0104997Y0116730D02*
X0108500Y0116730D01*
X0107332Y0116730D02*
X0104997Y0119065D01*
X0106749Y0117314D02*
X0108500Y0119065D01*
X0107916Y0113139D02*
X0105581Y0113139D01*
X0112997Y0110707D02*
X0116500Y0110707D01*
X0116500Y0111874D02*
X0116500Y0109539D01*
X0116500Y0108283D02*
X0115332Y0107116D01*
X0115332Y0107699D02*
X0115332Y0105948D01*
X0116500Y0105948D02*
X0112997Y0105948D01*
X0112997Y0107699D01*
X0113581Y0108283D01*
X0114749Y0108283D01*
X0115332Y0107699D01*
X0114165Y0109539D02*
X0112997Y0110707D01*
X0119997Y0110716D02*
X0123500Y0110716D01*
X0123500Y0111883D02*
X0123500Y0109548D01*
X0121165Y0109548D02*
X0119997Y0110716D01*
X0120581Y0113139D02*
X0119997Y0113723D01*
X0119997Y0114891D01*
X0120581Y0115474D01*
X0122916Y0113139D01*
X0123500Y0113723D01*
X0123500Y0114891D01*
X0122916Y0115474D01*
X0120581Y0115474D01*
X0119997Y0116730D02*
X0123500Y0116730D01*
X0122332Y0116730D02*
X0119997Y0119065D01*
X0121749Y0117314D02*
X0123500Y0119065D01*
X0122916Y0113139D02*
X0120581Y0113139D01*
X0122533Y0094422D02*
X0121932Y0093821D01*
X0121932Y0091419D01*
X0122533Y0090819D01*
X0123734Y0090819D01*
X0124334Y0091419D01*
X0124334Y0093821D01*
X0123734Y0094422D01*
X0122533Y0094422D01*
X0125616Y0094422D02*
X0125616Y0091419D01*
X0126216Y0090819D01*
X0127417Y0090819D01*
X0128018Y0091419D01*
X0128018Y0094422D01*
X0129299Y0094422D02*
X0131701Y0094422D01*
X0130500Y0094422D02*
X0130500Y0090819D01*
X0116968Y0090819D02*
X0116968Y0093221D01*
X0115767Y0094422D01*
X0114566Y0093221D01*
X0114566Y0090819D01*
X0113285Y0091419D02*
X0113285Y0092620D01*
X0112084Y0092620D01*
X0113285Y0091419D02*
X0112684Y0090819D01*
X0111483Y0090819D01*
X0110883Y0091419D01*
X0110883Y0093821D01*
X0111483Y0094422D01*
X0112684Y0094422D01*
X0113285Y0093821D01*
X0114566Y0092620D02*
X0116968Y0092620D01*
X0109602Y0092020D02*
X0109602Y0094422D01*
X0109602Y0092020D02*
X0108401Y0090819D01*
X0107200Y0092020D01*
X0107200Y0094422D01*
X0116700Y0037423D02*
X0119769Y0037423D01*
X0118234Y0035121D02*
X0116700Y0035121D01*
X0116700Y0032819D02*
X0116700Y0037423D01*
X0121304Y0035121D02*
X0122071Y0035888D01*
X0123606Y0035888D01*
X0124373Y0035121D01*
X0124373Y0034354D01*
X0121304Y0034354D01*
X0121304Y0035121D02*
X0121304Y0033586D01*
X0122071Y0032819D01*
X0123606Y0032819D01*
X0125908Y0032819D02*
X0125908Y0035888D01*
X0126675Y0035888D01*
X0127442Y0035121D01*
X0128210Y0035888D01*
X0128977Y0035121D01*
X0128977Y0032819D01*
X0127442Y0032819D02*
X0127442Y0035121D01*
X0130512Y0033586D02*
X0131279Y0034354D01*
X0133581Y0034354D01*
X0133581Y0035121D02*
X0133581Y0032819D01*
X0131279Y0032819D01*
X0130512Y0033586D01*
X0131279Y0035888D02*
X0132814Y0035888D01*
X0133581Y0035121D01*
X0135116Y0037423D02*
X0135883Y0037423D01*
X0135883Y0032819D01*
X0135116Y0032819D02*
X0136650Y0032819D01*
X0138185Y0033586D02*
X0138185Y0035121D01*
X0138952Y0035888D01*
X0140487Y0035888D01*
X0141254Y0035121D01*
X0141254Y0034354D01*
X0138185Y0034354D01*
X0138185Y0033586D02*
X0138952Y0032819D01*
X0140487Y0032819D01*
X0154015Y0148023D02*
X0154782Y0148791D01*
X0154782Y0149558D01*
X0154015Y0150325D01*
X0150178Y0150325D01*
X0150178Y0149558D02*
X0150178Y0151093D01*
X0150178Y0152627D02*
X0150178Y0154929D01*
X0150945Y0155697D01*
X0152480Y0155697D01*
X0153247Y0154929D01*
X0153247Y0152627D01*
X0154782Y0152627D02*
X0150178Y0152627D01*
X0151713Y0157231D02*
X0150178Y0158766D01*
X0154782Y0158766D01*
X0154782Y0157231D02*
X0154782Y0160301D01*
X0177783Y0159846D02*
X0182988Y0159846D01*
X0181253Y0161580D01*
X0182988Y0163315D01*
X0177783Y0163315D01*
X0177783Y0165002D02*
X0182988Y0165002D01*
X0182988Y0168472D01*
X0182988Y0170158D02*
X0177783Y0170158D01*
X0177783Y0172761D01*
X0178651Y0173628D01*
X0180386Y0173628D01*
X0181253Y0172761D01*
X0181253Y0170158D01*
X0181253Y0171893D02*
X0182988Y0173628D01*
X0186183Y0171909D02*
X0186183Y0168440D01*
X0186183Y0166753D02*
X0190520Y0166753D01*
X0191388Y0165885D01*
X0191388Y0164151D01*
X0190520Y0163283D01*
X0186183Y0163283D01*
X0187051Y0161596D02*
X0188786Y0161596D01*
X0189653Y0160729D01*
X0189653Y0158127D01*
X0191388Y0158127D02*
X0186183Y0158127D01*
X0186183Y0160729D01*
X0187051Y0161596D01*
X0186183Y0156440D02*
X0191388Y0156440D01*
X0186183Y0152970D01*
X0191388Y0152970D01*
X0191388Y0151268D02*
X0191388Y0149533D01*
X0191388Y0150400D02*
X0186183Y0150400D01*
X0186183Y0149533D02*
X0186183Y0151268D01*
X0182988Y0149533D02*
X0177783Y0149533D01*
X0177783Y0152135D01*
X0178651Y0153002D01*
X0180386Y0153002D01*
X0181253Y0152135D01*
X0181253Y0149533D01*
X0182120Y0154689D02*
X0178651Y0154689D01*
X0177783Y0155557D01*
X0177783Y0157291D01*
X0178651Y0158159D01*
X0182120Y0158159D01*
X0182988Y0157291D01*
X0182988Y0155557D01*
X0182120Y0154689D01*
X0180386Y0165002D02*
X0180386Y0166737D01*
X0177783Y0168472D02*
X0177783Y0165002D01*
X0186183Y0170174D02*
X0191388Y0170174D01*
X0188094Y0182930D02*
X0184625Y0182930D01*
X0183757Y0183797D01*
X0183757Y0185532D01*
X0184625Y0186399D01*
X0184625Y0188086D02*
X0188094Y0188086D01*
X0188962Y0188953D01*
X0188962Y0190688D01*
X0188094Y0191556D01*
X0184625Y0191556D01*
X0183757Y0190688D01*
X0183757Y0188953D01*
X0184625Y0188086D01*
X0183757Y0193242D02*
X0188962Y0196712D01*
X0183757Y0196712D01*
X0183757Y0198399D02*
X0183757Y0201868D01*
X0183757Y0203555D02*
X0183757Y0205290D01*
X0183757Y0204422D02*
X0188962Y0204422D01*
X0188962Y0203555D02*
X0188962Y0205290D01*
X0188094Y0206993D02*
X0188962Y0207860D01*
X0188962Y0209595D01*
X0188094Y0210462D01*
X0186360Y0210462D01*
X0186360Y0208727D01*
X0184625Y0206993D02*
X0188094Y0206993D01*
X0184625Y0206993D02*
X0183757Y0207860D01*
X0183757Y0209595D01*
X0184625Y0210462D01*
X0183757Y0212149D02*
X0188094Y0212149D01*
X0188962Y0213016D01*
X0188962Y0214751D01*
X0188094Y0215619D01*
X0183757Y0215619D01*
X0183757Y0217305D02*
X0183757Y0219908D01*
X0184625Y0220775D01*
X0186360Y0220775D01*
X0187227Y0219908D01*
X0187227Y0217305D01*
X0188962Y0217305D02*
X0183757Y0217305D01*
X0187227Y0219040D02*
X0188962Y0220775D01*
X0188962Y0222462D02*
X0185492Y0222462D01*
X0183757Y0224197D01*
X0185492Y0225932D01*
X0188962Y0225932D01*
X0186360Y0225932D02*
X0186360Y0222462D01*
X0183757Y0227618D02*
X0183757Y0231088D01*
X0183757Y0232775D02*
X0183757Y0234509D01*
X0183757Y0233642D02*
X0188962Y0233642D01*
X0188962Y0232775D02*
X0188962Y0234509D01*
X0188094Y0236212D02*
X0188962Y0237080D01*
X0188962Y0238814D01*
X0188094Y0239682D01*
X0184625Y0239682D01*
X0183757Y0238814D01*
X0183757Y0237080D01*
X0184625Y0236212D01*
X0188094Y0236212D01*
X0188962Y0241369D02*
X0183757Y0241369D01*
X0188962Y0244838D01*
X0183757Y0244838D01*
X0183757Y0229353D02*
X0188962Y0229353D01*
X0186360Y0200134D02*
X0186360Y0198399D01*
X0188962Y0198399D02*
X0183757Y0198399D01*
X0183757Y0193242D02*
X0188962Y0193242D01*
X0188094Y0186399D02*
X0188962Y0185532D01*
X0188962Y0183797D01*
X0188094Y0182930D01*
X0125919Y0250584D02*
X0125919Y0254187D01*
X0123517Y0254187D02*
X0123517Y0250584D01*
X0122262Y0250584D02*
X0121061Y0250584D01*
X0121662Y0250584D02*
X0121662Y0254187D01*
X0122262Y0254187D02*
X0121061Y0254187D01*
X0123517Y0254187D02*
X0125919Y0250584D01*
X0116097Y0250584D02*
X0116097Y0252986D01*
X0114896Y0254187D01*
X0113695Y0252986D01*
X0113695Y0250584D01*
X0112414Y0251184D02*
X0112414Y0252385D01*
X0111213Y0252385D01*
X0112414Y0251184D02*
X0111813Y0250584D01*
X0110612Y0250584D01*
X0110012Y0251184D01*
X0110012Y0253586D01*
X0110612Y0254187D01*
X0111813Y0254187D01*
X0112414Y0253586D01*
X0113695Y0252385D02*
X0116097Y0252385D01*
X0108731Y0251785D02*
X0108731Y0254187D01*
X0108731Y0251785D02*
X0107530Y0250584D01*
X0106329Y0251785D01*
X0106329Y0254187D01*
X0100919Y0253586D02*
X0100318Y0254187D01*
X0099117Y0254187D01*
X0098517Y0253586D01*
X0097236Y0254187D02*
X0097236Y0250584D01*
X0094833Y0254187D01*
X0094833Y0250584D01*
X0093552Y0251184D02*
X0093552Y0253586D01*
X0092952Y0254187D01*
X0091751Y0254187D01*
X0091150Y0253586D01*
X0091150Y0251184D01*
X0091751Y0250584D01*
X0092952Y0250584D01*
X0093552Y0251184D01*
X0089869Y0251184D02*
X0089269Y0250584D01*
X0088068Y0250584D01*
X0087467Y0251184D01*
X0087467Y0253586D01*
X0088068Y0254187D01*
X0089269Y0254187D01*
X0089869Y0253586D01*
X0098517Y0250584D02*
X0100919Y0252986D01*
X0100919Y0253586D01*
X0100919Y0250584D02*
X0098517Y0250584D01*
X0100857Y0239940D02*
X0103926Y0239940D01*
X0101624Y0239940D02*
X0101624Y0236870D01*
X0100857Y0236870D02*
X0099322Y0238405D01*
X0100857Y0239940D01*
X0100857Y0236870D02*
X0103926Y0236870D01*
X0103926Y0235336D02*
X0103926Y0232266D01*
X0103926Y0230732D02*
X0103926Y0229964D01*
X0103159Y0229964D01*
X0103159Y0230732D01*
X0103926Y0230732D01*
X0102391Y0228430D02*
X0099322Y0228430D01*
X0102391Y0228430D02*
X0103926Y0226895D01*
X0102391Y0225360D01*
X0099322Y0225360D01*
X0100857Y0232266D02*
X0099322Y0233801D01*
X0103926Y0233801D01*
X0095398Y0307584D02*
X0093863Y0307584D01*
X0093096Y0308351D01*
X0093096Y0309886D01*
X0093863Y0310653D01*
X0095398Y0310653D01*
X0096165Y0309886D01*
X0096165Y0309118D01*
X0093096Y0309118D01*
X0091561Y0307584D02*
X0090027Y0307584D01*
X0090794Y0307584D02*
X0090794Y0312188D01*
X0090027Y0312188D01*
X0088492Y0309886D02*
X0088492Y0307584D01*
X0086190Y0307584D01*
X0085423Y0308351D01*
X0086190Y0309118D01*
X0088492Y0309118D01*
X0088492Y0309886D02*
X0087725Y0310653D01*
X0086190Y0310653D01*
X0083888Y0309886D02*
X0083888Y0307584D01*
X0082353Y0307584D02*
X0082353Y0309886D01*
X0083121Y0310653D01*
X0083888Y0309886D01*
X0082353Y0309886D02*
X0081586Y0310653D01*
X0080819Y0310653D01*
X0080819Y0307584D01*
X0079284Y0309118D02*
X0076215Y0309118D01*
X0076215Y0308351D02*
X0076215Y0309886D01*
X0076982Y0310653D01*
X0078517Y0310653D01*
X0079284Y0309886D01*
X0079284Y0309118D01*
X0078517Y0307584D02*
X0076982Y0307584D01*
X0076215Y0308351D01*
X0073145Y0309886D02*
X0071611Y0309886D01*
X0071611Y0307584D02*
X0071611Y0312188D01*
X0074680Y0312188D01*
D12*
X0141064Y0244149D02*
X0140447Y0243532D01*
X0140447Y0241680D01*
X0144150Y0241680D01*
X0144150Y0243532D01*
X0143533Y0244149D01*
X0141064Y0244149D01*
X0141064Y0240466D02*
X0140447Y0239848D01*
X0140447Y0237997D01*
X0144150Y0237997D01*
X0144150Y0239848D01*
X0143533Y0240466D01*
X0141064Y0240466D01*
X0141064Y0236782D02*
X0140447Y0236165D01*
X0140447Y0234931D01*
X0141064Y0234314D01*
X0143533Y0234314D01*
X0144150Y0234931D01*
X0144150Y0236165D01*
X0143533Y0236782D01*
X0141064Y0236782D01*
X0140447Y0233099D02*
X0144150Y0230631D01*
X0144150Y0229416D02*
X0140447Y0229416D01*
X0140447Y0226947D02*
X0144150Y0229416D01*
X0144150Y0226947D02*
X0140447Y0226947D01*
X0140447Y0225733D02*
X0140447Y0223264D01*
X0144150Y0223264D01*
X0144150Y0225733D01*
X0142298Y0224499D02*
X0142298Y0223264D01*
X0142916Y0222050D02*
X0140447Y0222050D01*
X0142916Y0222050D02*
X0144150Y0220816D01*
X0142916Y0219581D01*
X0140447Y0219581D01*
X0140447Y0218367D02*
X0140447Y0215898D01*
X0144150Y0215898D01*
X0144150Y0218367D01*
X0142298Y0217132D02*
X0142298Y0215898D01*
X0142298Y0201872D02*
X0142298Y0199403D01*
X0140447Y0199403D02*
X0144150Y0199403D01*
X0144150Y0196954D02*
X0140447Y0196954D01*
X0140447Y0195720D02*
X0140447Y0198188D01*
X0140447Y0201872D02*
X0144150Y0201872D01*
X0143533Y0194505D02*
X0141064Y0194505D01*
X0140447Y0193888D01*
X0140447Y0192037D01*
X0144150Y0192037D01*
X0144150Y0193888D01*
X0143533Y0194505D01*
X0144150Y0190816D02*
X0144150Y0189581D01*
X0144150Y0190198D02*
X0140447Y0190198D01*
X0140447Y0189581D02*
X0140447Y0190816D01*
X0140447Y0188367D02*
X0144150Y0188367D01*
X0142916Y0187132D01*
X0144150Y0185898D01*
X0140447Y0185898D01*
X0142242Y0171829D02*
X0144711Y0171829D01*
X0145945Y0170595D01*
X0144711Y0169361D01*
X0142242Y0169361D01*
X0142242Y0168146D02*
X0142242Y0165678D01*
X0144094Y0165678D01*
X0143476Y0166912D01*
X0143476Y0167529D01*
X0144094Y0168146D01*
X0145328Y0168146D01*
X0145945Y0167529D01*
X0145945Y0166295D01*
X0145328Y0165678D01*
X0145380Y0157917D02*
X0142911Y0157917D01*
X0142294Y0157300D01*
X0142294Y0155448D01*
X0145997Y0155448D01*
X0145997Y0157300D01*
X0145380Y0157917D01*
X0145997Y0154234D02*
X0142294Y0154234D01*
X0142294Y0151765D02*
X0145997Y0154234D01*
X0145997Y0151765D02*
X0142294Y0151765D01*
X0142911Y0150551D02*
X0142294Y0149934D01*
X0142294Y0148699D01*
X0142911Y0148082D01*
X0145380Y0148082D01*
X0145997Y0148699D01*
X0145997Y0149934D01*
X0145380Y0150551D01*
X0144145Y0150551D01*
X0144145Y0149316D01*
X0171064Y0183398D02*
X0170447Y0184015D01*
X0170447Y0185250D01*
X0171064Y0185867D01*
X0173533Y0185867D01*
X0174150Y0185250D01*
X0174150Y0184015D01*
X0173533Y0183398D01*
X0171064Y0183398D01*
X0170447Y0187081D02*
X0174150Y0189550D01*
X0170447Y0189550D01*
X0170447Y0187081D02*
X0174150Y0187081D01*
X0174150Y0194447D02*
X0170447Y0196916D01*
X0171064Y0201814D02*
X0170447Y0202431D01*
X0170447Y0203665D01*
X0171064Y0204282D01*
X0173533Y0204282D01*
X0174150Y0203665D01*
X0174150Y0202431D01*
X0173533Y0201814D01*
X0171064Y0201814D01*
X0170447Y0205497D02*
X0170447Y0207966D01*
X0170447Y0209180D02*
X0170447Y0211649D01*
X0172298Y0210414D02*
X0172298Y0209180D01*
X0170447Y0209180D02*
X0174150Y0209180D01*
X0172298Y0206731D02*
X0172298Y0205497D01*
X0170447Y0205497D02*
X0174150Y0205497D01*
X0174150Y0215898D02*
X0170447Y0215898D01*
X0170447Y0217750D01*
X0171064Y0218367D01*
X0172298Y0218367D01*
X0172916Y0217750D01*
X0172916Y0215898D01*
X0173533Y0219581D02*
X0171064Y0219581D01*
X0170447Y0220198D01*
X0170447Y0221433D01*
X0171064Y0222050D01*
X0173533Y0222050D01*
X0174150Y0221433D01*
X0174150Y0220198D01*
X0173533Y0219581D01*
X0174150Y0223264D02*
X0174150Y0225733D01*
X0174150Y0226947D02*
X0171681Y0226947D01*
X0170447Y0228182D01*
X0171681Y0229416D01*
X0174150Y0229416D01*
X0174150Y0230631D02*
X0170447Y0230631D01*
X0170447Y0232482D01*
X0171064Y0233099D01*
X0172298Y0233099D01*
X0172916Y0232482D01*
X0172916Y0230631D01*
X0172916Y0231865D02*
X0174150Y0233099D01*
X0174150Y0234314D02*
X0174150Y0235548D01*
X0174150Y0234931D02*
X0170447Y0234931D01*
X0170447Y0234314D02*
X0170447Y0235548D01*
X0170447Y0236769D02*
X0170447Y0239238D01*
X0170447Y0240452D02*
X0171064Y0240452D01*
X0172298Y0241687D01*
X0174150Y0241687D01*
X0172298Y0241687D02*
X0171064Y0242921D01*
X0170447Y0242921D01*
X0170447Y0238004D02*
X0174150Y0238004D01*
X0172298Y0229416D02*
X0172298Y0226947D01*
X0170447Y0223264D02*
X0174150Y0223264D01*
D13*
X0179300Y0248248D02*
X0179300Y0178248D01*
X0114300Y0178248D01*
X0114300Y0248248D01*
X0179300Y0248248D01*
D14*
X0046000Y0040619D02*
X0046000Y0026225D01*
X0046449Y0026154D02*
X0167929Y0026154D01*
X0168000Y0026225D02*
X0168000Y0085619D01*
X0165500Y0088119D01*
X0146500Y0088119D01*
X0144500Y0086119D01*
X0144500Y0040619D01*
X0144350Y0038119D02*
X0144350Y0029800D01*
X0069649Y0029800D01*
X0069149Y0029800D01*
X0069149Y0026225D01*
X0069649Y0029800D02*
X0069649Y0038119D01*
X0069651Y0038217D01*
X0069657Y0038315D01*
X0069666Y0038413D01*
X0069680Y0038510D01*
X0069697Y0038607D01*
X0069718Y0038703D01*
X0069743Y0038798D01*
X0069771Y0038892D01*
X0069804Y0038984D01*
X0069839Y0039076D01*
X0069879Y0039166D01*
X0069921Y0039254D01*
X0069968Y0039341D01*
X0070017Y0039425D01*
X0070070Y0039508D01*
X0070126Y0039588D01*
X0070186Y0039667D01*
X0070248Y0039743D01*
X0070313Y0039816D01*
X0070381Y0039887D01*
X0070452Y0039955D01*
X0070525Y0040020D01*
X0070601Y0040082D01*
X0070680Y0040142D01*
X0070760Y0040198D01*
X0070843Y0040251D01*
X0070927Y0040300D01*
X0071014Y0040347D01*
X0071102Y0040389D01*
X0071192Y0040429D01*
X0071284Y0040464D01*
X0071376Y0040497D01*
X0071470Y0040525D01*
X0071565Y0040550D01*
X0071661Y0040571D01*
X0071758Y0040588D01*
X0071855Y0040602D01*
X0071953Y0040611D01*
X0072051Y0040617D01*
X0072149Y0040619D01*
X0069500Y0040619D02*
X0069500Y0086119D01*
X0067500Y0088119D01*
X0048000Y0088119D01*
X0046000Y0086119D01*
X0046000Y0040619D01*
X0167925Y0040619D01*
X0149712Y0070619D02*
X0149714Y0070780D01*
X0149720Y0070940D01*
X0149730Y0071101D01*
X0149744Y0071261D01*
X0149762Y0071421D01*
X0149783Y0071580D01*
X0149809Y0071739D01*
X0149839Y0071897D01*
X0149872Y0072054D01*
X0149910Y0072211D01*
X0149951Y0072366D01*
X0149996Y0072520D01*
X0150045Y0072673D01*
X0150098Y0072825D01*
X0150154Y0072976D01*
X0150215Y0073125D01*
X0150278Y0073273D01*
X0150346Y0073419D01*
X0150417Y0073563D01*
X0150491Y0073705D01*
X0150569Y0073846D01*
X0150651Y0073984D01*
X0150736Y0074121D01*
X0150824Y0074255D01*
X0150916Y0074387D01*
X0151011Y0074517D01*
X0151109Y0074645D01*
X0151210Y0074770D01*
X0151314Y0074892D01*
X0151421Y0075012D01*
X0151531Y0075129D01*
X0151644Y0075244D01*
X0151760Y0075355D01*
X0151879Y0075464D01*
X0152000Y0075569D01*
X0152124Y0075672D01*
X0152250Y0075772D01*
X0152378Y0075868D01*
X0152509Y0075961D01*
X0152643Y0076051D01*
X0152778Y0076138D01*
X0152916Y0076221D01*
X0153055Y0076301D01*
X0153197Y0076377D01*
X0153340Y0076450D01*
X0153485Y0076519D01*
X0153632Y0076585D01*
X0153780Y0076647D01*
X0153930Y0076705D01*
X0154081Y0076760D01*
X0154234Y0076811D01*
X0154388Y0076858D01*
X0154543Y0076901D01*
X0154699Y0076940D01*
X0154855Y0076976D01*
X0155013Y0077007D01*
X0155171Y0077035D01*
X0155330Y0077059D01*
X0155490Y0077079D01*
X0155650Y0077095D01*
X0155810Y0077107D01*
X0155971Y0077115D01*
X0156132Y0077119D01*
X0156292Y0077119D01*
X0156453Y0077115D01*
X0156614Y0077107D01*
X0156774Y0077095D01*
X0156934Y0077079D01*
X0157094Y0077059D01*
X0157253Y0077035D01*
X0157411Y0077007D01*
X0157569Y0076976D01*
X0157725Y0076940D01*
X0157881Y0076901D01*
X0158036Y0076858D01*
X0158190Y0076811D01*
X0158343Y0076760D01*
X0158494Y0076705D01*
X0158644Y0076647D01*
X0158792Y0076585D01*
X0158939Y0076519D01*
X0159084Y0076450D01*
X0159227Y0076377D01*
X0159369Y0076301D01*
X0159508Y0076221D01*
X0159646Y0076138D01*
X0159781Y0076051D01*
X0159915Y0075961D01*
X0160046Y0075868D01*
X0160174Y0075772D01*
X0160300Y0075672D01*
X0160424Y0075569D01*
X0160545Y0075464D01*
X0160664Y0075355D01*
X0160780Y0075244D01*
X0160893Y0075129D01*
X0161003Y0075012D01*
X0161110Y0074892D01*
X0161214Y0074770D01*
X0161315Y0074645D01*
X0161413Y0074517D01*
X0161508Y0074387D01*
X0161600Y0074255D01*
X0161688Y0074121D01*
X0161773Y0073984D01*
X0161855Y0073846D01*
X0161933Y0073705D01*
X0162007Y0073563D01*
X0162078Y0073419D01*
X0162146Y0073273D01*
X0162209Y0073125D01*
X0162270Y0072976D01*
X0162326Y0072825D01*
X0162379Y0072673D01*
X0162428Y0072520D01*
X0162473Y0072366D01*
X0162514Y0072211D01*
X0162552Y0072054D01*
X0162585Y0071897D01*
X0162615Y0071739D01*
X0162641Y0071580D01*
X0162662Y0071421D01*
X0162680Y0071261D01*
X0162694Y0071101D01*
X0162704Y0070940D01*
X0162710Y0070780D01*
X0162712Y0070619D01*
X0162710Y0070458D01*
X0162704Y0070298D01*
X0162694Y0070137D01*
X0162680Y0069977D01*
X0162662Y0069817D01*
X0162641Y0069658D01*
X0162615Y0069499D01*
X0162585Y0069341D01*
X0162552Y0069184D01*
X0162514Y0069027D01*
X0162473Y0068872D01*
X0162428Y0068718D01*
X0162379Y0068565D01*
X0162326Y0068413D01*
X0162270Y0068262D01*
X0162209Y0068113D01*
X0162146Y0067965D01*
X0162078Y0067819D01*
X0162007Y0067675D01*
X0161933Y0067533D01*
X0161855Y0067392D01*
X0161773Y0067254D01*
X0161688Y0067117D01*
X0161600Y0066983D01*
X0161508Y0066851D01*
X0161413Y0066721D01*
X0161315Y0066593D01*
X0161214Y0066468D01*
X0161110Y0066346D01*
X0161003Y0066226D01*
X0160893Y0066109D01*
X0160780Y0065994D01*
X0160664Y0065883D01*
X0160545Y0065774D01*
X0160424Y0065669D01*
X0160300Y0065566D01*
X0160174Y0065466D01*
X0160046Y0065370D01*
X0159915Y0065277D01*
X0159781Y0065187D01*
X0159646Y0065100D01*
X0159508Y0065017D01*
X0159369Y0064937D01*
X0159227Y0064861D01*
X0159084Y0064788D01*
X0158939Y0064719D01*
X0158792Y0064653D01*
X0158644Y0064591D01*
X0158494Y0064533D01*
X0158343Y0064478D01*
X0158190Y0064427D01*
X0158036Y0064380D01*
X0157881Y0064337D01*
X0157725Y0064298D01*
X0157569Y0064262D01*
X0157411Y0064231D01*
X0157253Y0064203D01*
X0157094Y0064179D01*
X0156934Y0064159D01*
X0156774Y0064143D01*
X0156614Y0064131D01*
X0156453Y0064123D01*
X0156292Y0064119D01*
X0156132Y0064119D01*
X0155971Y0064123D01*
X0155810Y0064131D01*
X0155650Y0064143D01*
X0155490Y0064159D01*
X0155330Y0064179D01*
X0155171Y0064203D01*
X0155013Y0064231D01*
X0154855Y0064262D01*
X0154699Y0064298D01*
X0154543Y0064337D01*
X0154388Y0064380D01*
X0154234Y0064427D01*
X0154081Y0064478D01*
X0153930Y0064533D01*
X0153780Y0064591D01*
X0153632Y0064653D01*
X0153485Y0064719D01*
X0153340Y0064788D01*
X0153197Y0064861D01*
X0153055Y0064937D01*
X0152916Y0065017D01*
X0152778Y0065100D01*
X0152643Y0065187D01*
X0152509Y0065277D01*
X0152378Y0065370D01*
X0152250Y0065466D01*
X0152124Y0065566D01*
X0152000Y0065669D01*
X0151879Y0065774D01*
X0151760Y0065883D01*
X0151644Y0065994D01*
X0151531Y0066109D01*
X0151421Y0066226D01*
X0151314Y0066346D01*
X0151210Y0066468D01*
X0151109Y0066593D01*
X0151011Y0066721D01*
X0150916Y0066851D01*
X0150824Y0066983D01*
X0150736Y0067117D01*
X0150651Y0067254D01*
X0150569Y0067392D01*
X0150491Y0067533D01*
X0150417Y0067675D01*
X0150346Y0067819D01*
X0150278Y0067965D01*
X0150215Y0068113D01*
X0150154Y0068262D01*
X0150098Y0068413D01*
X0150045Y0068565D01*
X0149996Y0068718D01*
X0149951Y0068872D01*
X0149910Y0069027D01*
X0149872Y0069184D01*
X0149839Y0069341D01*
X0149809Y0069499D01*
X0149783Y0069658D01*
X0149762Y0069817D01*
X0149744Y0069977D01*
X0149730Y0070137D01*
X0149720Y0070298D01*
X0149714Y0070458D01*
X0149712Y0070619D01*
X0141850Y0040619D02*
X0141948Y0040617D01*
X0142046Y0040611D01*
X0142144Y0040602D01*
X0142241Y0040588D01*
X0142338Y0040571D01*
X0142434Y0040550D01*
X0142529Y0040525D01*
X0142623Y0040497D01*
X0142715Y0040464D01*
X0142807Y0040429D01*
X0142897Y0040389D01*
X0142985Y0040347D01*
X0143072Y0040300D01*
X0143156Y0040251D01*
X0143239Y0040198D01*
X0143319Y0040142D01*
X0143398Y0040082D01*
X0143474Y0040020D01*
X0143547Y0039955D01*
X0143618Y0039887D01*
X0143686Y0039816D01*
X0143751Y0039743D01*
X0143813Y0039667D01*
X0143873Y0039588D01*
X0143929Y0039508D01*
X0143982Y0039425D01*
X0144031Y0039341D01*
X0144078Y0039254D01*
X0144120Y0039166D01*
X0144160Y0039076D01*
X0144195Y0038984D01*
X0144228Y0038892D01*
X0144256Y0038798D01*
X0144281Y0038703D01*
X0144302Y0038607D01*
X0144319Y0038510D01*
X0144333Y0038413D01*
X0144342Y0038315D01*
X0144348Y0038217D01*
X0144350Y0038119D01*
X0144350Y0029800D02*
X0144850Y0029800D01*
X0144850Y0026225D01*
X0141500Y0026194D02*
X0141402Y0026192D01*
X0141304Y0026186D01*
X0141206Y0026177D01*
X0141109Y0026163D01*
X0141012Y0026146D01*
X0140916Y0026125D01*
X0140821Y0026100D01*
X0140727Y0026072D01*
X0140635Y0026039D01*
X0140543Y0026004D01*
X0140453Y0025964D01*
X0140365Y0025922D01*
X0140278Y0025875D01*
X0140194Y0025826D01*
X0140111Y0025773D01*
X0140031Y0025717D01*
X0139952Y0025657D01*
X0139876Y0025595D01*
X0139803Y0025530D01*
X0139732Y0025462D01*
X0139664Y0025391D01*
X0139599Y0025318D01*
X0139537Y0025242D01*
X0139477Y0025163D01*
X0139421Y0025083D01*
X0139368Y0025000D01*
X0139319Y0024916D01*
X0139272Y0024829D01*
X0139230Y0024741D01*
X0139190Y0024651D01*
X0139155Y0024559D01*
X0139122Y0024467D01*
X0139094Y0024373D01*
X0139069Y0024278D01*
X0139048Y0024182D01*
X0139031Y0024085D01*
X0139017Y0023988D01*
X0139008Y0023890D01*
X0139002Y0023792D01*
X0139000Y0023694D01*
X0139000Y0003300D01*
X0138998Y0003213D01*
X0138992Y0003126D01*
X0138983Y0003039D01*
X0138970Y0002953D01*
X0138953Y0002867D01*
X0138932Y0002782D01*
X0138907Y0002699D01*
X0138879Y0002616D01*
X0138848Y0002535D01*
X0138813Y0002455D01*
X0138774Y0002377D01*
X0138732Y0002300D01*
X0138687Y0002225D01*
X0138638Y0002153D01*
X0138587Y0002082D01*
X0138532Y0002014D01*
X0138475Y0001949D01*
X0138414Y0001886D01*
X0138351Y0001825D01*
X0138286Y0001768D01*
X0138218Y0001713D01*
X0138147Y0001662D01*
X0138075Y0001613D01*
X0138000Y0001568D01*
X0137923Y0001526D01*
X0137845Y0001487D01*
X0137765Y0001452D01*
X0137684Y0001421D01*
X0137601Y0001393D01*
X0137518Y0001368D01*
X0137433Y0001347D01*
X0137347Y0001330D01*
X0137261Y0001317D01*
X0137174Y0001308D01*
X0137087Y0001302D01*
X0137000Y0001300D01*
X0077000Y0001300D01*
X0076913Y0001302D01*
X0076826Y0001308D01*
X0076739Y0001317D01*
X0076653Y0001330D01*
X0076567Y0001347D01*
X0076482Y0001368D01*
X0076399Y0001393D01*
X0076316Y0001421D01*
X0076235Y0001452D01*
X0076155Y0001487D01*
X0076077Y0001526D01*
X0076000Y0001568D01*
X0075925Y0001613D01*
X0075853Y0001662D01*
X0075782Y0001713D01*
X0075714Y0001768D01*
X0075649Y0001825D01*
X0075586Y0001886D01*
X0075525Y0001949D01*
X0075468Y0002014D01*
X0075413Y0002082D01*
X0075362Y0002153D01*
X0075313Y0002225D01*
X0075268Y0002300D01*
X0075226Y0002377D01*
X0075187Y0002455D01*
X0075152Y0002535D01*
X0075121Y0002616D01*
X0075093Y0002699D01*
X0075068Y0002782D01*
X0075047Y0002867D01*
X0075030Y0002953D01*
X0075017Y0003039D01*
X0075008Y0003126D01*
X0075002Y0003213D01*
X0075000Y0003300D01*
X0075000Y0023694D01*
X0074998Y0023792D01*
X0074992Y0023890D01*
X0074983Y0023988D01*
X0074969Y0024085D01*
X0074952Y0024182D01*
X0074931Y0024278D01*
X0074906Y0024373D01*
X0074878Y0024467D01*
X0074845Y0024559D01*
X0074810Y0024651D01*
X0074770Y0024741D01*
X0074728Y0024829D01*
X0074681Y0024916D01*
X0074632Y0025000D01*
X0074579Y0025083D01*
X0074523Y0025163D01*
X0074463Y0025242D01*
X0074401Y0025318D01*
X0074336Y0025391D01*
X0074268Y0025462D01*
X0074197Y0025530D01*
X0074124Y0025595D01*
X0074048Y0025657D01*
X0073969Y0025717D01*
X0073889Y0025773D01*
X0073806Y0025826D01*
X0073722Y0025875D01*
X0073635Y0025922D01*
X0073547Y0025964D01*
X0073457Y0026004D01*
X0073365Y0026039D01*
X0073273Y0026072D01*
X0073179Y0026100D01*
X0073084Y0026125D01*
X0072988Y0026146D01*
X0072891Y0026163D01*
X0072794Y0026177D01*
X0072696Y0026186D01*
X0072598Y0026192D01*
X0072500Y0026194D01*
X0051287Y0070619D02*
X0051289Y0070780D01*
X0051295Y0070940D01*
X0051305Y0071101D01*
X0051319Y0071261D01*
X0051337Y0071421D01*
X0051358Y0071580D01*
X0051384Y0071739D01*
X0051414Y0071897D01*
X0051447Y0072054D01*
X0051485Y0072211D01*
X0051526Y0072366D01*
X0051571Y0072520D01*
X0051620Y0072673D01*
X0051673Y0072825D01*
X0051729Y0072976D01*
X0051790Y0073125D01*
X0051853Y0073273D01*
X0051921Y0073419D01*
X0051992Y0073563D01*
X0052066Y0073705D01*
X0052144Y0073846D01*
X0052226Y0073984D01*
X0052311Y0074121D01*
X0052399Y0074255D01*
X0052491Y0074387D01*
X0052586Y0074517D01*
X0052684Y0074645D01*
X0052785Y0074770D01*
X0052889Y0074892D01*
X0052996Y0075012D01*
X0053106Y0075129D01*
X0053219Y0075244D01*
X0053335Y0075355D01*
X0053454Y0075464D01*
X0053575Y0075569D01*
X0053699Y0075672D01*
X0053825Y0075772D01*
X0053953Y0075868D01*
X0054084Y0075961D01*
X0054218Y0076051D01*
X0054353Y0076138D01*
X0054491Y0076221D01*
X0054630Y0076301D01*
X0054772Y0076377D01*
X0054915Y0076450D01*
X0055060Y0076519D01*
X0055207Y0076585D01*
X0055355Y0076647D01*
X0055505Y0076705D01*
X0055656Y0076760D01*
X0055809Y0076811D01*
X0055963Y0076858D01*
X0056118Y0076901D01*
X0056274Y0076940D01*
X0056430Y0076976D01*
X0056588Y0077007D01*
X0056746Y0077035D01*
X0056905Y0077059D01*
X0057065Y0077079D01*
X0057225Y0077095D01*
X0057385Y0077107D01*
X0057546Y0077115D01*
X0057707Y0077119D01*
X0057867Y0077119D01*
X0058028Y0077115D01*
X0058189Y0077107D01*
X0058349Y0077095D01*
X0058509Y0077079D01*
X0058669Y0077059D01*
X0058828Y0077035D01*
X0058986Y0077007D01*
X0059144Y0076976D01*
X0059300Y0076940D01*
X0059456Y0076901D01*
X0059611Y0076858D01*
X0059765Y0076811D01*
X0059918Y0076760D01*
X0060069Y0076705D01*
X0060219Y0076647D01*
X0060367Y0076585D01*
X0060514Y0076519D01*
X0060659Y0076450D01*
X0060802Y0076377D01*
X0060944Y0076301D01*
X0061083Y0076221D01*
X0061221Y0076138D01*
X0061356Y0076051D01*
X0061490Y0075961D01*
X0061621Y0075868D01*
X0061749Y0075772D01*
X0061875Y0075672D01*
X0061999Y0075569D01*
X0062120Y0075464D01*
X0062239Y0075355D01*
X0062355Y0075244D01*
X0062468Y0075129D01*
X0062578Y0075012D01*
X0062685Y0074892D01*
X0062789Y0074770D01*
X0062890Y0074645D01*
X0062988Y0074517D01*
X0063083Y0074387D01*
X0063175Y0074255D01*
X0063263Y0074121D01*
X0063348Y0073984D01*
X0063430Y0073846D01*
X0063508Y0073705D01*
X0063582Y0073563D01*
X0063653Y0073419D01*
X0063721Y0073273D01*
X0063784Y0073125D01*
X0063845Y0072976D01*
X0063901Y0072825D01*
X0063954Y0072673D01*
X0064003Y0072520D01*
X0064048Y0072366D01*
X0064089Y0072211D01*
X0064127Y0072054D01*
X0064160Y0071897D01*
X0064190Y0071739D01*
X0064216Y0071580D01*
X0064237Y0071421D01*
X0064255Y0071261D01*
X0064269Y0071101D01*
X0064279Y0070940D01*
X0064285Y0070780D01*
X0064287Y0070619D01*
X0064285Y0070458D01*
X0064279Y0070298D01*
X0064269Y0070137D01*
X0064255Y0069977D01*
X0064237Y0069817D01*
X0064216Y0069658D01*
X0064190Y0069499D01*
X0064160Y0069341D01*
X0064127Y0069184D01*
X0064089Y0069027D01*
X0064048Y0068872D01*
X0064003Y0068718D01*
X0063954Y0068565D01*
X0063901Y0068413D01*
X0063845Y0068262D01*
X0063784Y0068113D01*
X0063721Y0067965D01*
X0063653Y0067819D01*
X0063582Y0067675D01*
X0063508Y0067533D01*
X0063430Y0067392D01*
X0063348Y0067254D01*
X0063263Y0067117D01*
X0063175Y0066983D01*
X0063083Y0066851D01*
X0062988Y0066721D01*
X0062890Y0066593D01*
X0062789Y0066468D01*
X0062685Y0066346D01*
X0062578Y0066226D01*
X0062468Y0066109D01*
X0062355Y0065994D01*
X0062239Y0065883D01*
X0062120Y0065774D01*
X0061999Y0065669D01*
X0061875Y0065566D01*
X0061749Y0065466D01*
X0061621Y0065370D01*
X0061490Y0065277D01*
X0061356Y0065187D01*
X0061221Y0065100D01*
X0061083Y0065017D01*
X0060944Y0064937D01*
X0060802Y0064861D01*
X0060659Y0064788D01*
X0060514Y0064719D01*
X0060367Y0064653D01*
X0060219Y0064591D01*
X0060069Y0064533D01*
X0059918Y0064478D01*
X0059765Y0064427D01*
X0059611Y0064380D01*
X0059456Y0064337D01*
X0059300Y0064298D01*
X0059144Y0064262D01*
X0058986Y0064231D01*
X0058828Y0064203D01*
X0058669Y0064179D01*
X0058509Y0064159D01*
X0058349Y0064143D01*
X0058189Y0064131D01*
X0058028Y0064123D01*
X0057867Y0064119D01*
X0057707Y0064119D01*
X0057546Y0064123D01*
X0057385Y0064131D01*
X0057225Y0064143D01*
X0057065Y0064159D01*
X0056905Y0064179D01*
X0056746Y0064203D01*
X0056588Y0064231D01*
X0056430Y0064262D01*
X0056274Y0064298D01*
X0056118Y0064337D01*
X0055963Y0064380D01*
X0055809Y0064427D01*
X0055656Y0064478D01*
X0055505Y0064533D01*
X0055355Y0064591D01*
X0055207Y0064653D01*
X0055060Y0064719D01*
X0054915Y0064788D01*
X0054772Y0064861D01*
X0054630Y0064937D01*
X0054491Y0065017D01*
X0054353Y0065100D01*
X0054218Y0065187D01*
X0054084Y0065277D01*
X0053953Y0065370D01*
X0053825Y0065466D01*
X0053699Y0065566D01*
X0053575Y0065669D01*
X0053454Y0065774D01*
X0053335Y0065883D01*
X0053219Y0065994D01*
X0053106Y0066109D01*
X0052996Y0066226D01*
X0052889Y0066346D01*
X0052785Y0066468D01*
X0052684Y0066593D01*
X0052586Y0066721D01*
X0052491Y0066851D01*
X0052399Y0066983D01*
X0052311Y0067117D01*
X0052226Y0067254D01*
X0052144Y0067392D01*
X0052066Y0067533D01*
X0051992Y0067675D01*
X0051921Y0067819D01*
X0051853Y0067965D01*
X0051790Y0068113D01*
X0051729Y0068262D01*
X0051673Y0068413D01*
X0051620Y0068565D01*
X0051571Y0068718D01*
X0051526Y0068872D01*
X0051485Y0069027D01*
X0051447Y0069184D01*
X0051414Y0069341D01*
X0051384Y0069499D01*
X0051358Y0069658D01*
X0051337Y0069817D01*
X0051319Y0069977D01*
X0051305Y0070137D01*
X0051295Y0070298D01*
X0051289Y0070458D01*
X0051287Y0070619D01*
X0055300Y0095748D02*
X0078300Y0095748D01*
X0078300Y0165748D01*
X0070800Y0165748D01*
X0070798Y0165622D01*
X0070792Y0165497D01*
X0070782Y0165372D01*
X0070768Y0165247D01*
X0070751Y0165122D01*
X0070729Y0164998D01*
X0070704Y0164875D01*
X0070674Y0164753D01*
X0070641Y0164632D01*
X0070604Y0164512D01*
X0070564Y0164393D01*
X0070519Y0164276D01*
X0070471Y0164159D01*
X0070419Y0164045D01*
X0070364Y0163932D01*
X0070305Y0163821D01*
X0070243Y0163712D01*
X0070177Y0163605D01*
X0070108Y0163500D01*
X0070036Y0163397D01*
X0069961Y0163296D01*
X0069882Y0163198D01*
X0069800Y0163103D01*
X0069716Y0163010D01*
X0069628Y0162920D01*
X0069538Y0162832D01*
X0069445Y0162748D01*
X0069350Y0162666D01*
X0069252Y0162587D01*
X0069151Y0162512D01*
X0069048Y0162440D01*
X0068943Y0162371D01*
X0068836Y0162305D01*
X0068727Y0162243D01*
X0068616Y0162184D01*
X0068503Y0162129D01*
X0068389Y0162077D01*
X0068272Y0162029D01*
X0068155Y0161984D01*
X0068036Y0161944D01*
X0067916Y0161907D01*
X0067795Y0161874D01*
X0067673Y0161844D01*
X0067550Y0161819D01*
X0067426Y0161797D01*
X0067301Y0161780D01*
X0067176Y0161766D01*
X0067051Y0161756D01*
X0066926Y0161750D01*
X0066800Y0161748D01*
X0066674Y0161750D01*
X0066549Y0161756D01*
X0066424Y0161766D01*
X0066299Y0161780D01*
X0066174Y0161797D01*
X0066050Y0161819D01*
X0065927Y0161844D01*
X0065805Y0161874D01*
X0065684Y0161907D01*
X0065564Y0161944D01*
X0065445Y0161984D01*
X0065328Y0162029D01*
X0065211Y0162077D01*
X0065097Y0162129D01*
X0064984Y0162184D01*
X0064873Y0162243D01*
X0064764Y0162305D01*
X0064657Y0162371D01*
X0064552Y0162440D01*
X0064449Y0162512D01*
X0064348Y0162587D01*
X0064250Y0162666D01*
X0064155Y0162748D01*
X0064062Y0162832D01*
X0063972Y0162920D01*
X0063884Y0163010D01*
X0063800Y0163103D01*
X0063718Y0163198D01*
X0063639Y0163296D01*
X0063564Y0163397D01*
X0063492Y0163500D01*
X0063423Y0163605D01*
X0063357Y0163712D01*
X0063295Y0163821D01*
X0063236Y0163932D01*
X0063181Y0164045D01*
X0063129Y0164159D01*
X0063081Y0164276D01*
X0063036Y0164393D01*
X0062996Y0164512D01*
X0062959Y0164632D01*
X0062926Y0164753D01*
X0062896Y0164875D01*
X0062871Y0164998D01*
X0062849Y0165122D01*
X0062832Y0165247D01*
X0062818Y0165372D01*
X0062808Y0165497D01*
X0062802Y0165622D01*
X0062800Y0165748D01*
X0055300Y0165748D01*
X0055300Y0095748D01*
X0055300Y0175748D02*
X0078300Y0175748D01*
X0078300Y0245748D01*
X0070800Y0245748D01*
X0070798Y0245622D01*
X0070792Y0245497D01*
X0070782Y0245372D01*
X0070768Y0245247D01*
X0070751Y0245122D01*
X0070729Y0244998D01*
X0070704Y0244875D01*
X0070674Y0244753D01*
X0070641Y0244632D01*
X0070604Y0244512D01*
X0070564Y0244393D01*
X0070519Y0244276D01*
X0070471Y0244159D01*
X0070419Y0244045D01*
X0070364Y0243932D01*
X0070305Y0243821D01*
X0070243Y0243712D01*
X0070177Y0243605D01*
X0070108Y0243500D01*
X0070036Y0243397D01*
X0069961Y0243296D01*
X0069882Y0243198D01*
X0069800Y0243103D01*
X0069716Y0243010D01*
X0069628Y0242920D01*
X0069538Y0242832D01*
X0069445Y0242748D01*
X0069350Y0242666D01*
X0069252Y0242587D01*
X0069151Y0242512D01*
X0069048Y0242440D01*
X0068943Y0242371D01*
X0068836Y0242305D01*
X0068727Y0242243D01*
X0068616Y0242184D01*
X0068503Y0242129D01*
X0068389Y0242077D01*
X0068272Y0242029D01*
X0068155Y0241984D01*
X0068036Y0241944D01*
X0067916Y0241907D01*
X0067795Y0241874D01*
X0067673Y0241844D01*
X0067550Y0241819D01*
X0067426Y0241797D01*
X0067301Y0241780D01*
X0067176Y0241766D01*
X0067051Y0241756D01*
X0066926Y0241750D01*
X0066800Y0241748D01*
X0066674Y0241750D01*
X0066549Y0241756D01*
X0066424Y0241766D01*
X0066299Y0241780D01*
X0066174Y0241797D01*
X0066050Y0241819D01*
X0065927Y0241844D01*
X0065805Y0241874D01*
X0065684Y0241907D01*
X0065564Y0241944D01*
X0065445Y0241984D01*
X0065328Y0242029D01*
X0065211Y0242077D01*
X0065097Y0242129D01*
X0064984Y0242184D01*
X0064873Y0242243D01*
X0064764Y0242305D01*
X0064657Y0242371D01*
X0064552Y0242440D01*
X0064449Y0242512D01*
X0064348Y0242587D01*
X0064250Y0242666D01*
X0064155Y0242748D01*
X0064062Y0242832D01*
X0063972Y0242920D01*
X0063884Y0243010D01*
X0063800Y0243103D01*
X0063718Y0243198D01*
X0063639Y0243296D01*
X0063564Y0243397D01*
X0063492Y0243500D01*
X0063423Y0243605D01*
X0063357Y0243712D01*
X0063295Y0243821D01*
X0063236Y0243932D01*
X0063181Y0244045D01*
X0063129Y0244159D01*
X0063081Y0244276D01*
X0063036Y0244393D01*
X0062996Y0244512D01*
X0062959Y0244632D01*
X0062926Y0244753D01*
X0062896Y0244875D01*
X0062871Y0244998D01*
X0062849Y0245122D01*
X0062832Y0245247D01*
X0062818Y0245372D01*
X0062808Y0245497D01*
X0062802Y0245622D01*
X0062800Y0245748D01*
X0055300Y0245748D01*
X0055300Y0175748D01*
X0103800Y0125748D02*
X0109800Y0125748D01*
X0109860Y0125746D01*
X0109921Y0125741D01*
X0109980Y0125732D01*
X0110039Y0125719D01*
X0110098Y0125703D01*
X0110155Y0125683D01*
X0110210Y0125660D01*
X0110265Y0125633D01*
X0110317Y0125604D01*
X0110368Y0125571D01*
X0110417Y0125535D01*
X0110463Y0125497D01*
X0110507Y0125455D01*
X0110549Y0125411D01*
X0110587Y0125365D01*
X0110623Y0125316D01*
X0110656Y0125265D01*
X0110685Y0125213D01*
X0110712Y0125158D01*
X0110735Y0125103D01*
X0110755Y0125046D01*
X0110771Y0124987D01*
X0110784Y0124928D01*
X0110793Y0124869D01*
X0110798Y0124808D01*
X0110800Y0124748D01*
X0110800Y0123248D01*
X0110300Y0122748D01*
X0110300Y0108748D01*
X0110800Y0108248D01*
X0110800Y0106748D01*
X0110798Y0106688D01*
X0110793Y0106627D01*
X0110784Y0106568D01*
X0110771Y0106509D01*
X0110755Y0106450D01*
X0110735Y0106393D01*
X0110712Y0106338D01*
X0110685Y0106283D01*
X0110656Y0106231D01*
X0110623Y0106180D01*
X0110587Y0106131D01*
X0110549Y0106085D01*
X0110507Y0106041D01*
X0110463Y0105999D01*
X0110417Y0105961D01*
X0110368Y0105925D01*
X0110317Y0105892D01*
X0110265Y0105863D01*
X0110210Y0105836D01*
X0110155Y0105813D01*
X0110098Y0105793D01*
X0110039Y0105777D01*
X0109980Y0105764D01*
X0109921Y0105755D01*
X0109860Y0105750D01*
X0109800Y0105748D01*
X0103800Y0105748D01*
X0103740Y0105750D01*
X0103679Y0105755D01*
X0103620Y0105764D01*
X0103561Y0105777D01*
X0103502Y0105793D01*
X0103445Y0105813D01*
X0103390Y0105836D01*
X0103335Y0105863D01*
X0103283Y0105892D01*
X0103232Y0105925D01*
X0103183Y0105961D01*
X0103137Y0105999D01*
X0103093Y0106041D01*
X0103051Y0106085D01*
X0103013Y0106131D01*
X0102977Y0106180D01*
X0102944Y0106231D01*
X0102915Y0106283D01*
X0102888Y0106338D01*
X0102865Y0106393D01*
X0102845Y0106450D01*
X0102829Y0106509D01*
X0102816Y0106568D01*
X0102807Y0106627D01*
X0102802Y0106688D01*
X0102800Y0106748D01*
X0102800Y0108248D01*
X0103300Y0108748D01*
X0103300Y0122748D01*
X0102800Y0123248D01*
X0102800Y0124748D01*
X0102802Y0124808D01*
X0102807Y0124869D01*
X0102816Y0124928D01*
X0102829Y0124987D01*
X0102845Y0125046D01*
X0102865Y0125103D01*
X0102888Y0125158D01*
X0102915Y0125213D01*
X0102944Y0125265D01*
X0102977Y0125316D01*
X0103013Y0125365D01*
X0103051Y0125411D01*
X0103093Y0125455D01*
X0103137Y0125497D01*
X0103183Y0125535D01*
X0103232Y0125571D01*
X0103283Y0125604D01*
X0103335Y0125633D01*
X0103390Y0125660D01*
X0103445Y0125683D01*
X0103502Y0125703D01*
X0103561Y0125719D01*
X0103620Y0125732D01*
X0103679Y0125741D01*
X0103740Y0125746D01*
X0103800Y0125748D01*
X0117800Y0124748D02*
X0117800Y0123248D01*
X0118300Y0122748D01*
X0118300Y0108748D01*
X0117800Y0108248D01*
X0117800Y0106748D01*
X0117802Y0106688D01*
X0117807Y0106627D01*
X0117816Y0106568D01*
X0117829Y0106509D01*
X0117845Y0106450D01*
X0117865Y0106393D01*
X0117888Y0106338D01*
X0117915Y0106283D01*
X0117944Y0106231D01*
X0117977Y0106180D01*
X0118013Y0106131D01*
X0118051Y0106085D01*
X0118093Y0106041D01*
X0118137Y0105999D01*
X0118183Y0105961D01*
X0118232Y0105925D01*
X0118283Y0105892D01*
X0118335Y0105863D01*
X0118390Y0105836D01*
X0118445Y0105813D01*
X0118502Y0105793D01*
X0118561Y0105777D01*
X0118620Y0105764D01*
X0118679Y0105755D01*
X0118740Y0105750D01*
X0118800Y0105748D01*
X0124800Y0105748D01*
X0124860Y0105750D01*
X0124921Y0105755D01*
X0124980Y0105764D01*
X0125039Y0105777D01*
X0125098Y0105793D01*
X0125155Y0105813D01*
X0125210Y0105836D01*
X0125265Y0105863D01*
X0125317Y0105892D01*
X0125368Y0105925D01*
X0125417Y0105961D01*
X0125463Y0105999D01*
X0125507Y0106041D01*
X0125549Y0106085D01*
X0125587Y0106131D01*
X0125623Y0106180D01*
X0125656Y0106231D01*
X0125685Y0106283D01*
X0125712Y0106338D01*
X0125735Y0106393D01*
X0125755Y0106450D01*
X0125771Y0106509D01*
X0125784Y0106568D01*
X0125793Y0106627D01*
X0125798Y0106688D01*
X0125800Y0106748D01*
X0125800Y0108248D01*
X0125300Y0108748D01*
X0125300Y0122748D01*
X0125800Y0123248D01*
X0125800Y0124748D01*
X0125798Y0124808D01*
X0125793Y0124869D01*
X0125784Y0124928D01*
X0125771Y0124987D01*
X0125755Y0125046D01*
X0125735Y0125103D01*
X0125712Y0125158D01*
X0125685Y0125213D01*
X0125656Y0125265D01*
X0125623Y0125316D01*
X0125587Y0125365D01*
X0125549Y0125411D01*
X0125507Y0125455D01*
X0125463Y0125497D01*
X0125417Y0125535D01*
X0125368Y0125571D01*
X0125317Y0125604D01*
X0125265Y0125633D01*
X0125210Y0125660D01*
X0125155Y0125683D01*
X0125098Y0125703D01*
X0125039Y0125719D01*
X0124980Y0125732D01*
X0124921Y0125741D01*
X0124860Y0125746D01*
X0124800Y0125748D01*
X0118800Y0125748D01*
X0118740Y0125746D01*
X0118679Y0125741D01*
X0118620Y0125732D01*
X0118561Y0125719D01*
X0118502Y0125703D01*
X0118445Y0125683D01*
X0118390Y0125660D01*
X0118335Y0125633D01*
X0118283Y0125604D01*
X0118232Y0125571D01*
X0118183Y0125535D01*
X0118137Y0125497D01*
X0118093Y0125455D01*
X0118051Y0125411D01*
X0118013Y0125365D01*
X0117977Y0125316D01*
X0117944Y0125265D01*
X0117915Y0125213D01*
X0117888Y0125158D01*
X0117865Y0125103D01*
X0117845Y0125046D01*
X0117829Y0124987D01*
X0117816Y0124928D01*
X0117807Y0124869D01*
X0117802Y0124808D01*
X0117800Y0124748D01*
X0136800Y0128748D02*
X0136800Y0112748D01*
X0146800Y0112748D01*
X0146800Y0128748D01*
X0136800Y0128748D01*
X0139300Y0124748D02*
X0141800Y0120748D01*
X0144300Y0120748D01*
X0141800Y0120748D02*
X0141800Y0118248D01*
X0141800Y0120748D02*
X0139300Y0120748D01*
X0141800Y0120748D02*
X0141800Y0126748D01*
X0144300Y0124748D02*
X0141800Y0120748D01*
X0139300Y0124748D02*
X0144300Y0124748D01*
X0156800Y0128748D02*
X0156800Y0112748D01*
X0166800Y0112748D01*
X0166800Y0128748D01*
X0156800Y0128748D01*
X0159300Y0124748D02*
X0161800Y0120748D01*
X0164300Y0120748D01*
X0161800Y0120748D02*
X0161800Y0118248D01*
X0161800Y0120748D02*
X0159300Y0120748D01*
X0161800Y0120748D02*
X0161800Y0126748D01*
X0164300Y0124748D02*
X0161800Y0120748D01*
X0159300Y0124748D02*
X0164300Y0124748D01*
X0164300Y0180748D02*
X0159300Y0180748D01*
X0156800Y0183248D01*
X0156800Y0188248D01*
X0159300Y0190748D01*
X0156800Y0193248D01*
X0156800Y0198248D01*
X0159300Y0200748D01*
X0156800Y0203248D01*
X0156800Y0208248D01*
X0159300Y0210748D01*
X0164300Y0210748D01*
X0166800Y0208248D01*
X0166800Y0203248D01*
X0164300Y0200748D01*
X0166800Y0198248D01*
X0166800Y0193248D01*
X0164300Y0190748D01*
X0166800Y0188248D01*
X0166800Y0183248D01*
X0164300Y0180748D01*
X0164300Y0190748D02*
X0159300Y0190748D01*
X0159300Y0200748D02*
X0164300Y0200748D01*
X0164300Y0215748D02*
X0159300Y0215748D01*
X0156800Y0218248D01*
X0156800Y0223248D01*
X0159300Y0225748D01*
X0156800Y0228248D01*
X0156800Y0233248D01*
X0159300Y0235748D01*
X0156800Y0238248D01*
X0156800Y0243248D01*
X0159300Y0245748D01*
X0164300Y0245748D01*
X0166800Y0243248D01*
X0166800Y0238248D01*
X0164300Y0235748D01*
X0166800Y0233248D01*
X0166800Y0228248D01*
X0164300Y0225748D01*
X0166800Y0223248D01*
X0166800Y0218248D01*
X0164300Y0215748D01*
X0164300Y0225748D02*
X0159300Y0225748D01*
X0159300Y0235748D02*
X0164300Y0235748D01*
X0166000Y0256884D02*
X0168000Y0258884D01*
X0168000Y0304384D01*
X0046075Y0304384D01*
X0046000Y0318777D02*
X0046000Y0259384D01*
X0048500Y0256884D01*
X0067500Y0256884D01*
X0069500Y0258884D01*
X0069500Y0304384D01*
X0069649Y0306884D02*
X0069649Y0315203D01*
X0144350Y0315203D01*
X0144850Y0315203D01*
X0144850Y0318777D01*
X0144350Y0315203D02*
X0144350Y0306884D01*
X0144348Y0306786D01*
X0144342Y0306688D01*
X0144333Y0306590D01*
X0144319Y0306493D01*
X0144302Y0306396D01*
X0144281Y0306300D01*
X0144256Y0306205D01*
X0144228Y0306111D01*
X0144195Y0306019D01*
X0144160Y0305927D01*
X0144120Y0305837D01*
X0144078Y0305749D01*
X0144031Y0305662D01*
X0143982Y0305578D01*
X0143929Y0305495D01*
X0143873Y0305415D01*
X0143813Y0305336D01*
X0143751Y0305260D01*
X0143686Y0305187D01*
X0143618Y0305116D01*
X0143547Y0305048D01*
X0143474Y0304983D01*
X0143398Y0304921D01*
X0143319Y0304861D01*
X0143239Y0304805D01*
X0143156Y0304752D01*
X0143072Y0304703D01*
X0142985Y0304656D01*
X0142897Y0304614D01*
X0142807Y0304574D01*
X0142715Y0304539D01*
X0142623Y0304506D01*
X0142529Y0304478D01*
X0142434Y0304453D01*
X0142338Y0304432D01*
X0142241Y0304415D01*
X0142144Y0304401D01*
X0142046Y0304392D01*
X0141948Y0304386D01*
X0141850Y0304384D01*
X0144500Y0304384D02*
X0144500Y0258884D01*
X0146500Y0256884D01*
X0166000Y0256884D01*
X0149712Y0274384D02*
X0149714Y0274545D01*
X0149720Y0274705D01*
X0149730Y0274866D01*
X0149744Y0275026D01*
X0149762Y0275186D01*
X0149783Y0275345D01*
X0149809Y0275504D01*
X0149839Y0275662D01*
X0149872Y0275819D01*
X0149910Y0275976D01*
X0149951Y0276131D01*
X0149996Y0276285D01*
X0150045Y0276438D01*
X0150098Y0276590D01*
X0150154Y0276741D01*
X0150215Y0276890D01*
X0150278Y0277038D01*
X0150346Y0277184D01*
X0150417Y0277328D01*
X0150491Y0277470D01*
X0150569Y0277611D01*
X0150651Y0277749D01*
X0150736Y0277886D01*
X0150824Y0278020D01*
X0150916Y0278152D01*
X0151011Y0278282D01*
X0151109Y0278410D01*
X0151210Y0278535D01*
X0151314Y0278657D01*
X0151421Y0278777D01*
X0151531Y0278894D01*
X0151644Y0279009D01*
X0151760Y0279120D01*
X0151879Y0279229D01*
X0152000Y0279334D01*
X0152124Y0279437D01*
X0152250Y0279537D01*
X0152378Y0279633D01*
X0152509Y0279726D01*
X0152643Y0279816D01*
X0152778Y0279903D01*
X0152916Y0279986D01*
X0153055Y0280066D01*
X0153197Y0280142D01*
X0153340Y0280215D01*
X0153485Y0280284D01*
X0153632Y0280350D01*
X0153780Y0280412D01*
X0153930Y0280470D01*
X0154081Y0280525D01*
X0154234Y0280576D01*
X0154388Y0280623D01*
X0154543Y0280666D01*
X0154699Y0280705D01*
X0154855Y0280741D01*
X0155013Y0280772D01*
X0155171Y0280800D01*
X0155330Y0280824D01*
X0155490Y0280844D01*
X0155650Y0280860D01*
X0155810Y0280872D01*
X0155971Y0280880D01*
X0156132Y0280884D01*
X0156292Y0280884D01*
X0156453Y0280880D01*
X0156614Y0280872D01*
X0156774Y0280860D01*
X0156934Y0280844D01*
X0157094Y0280824D01*
X0157253Y0280800D01*
X0157411Y0280772D01*
X0157569Y0280741D01*
X0157725Y0280705D01*
X0157881Y0280666D01*
X0158036Y0280623D01*
X0158190Y0280576D01*
X0158343Y0280525D01*
X0158494Y0280470D01*
X0158644Y0280412D01*
X0158792Y0280350D01*
X0158939Y0280284D01*
X0159084Y0280215D01*
X0159227Y0280142D01*
X0159369Y0280066D01*
X0159508Y0279986D01*
X0159646Y0279903D01*
X0159781Y0279816D01*
X0159915Y0279726D01*
X0160046Y0279633D01*
X0160174Y0279537D01*
X0160300Y0279437D01*
X0160424Y0279334D01*
X0160545Y0279229D01*
X0160664Y0279120D01*
X0160780Y0279009D01*
X0160893Y0278894D01*
X0161003Y0278777D01*
X0161110Y0278657D01*
X0161214Y0278535D01*
X0161315Y0278410D01*
X0161413Y0278282D01*
X0161508Y0278152D01*
X0161600Y0278020D01*
X0161688Y0277886D01*
X0161773Y0277749D01*
X0161855Y0277611D01*
X0161933Y0277470D01*
X0162007Y0277328D01*
X0162078Y0277184D01*
X0162146Y0277038D01*
X0162209Y0276890D01*
X0162270Y0276741D01*
X0162326Y0276590D01*
X0162379Y0276438D01*
X0162428Y0276285D01*
X0162473Y0276131D01*
X0162514Y0275976D01*
X0162552Y0275819D01*
X0162585Y0275662D01*
X0162615Y0275504D01*
X0162641Y0275345D01*
X0162662Y0275186D01*
X0162680Y0275026D01*
X0162694Y0274866D01*
X0162704Y0274705D01*
X0162710Y0274545D01*
X0162712Y0274384D01*
X0162710Y0274223D01*
X0162704Y0274063D01*
X0162694Y0273902D01*
X0162680Y0273742D01*
X0162662Y0273582D01*
X0162641Y0273423D01*
X0162615Y0273264D01*
X0162585Y0273106D01*
X0162552Y0272949D01*
X0162514Y0272792D01*
X0162473Y0272637D01*
X0162428Y0272483D01*
X0162379Y0272330D01*
X0162326Y0272178D01*
X0162270Y0272027D01*
X0162209Y0271878D01*
X0162146Y0271730D01*
X0162078Y0271584D01*
X0162007Y0271440D01*
X0161933Y0271298D01*
X0161855Y0271157D01*
X0161773Y0271019D01*
X0161688Y0270882D01*
X0161600Y0270748D01*
X0161508Y0270616D01*
X0161413Y0270486D01*
X0161315Y0270358D01*
X0161214Y0270233D01*
X0161110Y0270111D01*
X0161003Y0269991D01*
X0160893Y0269874D01*
X0160780Y0269759D01*
X0160664Y0269648D01*
X0160545Y0269539D01*
X0160424Y0269434D01*
X0160300Y0269331D01*
X0160174Y0269231D01*
X0160046Y0269135D01*
X0159915Y0269042D01*
X0159781Y0268952D01*
X0159646Y0268865D01*
X0159508Y0268782D01*
X0159369Y0268702D01*
X0159227Y0268626D01*
X0159084Y0268553D01*
X0158939Y0268484D01*
X0158792Y0268418D01*
X0158644Y0268356D01*
X0158494Y0268298D01*
X0158343Y0268243D01*
X0158190Y0268192D01*
X0158036Y0268145D01*
X0157881Y0268102D01*
X0157725Y0268063D01*
X0157569Y0268027D01*
X0157411Y0267996D01*
X0157253Y0267968D01*
X0157094Y0267944D01*
X0156934Y0267924D01*
X0156774Y0267908D01*
X0156614Y0267896D01*
X0156453Y0267888D01*
X0156292Y0267884D01*
X0156132Y0267884D01*
X0155971Y0267888D01*
X0155810Y0267896D01*
X0155650Y0267908D01*
X0155490Y0267924D01*
X0155330Y0267944D01*
X0155171Y0267968D01*
X0155013Y0267996D01*
X0154855Y0268027D01*
X0154699Y0268063D01*
X0154543Y0268102D01*
X0154388Y0268145D01*
X0154234Y0268192D01*
X0154081Y0268243D01*
X0153930Y0268298D01*
X0153780Y0268356D01*
X0153632Y0268418D01*
X0153485Y0268484D01*
X0153340Y0268553D01*
X0153197Y0268626D01*
X0153055Y0268702D01*
X0152916Y0268782D01*
X0152778Y0268865D01*
X0152643Y0268952D01*
X0152509Y0269042D01*
X0152378Y0269135D01*
X0152250Y0269231D01*
X0152124Y0269331D01*
X0152000Y0269434D01*
X0151879Y0269539D01*
X0151760Y0269648D01*
X0151644Y0269759D01*
X0151531Y0269874D01*
X0151421Y0269991D01*
X0151314Y0270111D01*
X0151210Y0270233D01*
X0151109Y0270358D01*
X0151011Y0270486D01*
X0150916Y0270616D01*
X0150824Y0270748D01*
X0150736Y0270882D01*
X0150651Y0271019D01*
X0150569Y0271157D01*
X0150491Y0271298D01*
X0150417Y0271440D01*
X0150346Y0271584D01*
X0150278Y0271730D01*
X0150215Y0271878D01*
X0150154Y0272027D01*
X0150098Y0272178D01*
X0150045Y0272330D01*
X0149996Y0272483D01*
X0149951Y0272637D01*
X0149910Y0272792D01*
X0149872Y0272949D01*
X0149839Y0273106D01*
X0149809Y0273264D01*
X0149783Y0273423D01*
X0149762Y0273582D01*
X0149744Y0273742D01*
X0149730Y0273902D01*
X0149720Y0274063D01*
X0149714Y0274223D01*
X0149712Y0274384D01*
X0134300Y0245748D02*
X0136800Y0243248D01*
X0136800Y0238248D01*
X0134300Y0235748D01*
X0136800Y0233248D01*
X0136800Y0228248D01*
X0134300Y0225748D01*
X0136800Y0223248D01*
X0136800Y0218248D01*
X0134300Y0215748D01*
X0129300Y0215748D01*
X0126800Y0218248D01*
X0126800Y0223248D01*
X0129300Y0225748D01*
X0126800Y0228248D01*
X0126800Y0233248D01*
X0129300Y0235748D01*
X0126800Y0238248D01*
X0126800Y0243248D01*
X0129300Y0245748D01*
X0134300Y0245748D01*
X0134300Y0235748D02*
X0129300Y0235748D01*
X0129300Y0225748D02*
X0134300Y0225748D01*
X0134300Y0210748D02*
X0129300Y0210748D01*
X0126800Y0208248D01*
X0126800Y0203248D01*
X0129300Y0200748D01*
X0134300Y0200748D01*
X0136800Y0203248D01*
X0136800Y0208248D01*
X0134300Y0210748D01*
X0134300Y0200748D02*
X0136800Y0198248D01*
X0136800Y0193248D01*
X0134300Y0190748D01*
X0136800Y0188248D01*
X0136800Y0183248D01*
X0134300Y0180748D01*
X0129300Y0180748D01*
X0126800Y0183248D01*
X0126800Y0188248D01*
X0129300Y0190748D01*
X0126800Y0193248D01*
X0126800Y0198248D01*
X0129300Y0200748D01*
X0129300Y0190748D02*
X0134300Y0190748D01*
X0168000Y0304384D02*
X0168000Y0318777D01*
X0167551Y0318848D02*
X0046071Y0318848D01*
X0069149Y0318777D02*
X0069149Y0315203D01*
X0069649Y0315203D01*
X0072500Y0318809D02*
X0072598Y0318811D01*
X0072696Y0318817D01*
X0072794Y0318826D01*
X0072891Y0318840D01*
X0072988Y0318857D01*
X0073084Y0318878D01*
X0073179Y0318903D01*
X0073273Y0318931D01*
X0073365Y0318964D01*
X0073457Y0318999D01*
X0073547Y0319039D01*
X0073635Y0319081D01*
X0073722Y0319128D01*
X0073806Y0319177D01*
X0073889Y0319230D01*
X0073969Y0319286D01*
X0074048Y0319346D01*
X0074124Y0319408D01*
X0074197Y0319473D01*
X0074268Y0319541D01*
X0074336Y0319612D01*
X0074401Y0319685D01*
X0074463Y0319761D01*
X0074523Y0319840D01*
X0074579Y0319920D01*
X0074632Y0320003D01*
X0074681Y0320087D01*
X0074728Y0320174D01*
X0074770Y0320262D01*
X0074810Y0320352D01*
X0074845Y0320444D01*
X0074878Y0320536D01*
X0074906Y0320630D01*
X0074931Y0320725D01*
X0074952Y0320821D01*
X0074969Y0320918D01*
X0074983Y0321015D01*
X0074992Y0321113D01*
X0074998Y0321211D01*
X0075000Y0321309D01*
X0075000Y0341703D01*
X0075002Y0341790D01*
X0075008Y0341877D01*
X0075017Y0341964D01*
X0075030Y0342050D01*
X0075047Y0342136D01*
X0075068Y0342221D01*
X0075093Y0342304D01*
X0075121Y0342387D01*
X0075152Y0342468D01*
X0075187Y0342548D01*
X0075226Y0342626D01*
X0075268Y0342703D01*
X0075313Y0342778D01*
X0075362Y0342850D01*
X0075413Y0342921D01*
X0075468Y0342989D01*
X0075525Y0343054D01*
X0075586Y0343117D01*
X0075649Y0343178D01*
X0075714Y0343235D01*
X0075782Y0343290D01*
X0075853Y0343341D01*
X0075925Y0343390D01*
X0076000Y0343435D01*
X0076077Y0343477D01*
X0076155Y0343516D01*
X0076235Y0343551D01*
X0076316Y0343582D01*
X0076399Y0343610D01*
X0076482Y0343635D01*
X0076567Y0343656D01*
X0076653Y0343673D01*
X0076739Y0343686D01*
X0076826Y0343695D01*
X0076913Y0343701D01*
X0077000Y0343703D01*
X0137000Y0343703D01*
X0137087Y0343701D01*
X0137174Y0343695D01*
X0137261Y0343686D01*
X0137347Y0343673D01*
X0137433Y0343656D01*
X0137518Y0343635D01*
X0137601Y0343610D01*
X0137684Y0343582D01*
X0137765Y0343551D01*
X0137845Y0343516D01*
X0137923Y0343477D01*
X0138000Y0343435D01*
X0138075Y0343390D01*
X0138147Y0343341D01*
X0138218Y0343290D01*
X0138286Y0343235D01*
X0138351Y0343178D01*
X0138414Y0343117D01*
X0138475Y0343054D01*
X0138532Y0342989D01*
X0138587Y0342921D01*
X0138638Y0342850D01*
X0138687Y0342778D01*
X0138732Y0342703D01*
X0138774Y0342626D01*
X0138813Y0342548D01*
X0138848Y0342468D01*
X0138879Y0342387D01*
X0138907Y0342304D01*
X0138932Y0342221D01*
X0138953Y0342136D01*
X0138970Y0342050D01*
X0138983Y0341964D01*
X0138992Y0341877D01*
X0138998Y0341790D01*
X0139000Y0341703D01*
X0139000Y0321309D01*
X0139002Y0321211D01*
X0139008Y0321113D01*
X0139017Y0321015D01*
X0139031Y0320918D01*
X0139048Y0320821D01*
X0139069Y0320725D01*
X0139094Y0320630D01*
X0139122Y0320536D01*
X0139155Y0320444D01*
X0139190Y0320352D01*
X0139230Y0320262D01*
X0139272Y0320174D01*
X0139319Y0320087D01*
X0139368Y0320003D01*
X0139421Y0319920D01*
X0139477Y0319840D01*
X0139537Y0319761D01*
X0139599Y0319685D01*
X0139664Y0319612D01*
X0139732Y0319541D01*
X0139803Y0319473D01*
X0139876Y0319408D01*
X0139952Y0319346D01*
X0140031Y0319286D01*
X0140111Y0319230D01*
X0140194Y0319177D01*
X0140278Y0319128D01*
X0140365Y0319081D01*
X0140453Y0319039D01*
X0140543Y0318999D01*
X0140635Y0318964D01*
X0140727Y0318931D01*
X0140821Y0318903D01*
X0140916Y0318878D01*
X0141012Y0318857D01*
X0141109Y0318840D01*
X0141206Y0318826D01*
X0141304Y0318817D01*
X0141402Y0318811D01*
X0141500Y0318809D01*
X0072149Y0304384D02*
X0072051Y0304386D01*
X0071953Y0304392D01*
X0071855Y0304401D01*
X0071758Y0304415D01*
X0071661Y0304432D01*
X0071565Y0304453D01*
X0071470Y0304478D01*
X0071376Y0304506D01*
X0071284Y0304539D01*
X0071192Y0304574D01*
X0071102Y0304614D01*
X0071014Y0304656D01*
X0070927Y0304703D01*
X0070843Y0304752D01*
X0070760Y0304805D01*
X0070680Y0304861D01*
X0070601Y0304921D01*
X0070525Y0304983D01*
X0070452Y0305048D01*
X0070381Y0305116D01*
X0070313Y0305187D01*
X0070248Y0305260D01*
X0070186Y0305336D01*
X0070126Y0305415D01*
X0070070Y0305495D01*
X0070017Y0305578D01*
X0069968Y0305662D01*
X0069921Y0305749D01*
X0069879Y0305837D01*
X0069839Y0305927D01*
X0069804Y0306019D01*
X0069771Y0306111D01*
X0069743Y0306205D01*
X0069718Y0306300D01*
X0069697Y0306396D01*
X0069680Y0306493D01*
X0069666Y0306590D01*
X0069657Y0306688D01*
X0069651Y0306786D01*
X0069649Y0306884D01*
X0051287Y0274384D02*
X0051289Y0274545D01*
X0051295Y0274705D01*
X0051305Y0274866D01*
X0051319Y0275026D01*
X0051337Y0275186D01*
X0051358Y0275345D01*
X0051384Y0275504D01*
X0051414Y0275662D01*
X0051447Y0275819D01*
X0051485Y0275976D01*
X0051526Y0276131D01*
X0051571Y0276285D01*
X0051620Y0276438D01*
X0051673Y0276590D01*
X0051729Y0276741D01*
X0051790Y0276890D01*
X0051853Y0277038D01*
X0051921Y0277184D01*
X0051992Y0277328D01*
X0052066Y0277470D01*
X0052144Y0277611D01*
X0052226Y0277749D01*
X0052311Y0277886D01*
X0052399Y0278020D01*
X0052491Y0278152D01*
X0052586Y0278282D01*
X0052684Y0278410D01*
X0052785Y0278535D01*
X0052889Y0278657D01*
X0052996Y0278777D01*
X0053106Y0278894D01*
X0053219Y0279009D01*
X0053335Y0279120D01*
X0053454Y0279229D01*
X0053575Y0279334D01*
X0053699Y0279437D01*
X0053825Y0279537D01*
X0053953Y0279633D01*
X0054084Y0279726D01*
X0054218Y0279816D01*
X0054353Y0279903D01*
X0054491Y0279986D01*
X0054630Y0280066D01*
X0054772Y0280142D01*
X0054915Y0280215D01*
X0055060Y0280284D01*
X0055207Y0280350D01*
X0055355Y0280412D01*
X0055505Y0280470D01*
X0055656Y0280525D01*
X0055809Y0280576D01*
X0055963Y0280623D01*
X0056118Y0280666D01*
X0056274Y0280705D01*
X0056430Y0280741D01*
X0056588Y0280772D01*
X0056746Y0280800D01*
X0056905Y0280824D01*
X0057065Y0280844D01*
X0057225Y0280860D01*
X0057385Y0280872D01*
X0057546Y0280880D01*
X0057707Y0280884D01*
X0057867Y0280884D01*
X0058028Y0280880D01*
X0058189Y0280872D01*
X0058349Y0280860D01*
X0058509Y0280844D01*
X0058669Y0280824D01*
X0058828Y0280800D01*
X0058986Y0280772D01*
X0059144Y0280741D01*
X0059300Y0280705D01*
X0059456Y0280666D01*
X0059611Y0280623D01*
X0059765Y0280576D01*
X0059918Y0280525D01*
X0060069Y0280470D01*
X0060219Y0280412D01*
X0060367Y0280350D01*
X0060514Y0280284D01*
X0060659Y0280215D01*
X0060802Y0280142D01*
X0060944Y0280066D01*
X0061083Y0279986D01*
X0061221Y0279903D01*
X0061356Y0279816D01*
X0061490Y0279726D01*
X0061621Y0279633D01*
X0061749Y0279537D01*
X0061875Y0279437D01*
X0061999Y0279334D01*
X0062120Y0279229D01*
X0062239Y0279120D01*
X0062355Y0279009D01*
X0062468Y0278894D01*
X0062578Y0278777D01*
X0062685Y0278657D01*
X0062789Y0278535D01*
X0062890Y0278410D01*
X0062988Y0278282D01*
X0063083Y0278152D01*
X0063175Y0278020D01*
X0063263Y0277886D01*
X0063348Y0277749D01*
X0063430Y0277611D01*
X0063508Y0277470D01*
X0063582Y0277328D01*
X0063653Y0277184D01*
X0063721Y0277038D01*
X0063784Y0276890D01*
X0063845Y0276741D01*
X0063901Y0276590D01*
X0063954Y0276438D01*
X0064003Y0276285D01*
X0064048Y0276131D01*
X0064089Y0275976D01*
X0064127Y0275819D01*
X0064160Y0275662D01*
X0064190Y0275504D01*
X0064216Y0275345D01*
X0064237Y0275186D01*
X0064255Y0275026D01*
X0064269Y0274866D01*
X0064279Y0274705D01*
X0064285Y0274545D01*
X0064287Y0274384D01*
X0064285Y0274223D01*
X0064279Y0274063D01*
X0064269Y0273902D01*
X0064255Y0273742D01*
X0064237Y0273582D01*
X0064216Y0273423D01*
X0064190Y0273264D01*
X0064160Y0273106D01*
X0064127Y0272949D01*
X0064089Y0272792D01*
X0064048Y0272637D01*
X0064003Y0272483D01*
X0063954Y0272330D01*
X0063901Y0272178D01*
X0063845Y0272027D01*
X0063784Y0271878D01*
X0063721Y0271730D01*
X0063653Y0271584D01*
X0063582Y0271440D01*
X0063508Y0271298D01*
X0063430Y0271157D01*
X0063348Y0271019D01*
X0063263Y0270882D01*
X0063175Y0270748D01*
X0063083Y0270616D01*
X0062988Y0270486D01*
X0062890Y0270358D01*
X0062789Y0270233D01*
X0062685Y0270111D01*
X0062578Y0269991D01*
X0062468Y0269874D01*
X0062355Y0269759D01*
X0062239Y0269648D01*
X0062120Y0269539D01*
X0061999Y0269434D01*
X0061875Y0269331D01*
X0061749Y0269231D01*
X0061621Y0269135D01*
X0061490Y0269042D01*
X0061356Y0268952D01*
X0061221Y0268865D01*
X0061083Y0268782D01*
X0060944Y0268702D01*
X0060802Y0268626D01*
X0060659Y0268553D01*
X0060514Y0268484D01*
X0060367Y0268418D01*
X0060219Y0268356D01*
X0060069Y0268298D01*
X0059918Y0268243D01*
X0059765Y0268192D01*
X0059611Y0268145D01*
X0059456Y0268102D01*
X0059300Y0268063D01*
X0059144Y0268027D01*
X0058986Y0267996D01*
X0058828Y0267968D01*
X0058669Y0267944D01*
X0058509Y0267924D01*
X0058349Y0267908D01*
X0058189Y0267896D01*
X0058028Y0267888D01*
X0057867Y0267884D01*
X0057707Y0267884D01*
X0057546Y0267888D01*
X0057385Y0267896D01*
X0057225Y0267908D01*
X0057065Y0267924D01*
X0056905Y0267944D01*
X0056746Y0267968D01*
X0056588Y0267996D01*
X0056430Y0268027D01*
X0056274Y0268063D01*
X0056118Y0268102D01*
X0055963Y0268145D01*
X0055809Y0268192D01*
X0055656Y0268243D01*
X0055505Y0268298D01*
X0055355Y0268356D01*
X0055207Y0268418D01*
X0055060Y0268484D01*
X0054915Y0268553D01*
X0054772Y0268626D01*
X0054630Y0268702D01*
X0054491Y0268782D01*
X0054353Y0268865D01*
X0054218Y0268952D01*
X0054084Y0269042D01*
X0053953Y0269135D01*
X0053825Y0269231D01*
X0053699Y0269331D01*
X0053575Y0269434D01*
X0053454Y0269539D01*
X0053335Y0269648D01*
X0053219Y0269759D01*
X0053106Y0269874D01*
X0052996Y0269991D01*
X0052889Y0270111D01*
X0052785Y0270233D01*
X0052684Y0270358D01*
X0052586Y0270486D01*
X0052491Y0270616D01*
X0052399Y0270748D01*
X0052311Y0270882D01*
X0052226Y0271019D01*
X0052144Y0271157D01*
X0052066Y0271298D01*
X0051992Y0271440D01*
X0051921Y0271584D01*
X0051853Y0271730D01*
X0051790Y0271878D01*
X0051729Y0272027D01*
X0051673Y0272178D01*
X0051620Y0272330D01*
X0051571Y0272483D01*
X0051526Y0272637D01*
X0051485Y0272792D01*
X0051447Y0272949D01*
X0051414Y0273106D01*
X0051384Y0273264D01*
X0051358Y0273423D01*
X0051337Y0273582D01*
X0051319Y0273742D01*
X0051305Y0273902D01*
X0051295Y0274063D01*
X0051289Y0274223D01*
X0051287Y0274384D01*
D15*
X0055050Y0252002D02*
X0056551Y0252002D01*
X0055801Y0252002D02*
X0055801Y0247498D01*
X0056551Y0247498D02*
X0055050Y0247498D01*
X0058119Y0248249D02*
X0058870Y0247498D01*
X0060371Y0247498D01*
X0061122Y0248249D01*
X0062723Y0247498D02*
X0065726Y0250501D01*
X0065726Y0251251D01*
X0064975Y0252002D01*
X0063474Y0252002D01*
X0062723Y0251251D01*
X0061122Y0251251D02*
X0060371Y0252002D01*
X0058870Y0252002D01*
X0058119Y0251251D01*
X0058119Y0248249D01*
X0062723Y0247498D02*
X0065726Y0247498D01*
X0064546Y0235897D02*
X0069050Y0235897D01*
X0064546Y0232894D01*
X0069050Y0232894D01*
X0068299Y0231293D02*
X0069050Y0230542D01*
X0069050Y0229041D01*
X0068299Y0228290D01*
X0066798Y0228290D02*
X0066047Y0229791D01*
X0066047Y0230542D01*
X0066798Y0231293D01*
X0068299Y0231293D01*
X0066798Y0228290D02*
X0064546Y0228290D01*
X0064546Y0231293D01*
X0065297Y0226689D02*
X0064546Y0225938D01*
X0064546Y0224437D01*
X0065297Y0223686D01*
X0065297Y0226689D02*
X0066047Y0226689D01*
X0069050Y0223686D01*
X0069050Y0226689D01*
X0069050Y0222085D02*
X0069050Y0219082D01*
X0069050Y0220583D02*
X0064546Y0220583D01*
X0066047Y0219082D01*
X0065297Y0217481D02*
X0064546Y0216730D01*
X0064546Y0215229D01*
X0065297Y0214478D01*
X0068299Y0214478D01*
X0069050Y0215229D01*
X0069050Y0216730D01*
X0068299Y0217481D01*
X0069050Y0212877D02*
X0064546Y0212877D01*
X0066798Y0212877D02*
X0066798Y0209874D01*
X0066798Y0208273D02*
X0066798Y0205270D01*
X0064546Y0207522D01*
X0069050Y0207522D01*
X0069050Y0209874D02*
X0064546Y0209874D01*
X0064546Y0203669D02*
X0065297Y0203669D01*
X0068299Y0200667D01*
X0069050Y0200667D01*
X0064546Y0200667D02*
X0064546Y0203669D01*
X0064224Y0172002D02*
X0062723Y0170501D01*
X0061122Y0171251D02*
X0060371Y0172002D01*
X0058870Y0172002D01*
X0058119Y0171251D01*
X0058119Y0168249D01*
X0058870Y0167498D01*
X0060371Y0167498D01*
X0061122Y0168249D01*
X0062723Y0167498D02*
X0065726Y0167498D01*
X0064224Y0167498D02*
X0064224Y0172002D01*
X0056551Y0172002D02*
X0055050Y0172002D01*
X0055801Y0172002D02*
X0055801Y0167498D01*
X0056551Y0167498D02*
X0055050Y0167498D01*
X0064546Y0155897D02*
X0069050Y0155897D01*
X0064546Y0152894D01*
X0069050Y0152894D01*
X0069050Y0150542D02*
X0064546Y0150542D01*
X0066798Y0148290D01*
X0066798Y0151293D01*
X0065297Y0146689D02*
X0068299Y0143686D01*
X0069050Y0143686D01*
X0068299Y0142085D02*
X0069050Y0141334D01*
X0069050Y0139833D01*
X0068299Y0139082D01*
X0066798Y0139833D02*
X0066798Y0141334D01*
X0067549Y0142085D01*
X0068299Y0142085D01*
X0066798Y0139833D02*
X0066047Y0139082D01*
X0065297Y0139082D01*
X0064546Y0139833D01*
X0064546Y0141334D01*
X0065297Y0142085D01*
X0064546Y0143686D02*
X0064546Y0146689D01*
X0065297Y0146689D01*
X0069050Y0137481D02*
X0069050Y0134478D01*
X0064546Y0134478D01*
X0064546Y0132126D02*
X0066798Y0129874D01*
X0066798Y0132877D01*
X0069050Y0132126D02*
X0064546Y0132126D01*
X0064546Y0128273D02*
X0065297Y0128273D01*
X0068299Y0125270D01*
X0069050Y0125270D01*
X0064546Y0125270D02*
X0064546Y0128273D01*
X0080025Y0083227D02*
X0080025Y0080975D01*
X0081527Y0081726D01*
X0082277Y0081726D01*
X0083028Y0080975D01*
X0083028Y0079474D01*
X0082277Y0078723D01*
X0080776Y0078723D01*
X0080025Y0079474D01*
X0080025Y0083227D02*
X0083028Y0083227D01*
X0084593Y0072755D02*
X0086094Y0072755D01*
X0086844Y0072004D01*
X0083842Y0069001D01*
X0084593Y0068251D01*
X0086094Y0068251D01*
X0086844Y0069001D01*
X0086844Y0072004D01*
X0084593Y0072755D02*
X0083842Y0072004D01*
X0083842Y0069001D01*
X0082241Y0068251D02*
X0079238Y0068251D01*
X0080739Y0068251D02*
X0080739Y0072755D01*
X0079238Y0071253D01*
X0077964Y0061337D02*
X0077964Y0056833D01*
X0079465Y0056833D02*
X0076462Y0056833D01*
X0076462Y0059836D02*
X0077964Y0061337D01*
X0081066Y0061337D02*
X0081066Y0059085D01*
X0082568Y0059836D01*
X0083318Y0059836D01*
X0084069Y0059085D01*
X0084069Y0057584D01*
X0083318Y0056833D01*
X0081817Y0056833D01*
X0081066Y0057584D01*
X0081066Y0061337D02*
X0084069Y0061337D01*
X0128825Y0079117D02*
X0131827Y0079117D01*
X0130326Y0079117D02*
X0130326Y0083621D01*
X0128825Y0082119D01*
X0134657Y0072398D02*
X0133155Y0070896D01*
X0135407Y0070896D01*
X0136158Y0070146D01*
X0136158Y0069395D01*
X0135407Y0068644D01*
X0133906Y0068644D01*
X0133155Y0069395D01*
X0133155Y0070896D01*
X0134657Y0072398D02*
X0136158Y0073148D01*
X0136898Y0062518D02*
X0135397Y0061017D01*
X0136898Y0062518D02*
X0136898Y0058015D01*
X0135397Y0058015D02*
X0138400Y0058015D01*
X0133796Y0058015D02*
X0130793Y0058015D01*
X0132294Y0058015D02*
X0132294Y0062518D01*
X0130793Y0061017D01*
X0130546Y0112998D02*
X0130546Y0115250D01*
X0131297Y0116001D01*
X0134299Y0116001D01*
X0135050Y0115250D01*
X0135050Y0112998D01*
X0130546Y0112998D01*
X0132047Y0117602D02*
X0130546Y0119103D01*
X0135050Y0119103D01*
X0135050Y0117602D02*
X0135050Y0120604D01*
X0124050Y0140791D02*
X0119546Y0140791D01*
X0119546Y0139290D02*
X0119546Y0142293D01*
X0121047Y0143894D02*
X0119546Y0145395D01*
X0124050Y0145395D01*
X0124050Y0143894D02*
X0124050Y0146897D01*
X0125800Y0150296D02*
X0125800Y0151875D01*
X0120300Y0152502D02*
X0120300Y0168994D01*
X0125800Y0169621D02*
X0125800Y0171200D01*
X0125800Y0161875D02*
X0125800Y0159621D01*
X0120300Y0168994D02*
X0120499Y0169147D01*
X0120701Y0169295D01*
X0120906Y0169438D01*
X0121115Y0169576D01*
X0121327Y0169709D01*
X0121542Y0169837D01*
X0121760Y0169959D01*
X0121981Y0170077D01*
X0122205Y0170189D01*
X0122431Y0170296D01*
X0122660Y0170397D01*
X0122891Y0170493D01*
X0123125Y0170584D01*
X0123360Y0170669D01*
X0123598Y0170748D01*
X0123837Y0170821D01*
X0124078Y0170889D01*
X0124320Y0170951D01*
X0124564Y0171007D01*
X0124810Y0171058D01*
X0125056Y0171102D01*
X0125303Y0171141D01*
X0125551Y0171173D01*
X0125800Y0171200D01*
X0123599Y0180698D02*
X0124350Y0181449D01*
X0124350Y0182199D01*
X0123599Y0182950D01*
X0119846Y0182950D01*
X0119846Y0182199D02*
X0119846Y0183701D01*
X0119846Y0185302D02*
X0119846Y0187554D01*
X0120597Y0188304D01*
X0122098Y0188304D01*
X0122849Y0187554D01*
X0122849Y0185302D01*
X0124350Y0185302D02*
X0119846Y0185302D01*
X0122098Y0189906D02*
X0122098Y0192908D01*
X0119846Y0192158D02*
X0122098Y0189906D01*
X0124350Y0192158D02*
X0119846Y0192158D01*
X0123599Y0215698D02*
X0124350Y0216449D01*
X0124350Y0217199D01*
X0123599Y0217950D01*
X0119846Y0217950D01*
X0119846Y0217199D02*
X0119846Y0218701D01*
X0119846Y0220302D02*
X0119846Y0222554D01*
X0120597Y0223304D01*
X0122098Y0223304D01*
X0122849Y0222554D01*
X0122849Y0220302D01*
X0124350Y0220302D02*
X0119846Y0220302D01*
X0119846Y0224906D02*
X0122098Y0224906D01*
X0121347Y0226407D01*
X0121347Y0227158D01*
X0122098Y0227908D01*
X0123599Y0227908D01*
X0124350Y0227158D01*
X0124350Y0225656D01*
X0123599Y0224906D01*
X0119846Y0224906D02*
X0119846Y0227908D01*
X0130621Y0261779D02*
X0129870Y0262530D01*
X0130621Y0261779D02*
X0132122Y0261779D01*
X0132873Y0262530D01*
X0132873Y0264031D01*
X0132122Y0264782D01*
X0131372Y0264782D01*
X0129870Y0264031D01*
X0129870Y0266283D01*
X0132873Y0266283D01*
X0132910Y0272252D02*
X0131408Y0272252D01*
X0130658Y0273002D01*
X0133660Y0276005D01*
X0133660Y0273002D01*
X0132910Y0272252D01*
X0130658Y0273002D02*
X0130658Y0276005D01*
X0131408Y0276756D01*
X0132910Y0276756D01*
X0133660Y0276005D01*
X0129056Y0272252D02*
X0126054Y0272252D01*
X0127555Y0272252D02*
X0127555Y0276756D01*
X0126054Y0275254D01*
X0128829Y0283669D02*
X0131832Y0283669D01*
X0130331Y0283669D02*
X0130331Y0288173D01*
X0128829Y0286672D01*
X0133433Y0285921D02*
X0134935Y0286672D01*
X0135685Y0286672D01*
X0136436Y0285921D01*
X0136436Y0284420D01*
X0135685Y0283669D01*
X0134184Y0283669D01*
X0133433Y0284420D01*
X0133433Y0285921D02*
X0133433Y0288173D01*
X0136436Y0288173D01*
X0150597Y0227908D02*
X0151347Y0227908D01*
X0152098Y0227158D01*
X0152849Y0227908D01*
X0153599Y0227908D01*
X0154350Y0227158D01*
X0154350Y0225656D01*
X0153599Y0224906D01*
X0152098Y0226407D02*
X0152098Y0227158D01*
X0150597Y0227908D02*
X0149846Y0227158D01*
X0149846Y0225656D01*
X0150597Y0224906D01*
X0150597Y0223304D02*
X0152098Y0223304D01*
X0152849Y0222554D01*
X0152849Y0220302D01*
X0154350Y0220302D02*
X0149846Y0220302D01*
X0149846Y0222554D01*
X0150597Y0223304D01*
X0149846Y0218701D02*
X0149846Y0217199D01*
X0149846Y0217950D02*
X0153599Y0217950D01*
X0154350Y0217199D01*
X0154350Y0216449D01*
X0153599Y0215698D01*
X0154350Y0192908D02*
X0154350Y0189906D01*
X0151347Y0192908D01*
X0150597Y0192908D01*
X0149846Y0192158D01*
X0149846Y0190656D01*
X0150597Y0189906D01*
X0150597Y0188304D02*
X0152098Y0188304D01*
X0152849Y0187554D01*
X0152849Y0185302D01*
X0154350Y0185302D02*
X0149846Y0185302D01*
X0149846Y0187554D01*
X0150597Y0188304D01*
X0149846Y0183701D02*
X0149846Y0182199D01*
X0149846Y0182950D02*
X0153599Y0182950D01*
X0154350Y0182199D01*
X0154350Y0181449D01*
X0153599Y0180698D01*
X0148414Y0174921D02*
X0148414Y0147362D01*
X0170461Y0147362D01*
X0170461Y0174921D01*
X0148414Y0174921D01*
X0170461Y0174921D02*
X0175973Y0174921D01*
X0175973Y0147362D01*
X0170461Y0147362D01*
X0155050Y0120604D02*
X0155050Y0117602D01*
X0152047Y0120604D01*
X0151297Y0120604D01*
X0150546Y0119854D01*
X0150546Y0118353D01*
X0151297Y0117602D01*
X0151297Y0116001D02*
X0150546Y0115250D01*
X0150546Y0112998D01*
X0155050Y0112998D01*
X0155050Y0115250D01*
X0154299Y0116001D01*
X0151297Y0116001D01*
X0136833Y0163844D02*
X0136755Y0164088D01*
X0136670Y0164330D01*
X0136580Y0164569D01*
X0136484Y0164807D01*
X0136382Y0165042D01*
X0136274Y0165275D01*
X0136161Y0165505D01*
X0136042Y0165732D01*
X0135918Y0165956D01*
X0135788Y0166177D01*
X0135653Y0166394D01*
X0135512Y0166609D01*
X0135366Y0166820D01*
X0135216Y0167027D01*
X0135060Y0167230D01*
X0134899Y0167430D01*
X0134734Y0167626D01*
X0134564Y0167817D01*
X0134389Y0168005D01*
X0134209Y0168188D01*
X0134026Y0168366D01*
X0133837Y0168541D01*
X0133645Y0168710D01*
X0133449Y0168875D01*
X0133248Y0169035D01*
X0133044Y0169189D01*
X0132836Y0169339D01*
X0132625Y0169484D01*
X0132410Y0169624D01*
X0132192Y0169758D01*
X0131970Y0169887D01*
X0131746Y0170010D01*
X0131518Y0170128D01*
X0131288Y0170241D01*
X0131055Y0170347D01*
X0130819Y0170448D01*
X0130581Y0170544D01*
X0130341Y0170633D01*
X0130099Y0170716D01*
X0129854Y0170794D01*
X0129608Y0170865D01*
X0129360Y0170931D01*
X0129111Y0170990D01*
X0128861Y0171044D01*
X0128609Y0171091D01*
X0128356Y0171132D01*
X0128102Y0171167D01*
X0127847Y0171196D01*
X0127592Y0171218D01*
X0127336Y0171234D01*
X0127080Y0171244D01*
X0126824Y0171248D01*
X0126567Y0171245D01*
X0126311Y0171237D01*
X0126055Y0171222D01*
X0125800Y0171200D01*
X0136833Y0157652D02*
X0136755Y0157410D01*
X0136671Y0157170D01*
X0136582Y0156932D01*
X0136487Y0156696D01*
X0136385Y0156462D01*
X0136279Y0156231D01*
X0136166Y0156003D01*
X0136049Y0155777D01*
X0135926Y0155554D01*
X0135797Y0155335D01*
X0135663Y0155118D01*
X0135524Y0154905D01*
X0135380Y0154695D01*
X0135231Y0154489D01*
X0135077Y0154287D01*
X0134918Y0154088D01*
X0134754Y0153893D01*
X0134585Y0153702D01*
X0134412Y0153516D01*
X0134235Y0153333D01*
X0134053Y0153155D01*
X0133867Y0152982D01*
X0133676Y0152813D01*
X0133482Y0152649D01*
X0133284Y0152489D01*
X0133082Y0152334D01*
X0132876Y0152185D01*
X0132667Y0152040D01*
X0132454Y0151900D01*
X0132238Y0151766D01*
X0132018Y0151637D01*
X0131796Y0151513D01*
X0131571Y0151394D01*
X0131343Y0151282D01*
X0131112Y0151174D01*
X0130879Y0151073D01*
X0130643Y0150977D01*
X0130405Y0150886D01*
X0130165Y0150802D01*
X0129923Y0150723D01*
X0129679Y0150650D01*
X0129433Y0150584D01*
X0129186Y0150523D01*
X0128938Y0150468D01*
X0128688Y0150419D01*
X0128437Y0150376D01*
X0128185Y0150340D01*
X0127933Y0150309D01*
X0127679Y0150285D01*
X0127426Y0150267D01*
X0127171Y0150255D01*
X0126917Y0150249D01*
X0126662Y0150249D01*
X0126408Y0150255D01*
X0126154Y0150268D01*
X0125900Y0150287D01*
X0125647Y0150312D01*
X0125394Y0150343D01*
X0125142Y0150380D01*
X0124892Y0150423D01*
X0124642Y0150472D01*
X0124393Y0150528D01*
X0124146Y0150589D01*
X0123901Y0150656D01*
X0123657Y0150729D01*
X0123415Y0150808D01*
X0123176Y0150893D01*
X0122938Y0150984D01*
X0122702Y0151081D01*
X0122469Y0151183D01*
X0122239Y0151291D01*
X0122011Y0151404D01*
X0121786Y0151523D01*
X0121564Y0151647D01*
X0121345Y0151777D01*
X0121129Y0151911D01*
X0120916Y0152051D01*
X0120707Y0152197D01*
X0120502Y0152347D01*
X0120300Y0152502D01*
X0084074Y0261386D02*
X0081071Y0261386D01*
X0082572Y0261386D02*
X0082572Y0265889D01*
X0081071Y0264388D01*
X0078992Y0271858D02*
X0079743Y0272609D01*
X0079743Y0273359D01*
X0078992Y0274110D01*
X0076740Y0274110D01*
X0076740Y0272609D01*
X0077491Y0271858D01*
X0078992Y0271858D01*
X0076740Y0274110D02*
X0078242Y0275611D01*
X0079743Y0276362D01*
X0079103Y0282488D02*
X0082105Y0282488D01*
X0080604Y0282488D02*
X0080604Y0286992D01*
X0079103Y0285491D01*
X0077501Y0282488D02*
X0074499Y0282488D01*
X0076000Y0282488D02*
X0076000Y0286992D01*
X0074499Y0285491D01*
D16*
X0085456Y0292297D03*
X0094456Y0292297D03*
X0103456Y0292297D03*
X0112456Y0292297D03*
X0121456Y0292297D03*
X0119543Y0052706D03*
X0110543Y0052706D03*
X0101543Y0052706D03*
X0092543Y0052706D03*
X0128543Y0052706D03*
D17*
X0124043Y0047784D03*
X0115043Y0047784D03*
X0106043Y0047784D03*
X0097043Y0047784D03*
X0088043Y0047784D03*
X0089956Y0297218D03*
X0098956Y0297218D03*
X0107956Y0297218D03*
X0116956Y0297218D03*
X0125956Y0297218D03*
D18*
X0125956Y0274581D03*
X0116956Y0274581D03*
X0107956Y0274581D03*
X0098956Y0274581D03*
X0089956Y0274581D03*
X0088043Y0070422D03*
X0097043Y0070422D03*
X0106043Y0070422D03*
X0115043Y0070422D03*
X0124043Y0070422D03*
D19*
X0141800Y0115248D03*
X0161800Y0115248D03*
D20*
X0161800Y0108998D03*
X0161800Y0132498D03*
X0141800Y0132498D03*
X0141800Y0108998D03*
D21*
X0121800Y0104998D03*
X0121800Y0126498D03*
X0106800Y0126498D03*
X0106800Y0104998D03*
M02*
