%
M48
M72
T01C0.01969
T02C0.03200
T03C0.03543
T04C0.03937
T05C0.04000
T06C0.04400
T07C0.11811
T08C0.12598
%
T01
X68296Y105965
X67804Y132539
X59930Y158130
X93887Y192579
X111773Y210392
X117509Y189134
X131780Y169941
X113781Y141487
X111843Y160717
X97824Y136968
X121800Y90748
X146800Y210748
X146800Y250748
X129502Y274102
X116800Y250748
X65835Y233917
T02
X51800Y230748
X51800Y240748
X51800Y220748
X51800Y210748
X51800Y200748
X51800Y190748
X51800Y180748
X51800Y160748
X51800Y150748
X51800Y140748
X51800Y130748
X51800Y120748
X51800Y110748
X51800Y100748
X81800Y100748
X81800Y110748
X81800Y120748
X81800Y130748
X81800Y140748
X81800Y150748
X81800Y160748
X81800Y180748
X81800Y190748
X81800Y200748
X81800Y210748
X81800Y220748
X81800Y230748
X81800Y240748
X126800Y165748
X134300Y160748
X126800Y155748
X121800Y130748
X106800Y130748
X106800Y100748
X121800Y100748
T03
X124043Y80619
X128543Y70619
X124043Y60619
X119543Y70619
X115043Y80619
X110543Y70619
X106043Y80619
X101543Y70619
X97043Y80619
X92543Y70619
X88043Y80619
X88043Y60619
X97043Y60619
X106043Y60619
X115043Y60619
X116956Y264384
X112456Y274384
X107956Y284384
X103456Y274384
X98956Y284384
X94456Y274384
X89956Y284384
X85456Y274384
X89956Y264384
X98956Y264384
X107956Y264384
X121456Y274384
X116956Y284384
X125956Y284384
X125956Y264384
T04
X161800Y167835
X161800Y154055
T05
X161800Y185748
X161800Y195748
X161800Y205748
X161800Y220748
X161800Y230748
X161800Y240748
X131800Y240748
X131800Y230748
X131800Y220748
X131800Y205748
X131800Y195748
X131800Y185748
T06
X141800Y140748
X161800Y140748
X161800Y100748
X141800Y100748
T07
X156212Y70619
X57787Y70619
X57787Y274384
X156212Y274384
T08
X31800Y55748
X31800Y285748
X181800Y285748
X181800Y55748
M30
